<ttFont>
          <CharString index="0">
            rmoveto
            68 -61 49 -101 -183 -161 -98 -128 -118 vhcurveto
            -34 15 -28 20 -21 23 -22 23 -10 22 12 27 10 22 -16 10 -11 -14 -20 -15 2 -60 27 -29 23 -26 33 -20 38 -18 -129 -142 -98 -294 141 -60 142 -61 187 191 82 97 rrcurveto
            -59 -45 -25 -197 111 hhcurveto
            56 57 40 46 34 hvcurveto
            37 49 38 71 18 40 11 24 -19 -1 -9 -19 -22 -50 -34 -52 -31 -40 -79 -98 -99 -25 31 169 18 98 29 79 53 58 54 58 -49 74 -59 -106 -50 -91 -81 -102 -103 -87 rrcurveto
            -184 -153 -159 45 102 255 36 89 68 101 29 26 88 -28 95 -8 107 9 rrcurveto
            219 19 73 97 67 vvcurveto
            -39 11 rmoveto
            -91 -97 -68 -156 -13 vhcurveto
            -120 -10 -82 10 -73 23 rrcurveto
            124 105 127 107 176 hhcurveto
            69 51 -28 -54 hvcurveto
            return
          </CharString>
          <CharString index="1">
            rmoveto
            -1 27 -26 6 -30 -9 -32 -11 -37 -55 -8 -16 -189 -32 -329 -76 -52 -236 -26 -118 105 -75 106 41 82 31 61 101 -39 75 -8 18 -17 -22 4 -5 16 -15 5 -118 -105 -42 rrcurveto
            -86 -33 -53 66 22 96 48 216 259 63 180 39 -21 -36 -70 -130 -59 -157 -54 -145 -162 -294 -291 -73 -160 -40 -261 74 53 218 21 83 65 63 35 15 10 5 10 10 -21 -1 rrcurveto
            -32 -2 -80 -63 -25 -66 -94 -250 216 -125 282 47 145 24 140 80 110 141 159 204 -7 199 122 224 rrcurveto
            9 21 9 12 hhcurveto
            38 13 40 16 -1 41 rrcurveto
            -48 -4 rmoveto
            12 22 -32 -18 -88 hvcurveto
            15 19 29 35 10 -4 rrcurveto
            return
          </CharString>
          <CharString index="2">
            421 184 -36 callgsubr
            -15 6 -9 -18 -21 -43 -66 -127 -42 2 rrcurveto
            -13 -5 19 10 callsubr
            61 59 105 21 21 -14 -3 -15 6 -13 1 -32 2 -14 -24 -22 -42 -26 -49 -28 -49 -35 -42 -47 -56 -55 -8 10 70 6 38 27 49 8 14 36 59 52 59 45 25 rrcurveto
            37 20 37 -8 11 -37 17 -3 8 17 -14 15 -57 62 -115 -37 -60 -71 -151 -181 76 -175 115 110 29 28 27 40 16 26 -30 -105 47 -26 33 2 60 5 61 120 30 61 rrcurveto
            return
          </CharString>
          <CharString index="3">
            1346 225 rmoveto
            95 243 -116 155 -128 -11 -46 9 -58 -57 90 24 159 22 25 -179 -83 -197 -84 -200 -364 -235 36 287 11 84 63 117 26 75 28 83 -42 24 -52 -73 -87 -121 -137 -289 -122 -72 rrcurveto
            -40 -24 -26 11 14 69 19 95 66 181 59 132 71 160 45 187 -145 64 -177 78 -323 -155 -107 -247 -112 -256 196 -160 157 65 245 103 27 305 -221 -68 -22 -7 -7 -14 31 5 rrcurveto
            177 29 -89 -278 -139 -51 -133 -49 -147 88 93 251 83 224 309 205 163 -100 78 -48 -74 -212 -51 -123 -75 -179 -49 -131 -6 -84 -6 -82 36 -24 40 2 110 5 158 230 56 92 rrcurveto
            -12 -40 -11 -54 3 -49 19 -264 401 170 102 259 rrcurveto
            return
          </CharString>
          <CharString index="4">
            469 182 -36 callgsubr
            21 callgsubr
            -10 -19 -22 -46 -31 -45 -39 -56 -61 -30 -44 -13 29 79 26 83 25 67 25 67 15 40 38 26 rrcurveto
            -54 hlineto
            -19 -12 -5 -16 -8 hvcurveto
            -38 -79 -63 -117 -56 -65 -65 -75 -42 40 48 104 28 60 28 59 34 58 12 21 16 7 9 8 rrcurveto
            -61 hlineto
            -19 -12 -5 -16 -8 hvcurveto
            -15 -31 -21 -41 -20 -38 -18 -35 rcurveline
            -13 -6 9 -3 6 hhcurveto
            -18 -36 -25 -37 9 -43 rrcurveto
            -38 8 35 -7 20 hhcurveto
            77 65 124 60 34 hvcurveto
            -16 -52 -32 -107 -38 -66 -81 -23 -95 -17 -67 -32 -39 -18 -36 -27 -19 -37 rrcurveto
            -56 -30 10 -66 100 hhcurveto
            148 99 153 113 63 hvcurveto
            144 52 26 42 68 138 rrcurveto
            -309 -254 rmoveto
            -22 -37 rlineto
            -63 -46 -106 -124 -88 hhcurveto
            -86 38 118 44 102 hvcurveto
            57 25 86 20 65 17 rrcurveto
            return
          </CharString>
          <CharString index="5">
            463 184 -36 callgsubr
            -16 6 -9 -18 -10 -19 -15 -43 -33 -44 -20 -27 -26 -21 -24 -17 21 79 5 84 -13 80 -16 -12 -32 18 -14 -46 -19 -63 -97 -153 -59 25 -52 23 56 121 73 82 rrcurveto
            61 68 74 40 26 -71 11 -30 35 30 -35 29 -75 59 -98 -34 -59 -71 -74 -88 -60 -144 100 -43 80 -24 80 135 32 62 3 -11 0 -32 -4 -39 -4 -40 -7 -36 -12 -35 rrcurveto
            -77 -31 -91 -19 -98 -58 rrcurveto
            -48 -28 -39 -38 -49 vvcurveto
            -52 31 -25 63 145 132 178 126 44 vhcurveto
            74 35 29 56 51 105 rrcurveto
            -226 -229 rmoveto
            -14 -34 -19 -33 -24 -34 -28 -37 -31 -36 -31 -25 rrcurveto
            -18 -24 -59 -34 -43 hhcurveto
            -83 36 100 43 65 hvcurveto
            63 42 84 29 73 25 rrcurveto
            return
          </CharString>
          <CharString index="6">
            318 -7 callsubr
            21 -20 -51 callsubr
            -66 17 101 36 15 hvcurveto
            27 65 21 23 31 hvcurveto
            64 49 29 68 -38 29 -44 33 -76 -38 -51 -60 -44 -52 -34 -75 1 -60 rrcurveto
            -63 1 45 -33 50 hhcurveto
            111 -23 callsubr
            -104 28 rmoveto
            -30 -36 -52 -14 -18 hhcurveto
            9 18 25 44 26 32 123 149 5 -130 -82 -69 rrcurveto
            return
          </CharString>
          <CharString index="7">
            500 337 rmoveto
            18 43 -72 1 -26 -89 -8 -27 2 -42 14 -31 -38 -96 -52 -82 -57 4 -64 4 73 155 12 25 26 55 8 15 21 35 12 21 20 8 8 8 rrcurveto
            -61 hlineto
            -18 -13 -5 -16 -7 hvcurveto
            -23 -48 -78 -174 -61 -59 -50 -48 -32 44 43 93 -51 callgsubr
            -40 -20 -39 -18 -35 rcurveline
            -13 -6 9 -3 6 hhcurveto
            -18 -36 -25 -37 9 -43 rrcurveto
            -29 6 28 -17 28 hhcurveto
            55 55 93 42 23 hvcurveto
            -13 -43 -6 -80 54 -12 145 -31 77 293 21 70 rrcurveto
            2 -16 callgsubr
            vhcurveto
            return
          </CharString>
          <CharString index="8">
            412 184 -36 callgsubr
            -15 6 -9 -18 -39 -82 -49 -84 -66 -13 rrcurveto
            5 16 6 43 14 vvcurveto
            -1 37 -18 29 -50 -1 63 38 33 56 2 44 4 81 -129 11 -61 -111 -22 -40 -19 -39 -18 -35 -11 -23 15 -5 8 17 15 32 26 48 12 20 61 105 100 -62 -47 -72 rrcurveto
            -13 -20 -33 -48 -66 -20 -16 -5 8 -20 16 6 16 6 15 6 13 7 58 10 -24 -101 -15 -48 -127 -40 -170 -41 -54 -81 -53 -82 65 -78 102 30 144 42 103 109 51 140 rrcurveto
            85 17 43 86 46 93 rrcurveto
            -244 -220 rmoveto
            -54 -142 -127 -91 -78 -17 -105 -22 28 134 88 51 58 35 101 24 89 28 rrcurveto
            return
          </CharString>
          <CharString index="9">
            rmoveto
            -60 15 -70 10 -89 1 73 120 49 99 14 111 7 51 -68 40 -58 -136 -28 -67 -182 -106 -132 43 -117 38 -10 162 79 178 57 -41 91 -26 86 2 378 6 60 342 -275 45 rrcurveto
            -144 23 -180 -91 -95 -162 -7 -12 -7 -12 -5 -12 -55 68 -10 90 58 77 15 19 -14 2 -12 -14 -82 -87 17 -108 68 -75 -96 -212 41 -190 125 -43 165 -55 189 139 60 57 -4 -17 rcurveline
            -21 -93 -31 -70 -49 -83 -63 -1 -97 -7 -52 -8 -249 -35 -201 -160 186 -68 112 -41 272 109 128 185 80 1 99 -7 46 -12 38 -9 -1 20 -29 7 rrcurveto
            -191 859 rmoveto
            219 -35 -71 -269 -300 -32 -91 -9 -91 25 -56 44 8 17 10 17 10 17 84 144 157 99 121 -18 rrcurveto
            -94 -860 rmoveto
            -117 -168 -228 -78 -89 20 -147 31 220 152 177 27 56 9 65 5 63 2 rrcurveto
            return
          </CharString>
          <CharString index="10">
            20 -15 13 -19 -19 -13 -14 -19 -20 15 -13 19 19 13 14 19 vhcurveto
            return
          </CharString>
          <CharString index="11">
            rmoveto
            66 56 -51 64 -83 -29 -31 -11 -39 -24 -41 -32 -111 34 -143 56 -123 -10 -233 -18 -14 -154 55 -61 15 -17 17 -11 8 -2 10 -3 37 -2 -35 24 -104 69 99 86 85 22 rrcurveto
            119 31 181 -26 118 -33 -75 -61 -82 -83 -56 -66 rrcurveto
            -78 -95 -260 -304 -96 callgsubr
            73 60 126 99 114 141 75 93 107 156 72 66 72 -18 59 -8 31 26 rrcurveto
            -18 8 rmoveto
            -26 -16 -46 7 -57 16 rrcurveto
            39 46 41 26 31 hhcurveto
            36 4 -54 -18 -29 hvcurveto
            -750 -627 rmoveto
            -28 -24 -54 -24 -46 -2 -125 -4 2 129 119 -13 26 -3 35 -13 41 -23 rrcurveto
            10 -7 20 -16 0 vvcurveto
            return
          </CharString>
          <CharString index="12">
            rmoveto
            -35 21 -39 16 -42 11 17 17 18 13 10 7 24 15 -2 13 -32 -13 -30 -11 -23 -14 -22 -17 -118 24 -131 -7 -111 -16 -143 -21 -254 -74 -9 -179 -5 -102 74 -50 79 -3 rrcurveto
            78 -2 87 51 1 91 rrcurveto
            14 -11 2 -3 -15 vhcurveto
            -23 -67 -64 -56 -63 2 -60 2 -49 55 11 70 24 149 208 77 126 23 84 16 131 8 114 -17 -18 -17 -16 -19 -19 -20 -170 -191 -76 -266 -131 -129 -67 -65 -74 -43 -89 4 rrcurveto
            -138 7 40 194 160 -60 17 -7 7 12 -21 8 -226 76 -68 -234 204 -24 107 -13 102 36 85 80 57 55 49 62 44 65 53 -4 89 8 82 20 198 48 254 234 -252 150 rrcurveto
            -23 -21 rmoveto
            157 -105 -149 -216 -217 -66 -63 -19 -64 -10 -51 2 97 149 76 167 102 143 43 -10 39 -15 30 -20 rrcurveto
            return
          </CharString>
          <CharString index="13">
            rmoveto
            13 -9 13 -15 -22 -25 -35 -21 -13 10 -7 12 25 24 24 26 vhcurveto
            return
          </CharString>
          <CharString index="14">
            rmoveto
            2 109 -114 3 -94 -44 -77 -35 -85 -82 -75 -91 -50 -60 -46 -64 -36 -56 -19 -29 -38 -73 52 113 34 75 40 81 9 77 30 246 -255 -15 -165 -90 -115 -63 -111 -101 -48 -115 rrcurveto
            -204 -84 108 -128 127 hhcurveto
            265 130 377 -57 -237 hvcurveto
            -10 -2 -8 -16 20 2 rrcurveto
            23 178 -125 -308 -210 hhcurveto
            -198 34 366 183 295 hvcurveto
            172 107 200 20 -58 -263 -48 -212 -156 -312 -49 -72 -8 -32 74 2 17 36 65 136 103 241 141 171 71 85 77 62 74 35 70 34 64 -1 -12 -70 -16 -103 -184 -337 -35 -104 rrcurveto
            -54 -162 40 -91 136 -6 73 -3 18 73 -69 -32 -115 -53 -34 123 91 199 99 216 127 172 2 119 rrcurveto
            return
          </CharString>
          <CharString index="15">
            9 20 -14 5 -9 -18 rrcurveto
            -79 -40 -48 -97 -87 hhcurveto
            -43 -16 37 40 58 37 69 18 26 hvcurveto
            40 28 43 46 36 hhcurveto
            19 10 -14 -35 -9 hvcurveto
            -5 -18 -15 -20 -11 -13 22 -22 41 42 4 33 rrcurveto
            41 5 -24 28 -50 hhcurveto
            -48 -49 -29 -50 -37 hvcurveto
            -97 -72 -52 -180 158 hhcurveto
            return
          </CharString>
          <CharString index="16">
            rrcurveto
            -39 hlineto
            -26 -3 -27 -20 -9 -15 -15 -26 31 10 11 5 rrcurveto
            9 19 20 7 21 hhcurveto
            -66 -174 -131 -202 -280 -63 -140 -31 -243 53 28 218 11 83 58 61 33 14 rrcurveto
            4 10 9 10 -21 hhcurveto
            -32 -1 -73 -61 -17 -65 -65 -250 224 -131 228 29 258 33 183 239 78 232 rrcurveto
            -4 91 203 -9 45 hhcurveto
            -24 -69 -100 -241 91 -47 35 -18 43 11 35 34 45 44 25 34 52 110 11 24 -15 5 -11 -22 -32 -65 -42 -78 -51 -38 -22 -16 -21 2 -13 14 -44 48 78 209 18 59 rrcurveto
            29 2 42 7 26 18 17 12 -6 7 -19 -7 rrcurveto
            -6 -16 -44 -1 -20 hhcurveto
            return
          </CharString>
          <CharString index="17">
            rmoveto
            7 -146 119 -19 -11 -8 -9 -12 -22 19 -14 18 -9 vhcurveto
            -9 19 109 -60 9 hhcurveto
            5 5 3 6 hvcurveto
            endchar
          </CharString>
          <CharString index="18">
            hstem
            59 162 rmoveto
            -17 -35 -29 -61 -24 -48 -9 -19 -12 -20 -11 -19 -81 -23 -95 -17 -67 -32 -39 -18 -36 -27 -19 -37 rrcurveto
            -56 -30 10 -66 100 hhcurveto
            148 99 153 113 63 hvcurveto
            144 52 26 43 68 139 10 20 21 callgsubr
            -10 -19 -18 -41 -32 -47 -45 -66 -42 -15 -60 -23 22 44 21 44 19 44 80 187 rcurveline
            24 11 0 11 -32 hhcurveto
            -55 -1 4 -5 15 -19 -9 -18 rlinecurve
            -53 -115 rlineto
            -13 -6 9 -3 6 hhcurveto
            -121 -234 rmoveto
            -7 -13 -7 -13 -8 -11 rrcurveto
            -63 -45 -107 -124 -88 hhcurveto
            -85 37 118 44 103 hvcurveto
            57 25 86 20 64 17 rrcurveto
            return
          </CharString>
          <CharString index="19">
            rmoveto
            -26 -36 -31 -34 -29 -33 -41 -43 rcurveline
            -21 -20 -20 -21 -16 -20 -4 -19 rcurveline
            147 3 rlineto
            -12 -23 -50 -91 -4 vvcurveto
            18 -10 41 14 4 4 58 113 rcurveline
            15 hlineto
            31 12 -2 9 -25 4 rrcurveto
            -5 hlineto
            12 22 26 52 3 vvcurveto
            15 25 -58 -12 -15 -17 -19 -38 -7 -12 -12 -25 -121 -3 rcurveline
            14 18 13 12 16 13 70 60 117 98 1 16 -14 9 -53 2 -17 -28 rrcurveto
            return
          </CharString>
          <CharString index="20">
            -41 callgsubr
            172 442 35 36 51 -84 89 -37 102 -11 402 -47 139 375 -381 34 -154 14 -147 -48 -105 -108 rrcurveto
            -10 42 -9 57 11 49 5 22 -20 -5 -4 -13 -20 -58 8 -73 16 -48 -136 -136 -74 -396 251 -106 145 -62 142 37 102 70 85 60 33 60 43 88 rrcurveto
            -153 525 rmoveto
            285 -33 -87 -313 -352 31 -107 10 -87 39 -44 90 97 118 149 75 146 -17 rrcurveto
            return
          </CharString>
          <CharString index="21">
            -3 -3 -1 -2 -4 vvcurveto
            -9 10 -6 9 vhcurveto
            10 24 24 38 hhcurveto
            34 41 -18 -39 -14 -6 -15 -8 -12 hvcurveto
            -28 -18 -47 -8 -31 hhcurveto
            -25 -43 6 19 -18 hvcurveto
            4 -4 -5 7 -6 hhcurveto
            -4 -2 -3 -4 -35 101 -11 25 24 31 3 14 21 hvcurveto
            25 17 27 27 32 vvcurveto
            return
          </CharString>
          <CharString index="22">
            1066 488 rmoveto
            68 116 -102 89 -172 44 2 5 14 13 13 9 24 15 -2 13 -32 -13 -17 -6 -21 -13 -17 -15 -116 25 -139 4 -139 -20 -352 -50 -95 -290 204 -71 88 -31 109 56 15 99 rrcurveto
            1 vlineto
            22 -21 -8 -6 vvcurveto
            5 -29 -68 -117 -118 37 -148 46 91 240 277 59 135 29 137 1 111 -19 -57 -65 rcurveline
            -171 -190 -72 -268 -133 -128 -63 31 -45 29 -37 14 -225 79 -69 -236 204 -25 91 -12 87 25 77 57 62 -28 77 -25 127 -16 180 -22 251 116 -54 183 -22 75 -101 46 -66 21 rrcurveto
            75 3 107 28 43 73 rrcurveto
            -124 193 rmoveto
            184 -86 -167 -181 -124 -2 rrcurveto
            -78 -67 20 -34 hvcurveto
            10 -22 98 -13 78 -38 194 -93 -157 -264 -261 24 -103 10 -78 24 -62 26 38 36 rcurveline
            133 144 134 296 134 184 35 -8 32 -10 27 -13 rrcurveto
            -597 -628 rmoveto
            -53 -40 -62 -24 -73 3 -130 7 17 174 153 -53 59 -21 43 -24 46 -22 rrcurveto
            return
          </CharString>
          <CharString index="23">
            -73 13 -107 -3 -71 -21 -269 -81 142 -226 209 101 65 31 60 59 52 73 rrcurveto
            127 -25 138 -29 97 -86 68 -59 -3 -101 -16 -35 -8 -17 -22 -36 43 23 8 4 9 8 8 15 25 42 -21 118 -95 74 -93 72 -137 53 -98 24 return
          </CharString>
          <CharString index="24">
            1621 816 rmoveto
            17 28 -19 20 -23 -35 -207 -318 -420 -237 -73 6 -18 -8 11 -145 56 -124 rrcurveto
            -105 48 85 -82 110 hhcurveto
            85 104 67 73 36 hvcurveto
            14 28 -19 0 -8 -20 rrcurveto
            -72 -37 -92 -33 -78 hhcurveto
            -78 -59 59 97 -42 hvcurveto
            -50 114 -22 135 12 -5 173 44 334 247 160 266 rrcurveto
            -512 -16 rmoveto
            -32 -10 -38 -58 -7 -12 -87 -8 -120 -2 -109 -24 -409 -92 121 -394 224 82 71 26 51 102 -28 70 -6 14 -14 3 2 -10 12 -64 -28 -98 -67 -25 -186 -67 -26 341 295 82 rrcurveto
            93 26 108 4 89 10 -34 -68 -99 -220 -19 -43 -76 -171 -128 -240 -285 -65 -140 -31 -239 64 28 218 12 90 70 53 18 8 8 4 1 12 -16 -2 -26 -3 -70 -45 -19 -72 rrcurveto
            -65 -250 250 -135 227 34 452 68 29 524 151 272 161 17 -25 107 -75 -22 rrcurveto
            1 -65 rmoveto
            -10 -5 -14 -4 -20 -3 10 12 16 20 13 10 33 27 16 -36 -44 -21 rrcurveto
            return
          </CharString>
          <CharString index="25">
            rmoveto
            9 20 -16 -5 -9 -15 -10 -21 -34 -73 -45 -45 -67 -66 -46 34 -46 70 -70 106 -29 145 -4 26 20 1 29 2 36 5 294 49 115 202 -252 73 -28 8 -31 4 -33 6 rrcurveto
            9 29 -3 19 -40 -44 -108 15 -117 -1 -129 -18 -206 -30 -109 -113 -9 -98 -14 -157 179 -42 94 98 19 20 13 26 4 29 1 11 -11 14 -2 -23 -1 -12 -11 -23 -23 -25 rrcurveto
            -80 -85 -146 43 26 126 16 79 90 90 158 33 125 27 115 4 105 -10 -76 -84 -69 -138 -75 -131 -99 -175 -103 -170 -164 9 -128 6 34 182 148 -57 16 -5 7 10 -17 7 rrcurveto
            -216 74 -64 -220 197 -23 107 -14 103 41 82 88 76 83 43 86 44 88 10 -60 40 -181 85 -89 60 -63 79 0 57 62 40 44 43 95 12 27 rrcurveto
            -137 485 rmoveto
            182 -55 -142 -194 -192 -24 -45 -5 -46 -9 -26 2 53 108 66 93 59 102 33 -6 31 -5 27 -7 rrcurveto
            return
          </CharString>
          <CharString index="26">
            23 4 -16 18 -22 hhcurveto
            -23 -22 -18 -23 -3 hvcurveto
            -11 callsubr
            23 21 18 23 4 hvcurveto
            return
          </CharString>
          <CharString index="27">
            1386 572 rmoveto
            6 25 -10 12 -14 -32 -38 -81 -223 84 -67 35 14 13 23 15 23 -9 22 -25 4 41 -26 8 -45 13 -28 -32 -11 -12 -62 39 -96 47 -110 30 -329 93 -172 -327 166 -94 rrcurveto
            80 -46 126 36 29 97 12 36 -28 -18 -1 -22 1 -28 -109 -95 -101 63 -91 57 127 251 273 -41 98 -14 89 -39 85 -42 -19 -22 -79 -125 -47 -115 -96 17 -106 4 -46 -102 rrcurveto
            -5 -11 9 -14 12 16 rrcurveto
            68 47 133 -15 38 hhcurveto
            -95 -218 -159 -186 -222 10 -146 6 -181 107 35 196 12 68 40 30 25 18 30 21 21 15 -32 -10 -29 -9 -57 -38 -18 -57 rrcurveto
            -218 -71 150 -176 233 hhcurveto
            323 108 251 187 69 hvcurveto
            51 -6 116 2 35 9 31 8 1 14 -34 -2 -41 -2 -86 0 -61 8 28 65 41 120 64 73 19 -8 99 -59 116 -19 68 -10 53 30 6 41 rrcurveto
            return
          </CharString>
          <CharString index="28">
            rmoveto
            -31 -24 -17 -22 -56 hhcurveto
            -29 -19 5 20 -21 hvcurveto
            15 -15 0 24 -10 hhcurveto
            -10 -11 -10 -35 6 hvcurveto
            -37 6 49 -16 34 hhcurveto
            64 51 33 53 24 hvcurveto
            3 10 -16 2 -9 -11 rrcurveto
            return
          </CharString>
          <CharString index="29">
            111 49 56 34 31 77 72 18 -27 -24 -39 -28 -45 -19 -34 -8 -26 return
          </CharString>
          <CharString index="30">
            rmoveto
            -4 8 -10 4 -9 -2 -19 -5 -7 -17 -3 -15 -1 -15 -22 -92 3 -6 1 -4 4 -3 5 1 6 3 61 130 -5 13 rrcurveto
            117 hmoveto
            -4 8 -9 4 -10 -2 -19 -5 -7 -17 -2 -15 -2 -15 -22 -92 3 -6 1 -4 4 -3 5 1 6 3 61 130 -5 13 rrcurveto
            endchar
          </CharString>
          <CharString index="31">
            hstem
            860 646 rmoveto
            74 -65 53 -107 -11 callgsubr
            vhcurveto
            -62 callgsubr
            142 -61 187 191 82 97 rrcurveto
            -59 -45 -25 -197 111 hhcurveto
            56 57 40 46 34 hvcurveto
            37 49 38 71 18 40 11 24 -19 -1 -9 -19 -22 -50 -34 -52 -31 -40 -79 -98 -99 -25 31 169 18 98 57 107 56 63 4 callgsubr
            -53 -98 -106 -130 -103 -87 rrcurveto
            -8 callgsubr
            rrcurveto
            233 21 78 105 73 vvcurveto
            -41 12 rmoveto
            -99 -104 -74 -166 -14 vhcurveto
            -127 -11 -81 5 -78 25 rrcurveto
            134 112 129 123 187 hhcurveto
            73 55 -30 -59 hvcurveto
            return
          </CharString>
          <CharString index="32">
            10 21 21 callgsubr
            -21 -43 -68 -136 -46 3 -13 1 -10 11 8 41 rrcurveto
            13 70 107 188 0 vvcurveto
            -34 12 -103 -63 -48 -43 -27 -23 return
          </CharString>
          <CharString index="33">
            -80 callgsubr
            98 89 61 108 46 103 rrcurveto
            return
          </CharString>
          <CharString index="34">
            -27 -38 rrcurveto
            1 -34 -24 0 -18 hhcurveto
            -21 11 -36 2 10 hvcurveto
            57 6 -31 -41 -30 -38 -24 -11 rlinecurve
            -77 callgsubr
            -58 callsubr
            return
          </CharString>
          <CharString index="35">
            -26 callgsubr
            -47 -88 -64 -131 -63 -138 -3 -4 rcurveline
            -33 -66 rlineto
            -12 -11 -4 -7 -8 hvcurveto
            -14 -10 -9 -26 5 -25 -22 -25 -23 -16 -23 2 -60 callsubr
            -87 callgsubr
            26 25 14 23 22 hvcurveto
            1 -2 1 -3 2 -2 -59 -139 -46 -121 2 -65 1 -40 23 -11 28 -1 108 -5 76 212 -12 140 rrcurveto
            return
          </CharString>
          <CharString index="36">
            rmoveto
            2 101 -106 3 -87 -41 -72 -33 -79 -76 -69 -84 -47 -56 -42 -59 -34 -52 -18 -27 -35 -68 48 105 32 70 37 75 9 71 27 229 -236 -14 -153 -84 -107 -58 -103 -94 -45 -107 rrcurveto
            -189 -78 101 -119 117 hhcurveto
            246 121 350 -53 -220 hvcurveto
            -9 -2 -8 -15 19 2 rrcurveto
            22 165 -116 -286 -195 hhcurveto
            -184 32 339 170 274 hvcurveto
            159 99 186 19 -54 -244 -44 -197 -145 -289 -46 -67 -7 -30 69 2 15 33 61 127 95 223 131 159 66 79 72 57 68 33 65 31 60 0 -12 -65 -14 -96 -171 -313 -33 -96 rrcurveto
            -50 -151 37 -84 127 -6 67 -2 17 67 -64 -29 -107 -50 -31 115 84 184 92 201 118 159 2 111 rrcurveto
            return
          </CharString>
          <CharString index="37">
            986 489 -22 callgsubr
            -11 94 -98 42 -89 39 -123 -20 -114 -63 -487 -266 160 -484 299 127 221 93 32 329 -206 -87 rrcurveto
            -8 -3 -39 -26 52 12 191 43 -105 -287 -137 -51 -278 -104 -97 437 400 234 114 66 137 29 82 -50 48 -29 -4 -85 -41 callsubr
            return
          </CharString>
          <CharString index="38">
            56 -20 -32 -1 -35 -6 -34 -10 rrcurveto
            -98 -327 -19 -360 403 hhcurveto
            165 170 53 78 99 hvcurveto
            88 69 20 75 -73 37 rrcurveto
            return
          </CharString>
          <CharString index="39">
            -6 hlineto
            -18 -16 8 11 -6 hvcurveto
            22 50 5 -6 6 -9 4 -9 rlinecurve
            5 -13 3 -15 1 -17 rrcurveto
            return
          </CharString>
          <CharString index="40">
            21 9 1 14 7 hvcurveto
            57 -78 callsubr
            rrcurveto
            return
          </CharString>
          <CharString index="41">
            19 12 -16 -21 -63 -67 -88 -77 -21 -19 16 18 -7 hvcurveto
            -16 8 2 -10 4 -11 rrcurveto
            -26 10 22 -11 29 hhcurveto
            92 102 80 80 39 -32 17 -33 5 hvcurveto
            return
          </CharString>
          <CharString index="42">
            hhcurveto
            101 52 135 53 25 hvcurveto
            9 20 -15 2 -9 -17 -13 -26 -28 -54 -33 -47 -53 -74 return
          </CharString>
          <CharString index="43">
            vstem
            900 622 rmoveto
            9 callsubr
            4 callsubr
            -146 -52 -91 -148 149 -99 75 -50 134 -36 62 -50 121 -98 -71 -172 -67 callgsubr
            134 188 -204 126 -74 46 -101 35 -61 37 -135 83 70 112 119 43 rrcurveto
            -6 callsubr
            return
          </CharString>
          <CharString index="44">
            363 621 rmoveto
            -87 callgsubr
            71 55 105 84 37 hvcurveto
            7 15 -15 5 -7 -13 -44 callgsubr
            -277 -626 -46 callgsubr
            return
          </CharString>
          <CharString index="45">
            rrcurveto
            -2 -48 -23 -139 121 hhcurveto
            13 14 4 6 14 hvcurveto
            113 -34 60 134 37 83 return
          </CharString>
          <CharString index="46">
            hstem
            242 -6 rmoveto
            -14 callgsubr
            61 56 69 145 -50 callsubr
            33 27 -27 callgsubr
            -53 -55 -77 -136 -47 callsubr
            return
          </CharString>
          <CharString index="47">
            -3 13 rcurveline
            -7 35 -12 24 -13 16 100 225 130 231 63 59 rrcurveto
            return
          </CharString>
          <CharString index="48">
            rmoveto
            -13 -13 -18 -1 -17 hhcurveto
            -10 -9 1 1 -11 hvcurveto
            1 -10 -12 1 -10 hhcurveto
            -13 -13 -2 -5 -12 hvcurveto
            -8 -7 -88 -154 -6 -17 -4 -10 5 -17 16 16 rrcurveto
            26 27 33 9 19 hhcurveto
            20 11 -13 -21 -47 -40 -54 -46 -30 hvcurveto
            -34 -22 -50 -6 -18 12 -14 9 2 -14 9 -7 31 -22 57 9 35 17 rrcurveto
            66 32 63 62 62 vvcurveto
            43 -33 18 -39 -21 -35 -15 -10 -20 vhcurveto
            67 123 rlineto
            -1 15 10 -1 17 hhcurveto
            48 37 4 34 23 hvcurveto
            9 13 -6 6 -10 -10 rrcurveto
            endchar
          </CharString>
          <CharString index="49">
            76 -3 61 109 45 110 8 19 -18 -2 -4 -9 -24 -48 return
          </CharString>
          <CharString index="50">
            rmoveto
            -1 7 -7 3 -53 -10 -17 7 -33 -43 rlinecurve
            -43 -57 -45 -53 -47 -53 -48 -54 -64 -57 -44 -55 -2 -2 -1 -3 -1 -2 rrcurveto
            -8 vlineto
            243 6 rlineto
            -9 -16 -91 -167 -7 vvcurveto
            -4 vlineto
            5 -1 rlineto
            8 51 10 5 5 hvcurveto
            11 11 71 148 12 24 29 1 rcurveline
            7 5 5 11 -6 4 rlineto
            -24 hlineto
            7 12 60 116 5 vvcurveto
            -1 6 -6 3 -18 -1 -30 1 -9 -19 rlinecurve
            -65 -126 -217 -4 32 29 338 296 -2 32 rlinecurve
            endchar
          </CharString>
          <CharString index="51">
            262 569 rmoveto
            -86 -128 -132 -299 -68 -90 -6 -9 6 -11 8 7 20 19 40 72 46 87 -20 -41 -16 -38 -8 -31 -18 -72 42 -59 114 31 84 22 61 95 18 84 13 64 -20 66 -73 11 rrcurveto
            -45 7 1 -30 30 3 63 6 1 -64 -26 -66 -17 -40 -30 -51 -28 -33 -35 -42 -28 -20 -23 5 -68 14 43 141 51 101 67 133 117 163 36 38 -14 -3 -15 6 -13 1 rrcurveto
            -5 hlineto
            -22 1 -21 -15 -24 -35 rrcurveto
            return
          </CharString>
          <CharString index="52">
            5 -3 16 -7 -9 -2 -6 -9 -68 -243 67 -86 28 vhcurveto
            13 13 30 34 9 -7 33 -10 -8 49 -32 -10 return
          </CharString>
          <CharString index="53">
            rmoveto
            39 -30 16 -37 -58 -56 -50 -58 -16 3 -17 7 -16 vhcurveto
            -46 -33 -80 -63 -60 vvcurveto
            -44 39 -23 41 vhcurveto
            hintmask 11010000
            65 70 55 66 24 -4 24 -7 21 hvcurveto
            38 33 55 51 51 vvcurveto
            -31 -3 rmoveto
            -41 -35 -43 -33 -27 vhcurveto
            hintmask 11100000
            -10 23 -10 31 22 vvcurveto
            33 27 31 33 18 10 -11 -18 vhcurveto
            hintmask 11010000
            -111 -213 rmoveto
            -44 -36 -43 -46 -24 -13 15 24 54 52 49 44 32 vhcurveto
            12 -27 11 -33 -27 vvcurveto
            endchar
          </CharString>
          <CharString index="54">
            577 rmoveto
            -7 11 -6 -1 rlineto
            -139 -96 -244 -213 -182 vvcurveto
            -67 42 -40 66 116 139 156 113 44 -24 35 -47 -89 -77 -112 -78 -19 vhcurveto
            2 -6 10 1 4 5 rlineto
            55 21 57 104 67 hhcurveto
            25 9 -17 -23 -84 -94 -170 -94 -36 -19 28 34 94 80 129 55 73 hvcurveto
            39 51 43 47 47 43 21 19 29 19 18 20 2 2 1 4 2 2 rrcurveto
            endchar
          </CharString>
          <CharString index="55">
            13 callgsubr
            -23 hhcurveto
            -22 -22 -18 -23 -4 hvcurveto
            -23 -3 15 -18 23 hhcurveto
            23 21 18 23 4 hvcurveto
            return
          </CharString>
          <CharString index="56">
            -2 -8 -18 rrcurveto
            -53 -23 -54 -118 -88 hhcurveto
            return
          </CharString>
          <CharString index="57">
            68 37 -84 callgsubr
            return
          </CharString>
          <CharString index="58">
            rmoveto
            -59 -7 -78 -69 -51 -68 rrcurveto
            -41 -55 -29 -62 -52 vvcurveto
            -45 30 -28 47 76 93 101 74 31 -19 24 -35 -30 -24 -17 -24 -19 vhcurveto
            -20 -25 -13 -33 -6 -26 -1 -7 9 -6 4 9 10 30 13 27 16 17 rrcurveto
            14 16 43 25 -37 vvcurveto
            -50 -56 -114 -54 -16 -9 14 19 97 55 82 34 44 vhcurveto
            46 59 47 35 23 10 11 1 10 15 -21 -5 rrcurveto
            endchar
          </CharString>
          <CharString index="59">
            rmoveto
            61 -29 60 -69 -115 -151 -178 -113 -44 25 -34 46 88 73 122 72 28 vhcurveto
            -1 5 -11 1 -4 -3 rlineto
            -55 -23 -44 -84 -70 hhcurveto
            -35 -15 24 32 88 97 146 95 42 13 -32 -37 -24 -4 -25 -6 -23 hvcurveto
            -46 -180 -111 -137 -149 -105 -4 -6 rcurveline
            5 -9 rlineto
            6 hlineto
            143 94 226 198 186 vvcurveto
            endchar
          </CharString>
          <CharString index="60">
            -50 -24 -77 callgsubr
            rrcurveto
            return
          </CharString>
          <CharString index="61">
            10 6 9 -1 15 1 rrcurveto
            return
          </CharString>
          <CharString index="62">
            rmoveto
            -213 hlineto
            -13 -30 rlineto
            214 hlineto
            endchar
          </CharString>
          <CharString index="63">
            rmoveto
            2 7 10 22 0 vvcurveto
            80 187 rlineto
            24 11 0 11 -32 hhcurveto
            -55 -1 4 -5 14 -18 -8 -19 rlinecurve
            return
          </CharString>
          <CharString index="64">
            rmoveto
            -2 -8 -9 -3 -5 hhcurveto
            3 -28 -30 0 -28 hhcurveto
            -80 -22 -12 -74 -28 hvcurveto
            -9 -23 25 14 4 10 rrcurveto
            25 10 40 19 29 hhcurveto
            -1 64 13 -2 5 hhcurveto
            -66 -63 -245 -238 -5 -23 25 -11 28 11 13 6 131 173 157 158 23 18 8 7 -5 10 -7 -2 rrcurveto
            endchar
          </CharString>
          <CharString index="65">
            9 20 -14 7 -8 -18 -28 -56 -33 -62 -33 -33 -11 -10 -19 -11 -15 2 -28 2 -2 28 9 33 rrcurveto
            return
          </CharString>
          <CharString index="66">
            -24 -96 -37 -145 -161 -256 22 -135 21 -128 141 1 133 171 rrcurveto
            -93 callgsubr
            return
          </CharString>
          <CharString index="67">
            rmoveto
            13 -2 -7 7 -14 hhcurveto
            -18 -13 -13 -19 2 hvcurveto
            8 -166 rlineto
            10 hlineto
            7 30 33 119 -6 29 rrcurveto
            -109 1 rmoveto
            13 -2 -8 6 -12 hhcurveto
            -17 -14 -16 -17 1 hvcurveto
            9 -165 rlineto
            10 hlineto
            8 31 31 118 -6 30 rrcurveto
            endchar
          </CharString>
          <CharString index="68">
            hhcurveto
            -29 15 -50 2 14 hvcurveto
            return
          </CharString>
          <CharString index="69">
            rmoveto
            -55 callsubr
            return
          </CharString>
          <CharString index="70">
            -84 callgsubr
            24 19 -27 callgsubr
            return
          </CharString>
          <CharString index="71">
            -62 callsubr
            5 10 -15 6 -5 -10 -21 -41 -31 -62 -23 -28 -25 -30 -31 -21 -34 5 -7 1 rcurveline
            39 26 30 46 2 39 2 44 return
          </CharString>
          <CharString index="72">
            -1 -2 rrcurveto
            hintmask 10000000
            -53 -23 -95 -121 -88 hhcurveto
            -66 17 101 36 15 hvcurveto
            hintmask 01000000
            27 65 21 23 31 hvcurveto
            64 49 29 68 -38 29 -44 33 -76 -38 -51 -60 -44 -52 -34 -75 1 -60 rrcurveto
            -63 1 45 -33 50 hhcurveto
            return
          </CharString>
          <CharString index="73">
            21 -9 83 -36 148 -19 rrcurveto
            63 -8 50 22 38 vvcurveto
            return
          </CharString>
          <CharString index="74">
            -93 -30 48 -24 35 hhcurveto
            return
          </CharString>
          <CharString index="75">
            -12 callsubr
            -40 callgsubr
            return
          </CharString>
          <CharString index="76">
            rmoveto
            57 -74 19 -45 -13 -13 -1 -2 -13 vhcurveto
            -1 6 39 24 6 5 return
          </CharString>
          <CharString index="77">
            14 5 -1 11 -13 -4 -44 -14 -65 -37 -10 -66 rrcurveto
            -26 -4 8 -28 29 hhcurveto
            23 24 18 23 7 hvcurveto
            23 8 -13 18 -23 hhcurveto
            -10 -10 -3 -6 -9 hvcurveto
            12 44 39 30 38 12 rrcurveto
            return
          </CharString>
          <CharString index="78">
            117 182 179 278 24 258 130 222 rrcurveto
            9 22 8 12 hhcurveto
            39 12 41 15 1 41 rrcurveto
            -48 -3 rmoveto
            11 20 -33 -15 -89 hvcurveto
            17 18 30 35 11 -5 rrcurveto
            return
          </CharString>
          <CharString index="79">
            rmoveto
            -2 -13 6 -14 9 -10 19 -22 27 -5 29 3 -59 -113 return
          </CharString>
          <CharString index="80">
            -1 7 -7 3 -11 1 -180 -116 -22 -13 rlinecurve
            12 -50 7 -58 19 -47 rrcurveto
            -2 2 3 -1 3 hhcurveto
            7 3 5 10 1 136 28 21 116 76 18 30 rlinecurve
            endchar
          </CharString>
          <CharString index="81">
            54 211 27 hstem
            147 258 vstem
            388 211 -25 callgsubr
            3 -116 -62 1 -42 -39 callsubr
            7 60 72 10 92 hhcurveto
            endchar
          </CharString>
          <CharString index="82">
            17 152 143 127 161 5 160 4 115 -120 -17 -152 -18 -151 -143 -127 -160 -4 -161 -5 -114 120 17 151 rrcurveto
            return
          </CharString>
          <CharString index="83">
            rmoveto
            -97 callsubr
            129 0 callsubr
          </CharString>
          <CharString index="84">
            43 111 80 37 hvcurveto
            return
          </CharString>
          <CharString index="85">
            rmoveto
            -29 85 rlineto
            4 -30 -4 0 vhcurveto
            -119 -85 -7 -5 19 -2 8 7 rlinecurve
            10 5 95 52 0 vvcurveto
            37 -57 3 -6 16 -1 -3 7 rlinecurve
            return
          </CharString>
          <CharString index="86">
            rmoveto
            -3 7 -8 3 -8 -2 -15 -4 -6 -14 -3 -12 rrcurveto
            -13 -19 -76 3 -5 vhcurveto
            1 -3 3 -3 4 1 5 3 51 107 -5 11 rrcurveto
            return
          </CharString>
          <CharString index="87">
            23 4 -15 18 -23 hhcurveto
            -23 -21 -18 -23 -4 hvcurveto
            return
          </CharString>
          <CharString index="88">
            14 -21 24 -21 24 -21 hstemhm
            return
          </CharString>
          <CharString index="89">
            -53 -98 -106 -130 -103 -87 -8 callgsubr
            return
          </CharString>
          <CharString index="90">
            rmoveto
            292 -42 -89 -401 -361 40 -109 12 -89 51 -45 115 99 151 153 96 149 -22 rrcurveto
            endchar
          </CharString>
          <CharString index="91">
            1 -10 callgsubr
            return
          </CharString>
          <CharString index="92">
            rmoveto
            12 20 -35 -13 -85 hvcurveto
            14 18 29 35 10 -5 rrcurveto
            endchar
          </CharString>
          <CharString index="93">
            52 -108 92 -47 104 -15 412 -60 142 481 -390 44 -158 18 -150 -62 -108 -139 return
          </CharString>
          <CharString index="94">
            rmoveto
            -43 callgsubr
          </CharString>
          <CharString index="95">
            169 101 134 188 -204 126 -74 46 -101 35 -61 37 -135 83 70 112 119 43 return
          </CharString>
          <CharString index="96">
            -23 -4 15 -18 23 hhcurveto
            return
          </CharString>
          <CharString index="97">
            146 hstem
            return
          </CharString>
          <CharString index="98">
            rrcurveto
            -7 -28 -6 -16 -7 vvcurveto
            -2 vlineto
            -6 6 -2 7 4 3 3 3 2 vhcurveto
            6 31 5 14 2 9 return
          </CharString>
          <CharString index="99">
            -3 11 -13 17 hhcurveto
            7 7 3 4 6 hvcurveto
            -4 -32 -24 -22 -27 -8 -9 -3 2 -9 8 4 rrcurveto
            return
          </CharString>
          <CharString index="100">
            187 rmoveto
            10 return
          </CharString>
          <CharString index="101">
            -40 callgsubr
            rrcurveto
            return
          </CharString>
          <CharString index="102">
            127 61 30 hvcurveto
            return
          </CharString>
          <CharString index="103">
            17 rrcurveto
            endchar
          </CharString>
          <CharString index="104">
            1523 750 rmoveto
            37 19 -45 -6 -39 -14 return
          </CharString>
          <CharString index="105">
            rmoveto
            5 10 return
          </CharString>
          <CharString index="106">
            -4 16 -19 11 callgsubr
            -29 -37 -13 -12 -4 2 return
          </CharString>
          <CharString index="107">
            hmoveto
            -97 callsubr
            endchar
          </CharString>
          <CharString index="108">
            23 46 26 43 28 41 21 30 21 14 18 4 -14 47 -66 -19 -48 -81 rrcurveto
            return
          </CharString>
          <CharString index="109">
            14 4 11 1 11 3 85 16 rcurveline
            13 2 6 2 5 vvcurveto
            return
          </CharString>
          <CharString index="110">
            -15 40 -22 58 44 vvcurveto
            55 47 55 57 35 20 -21 -35 vhcurveto
            return
          </CharString>
          <CharString index="111">
            -72 36 -149 -6 -100 -35 return
          </CharString>
          <CharString index="112">
            -14 -3 -15 6 -13 1 -32 2 -13 -17 -26 -48 -49 -90 return
          </CharString>
          <CharString index="113">
            hhcurveto
            -367 53 359 62 218 hvcurveto
            132 38 return
          </CharString>
          <CharString index="114">
            hhcurveto
            177 176 57 83 99 hvcurveto
            88 74 15 80 return
          </CharString>
          <CharString index="115">
            15 8 12 12 7 20 3 9 -11 0 -5 -6 return
          </CharString>
          <CharString index="116">
            62 51 -24 82 -71 35 return
          </CharString>
          <CharString index="117">
            41 8 hvcurveto
            13 return
          </CharString>
          <CharString index="118">
            -2 -1 -1 -2 -1 vvcurveto
            -4 vlineto
            -3 -1 -2 return
          </CharString>
          <CharString index="119">
            17 134 18 hstem
            return
          </CharString>
          <CharString index="120">
            66 63 66 vstem
            return
          </CharString>
          <CharString index="121">
            1 -6 callgsubr
            return
          </CharString>
          <CharString index="122">
            -1 -1 0 0 -1 -1 -6 callgsubr
            hhcurveto
            return
          </CharString>
          <CharString index="123">
            -21 381 -20 hstem
            27 56 vstem
            328 return
          </CharString>
          <CharString index="124">
            -21 hstem
            17 53 135 58 vstem
            275 return
          </CharString>
          <CharString index="125">
            -27 callgsubr
            -22 -23 return
          </CharString>
          <CharString index="126">
            hintmask 111000001000001000100000
            return
          </CharString>
          <CharString index="127">
            0 1 1 hvcurveto
            return
          </CharString>
          <CharString index="128">
            1 -20 callgsubr
            return
          </CharString>
        <CharString name=".notdef">
          648 endchar
        </CharString>
        <CharString name="A">
          773 -20 -76 callsubr
          endchar
        </CharString>
        <CharString name="AE">
          1021 -114 24 43 30 459 23 282 26 5 26 hstem
          18 52 619 79 549 34 vstem
          1297 219 rmoveto
          -36 18 -25 -19 51 -12 60 -14 -33 -75 -73 -62 rrcurveto
          -71 -86 -164 -74 -164 6 callsubr
          136 -47 10 42 9 69 -218 -38 -29 118 rrcurveto
          64 41 25 51 41 vvcurveto
          15 -3 13 -5 13 vhcurveto
          81 63 124 37 106 -11 197 -19 -102 -192 -97 -10 -48 -5 -8 -28 60 14 212 48 39 190 -251 28 -96 11 -137 -30 -102 -60 rrcurveto
          31 -29 -49 19 -64 hhcurveto
          -11 callgsubr
          hvcurveto
          -62 callgsubr
          139 -60 182 182 84 99 rrcurveto
          -141 -51 104 -159 277 7 callsubr
          -83 39 rrcurveto
          -468 175 rmoveto
          -34 -2 -37 -6 -35 -11 -24 -7 -22 -8 -20 -10 5 8 rcurveline
          4 callgsubr
          -18 callsubr
          62 6 52 12 41 15 26 -40 54 -31 45 -15 rrcurveto
          -26 312 rmoveto
          -67 -46 -46 -61 -1 -71 rrcurveto
          -9 2 -8 2 -8 vhcurveto
          -40 -16 -49 -12 -55 -4 -127 -11 -81 5 -78 25 rrcurveto
          134 112 129 123 187 hhcurveto
          50 41 -14 -27 21 hvcurveto
          16 -49 rmoveto
          -41 -18 -36 -33 -30 vhcurveto
          1 4 2 38 20 34 28 31 rlinecurve
          endchar
        </CharString>
        <CharString name="Aacute">
          815 20 hstem
          856 822 rmoveto
          4 9 -3 11 -9 4 -18 9 -20 -9 -14 -10 -14 -12 -92 -62 -4 -7 -2 -4 0 -5 5 -3 6 -3 154 67 7 15 rrcurveto
          -39 -232 -107 callsubr
          endchar
        </CharString>
        <CharString name="Abreve">
          830 44 hstem
          639 271 vstem
          846 839 -79 callsubr
          -29 -249 -107 callsubr
          endchar
        </CharString>
        <CharString name="Acircumflex">
          785 741 -100 callgsubr
          32 -151 -107 callsubr
          endchar
        </CharString>
        <CharString name="Adieresis">
          803 66 hstem
          640 13 callsubr
          837 817 rmoveto
          -97 callsubr
          -129 hmoveto
          -97 callsubr
          109 -227 -107 callsubr
          endchar
        </CharString>
        <CharString name="Agrave">
          850 -20 hstem
          817 590 -107 callsubr
          -28 133 rmoveto
          6 -137 110 -18 -10 -8 -9 -11 -20 18 -13 17 -8 vhcurveto
          -8 18 102 -56 9 hhcurveto
          5 4 3 6 hvcurveto
          endchar
        </CharString>
        <CharString name="Amacron">
          826 49 -76 callsubr
          45 192 -45 callsubr
        </CharString>
        <CharString name="Aogonek">
          -171 28 hstem
          576 32 vstem
          650 -26 rmoveto
          7 vlineto
          15 13 13 13 11 15 37 49 38 71 18 40 11 24 -19 -1 -9 -19 -22 -50 -34 -52 -31 -40 -79 -98 -99 -25 31 169 18 98 57 107 56 63 4 callgsubr
          rrcurveto
          -18 callsubr
          rrcurveto
          233 21 78 105 73 vvcurveto
          74 -65 53 -107 -11 callgsubr
          vhcurveto
          -62 callgsubr
          142 -61 187 191 82 97 rrcurveto
          -59 -45 -25 -197 111 hhcurveto
          14 15 3 5 14 hvcurveto
          -49 -43 -54 -65 -1 -43 -78 callgsubr
          46 64 75 53 42 rrcurveto
          169 684 rmoveto
          -99 -104 -74 -166 -14 vhcurveto
          -127 -11 -81 5 -78 25 rrcurveto
          134 112 129 123 187 hhcurveto
          73 55 -30 -59 hvcurveto
          endchar
        </CharString>
        <CharString name="Aring">
          703 17 27 15 51 18 26 18 hstemhm
          706 17 -3 17 78 19 hintmask 11111010
          755 795 rmoveto
          2 21 15 16 17 1 17 1 13 -16 -2 -21 rrcurveto
          -21 -2 -14 -18 -18 hhcurveto
          -17 -12 16 21 1 hvcurveto
          hintmask 11110110
          -35 -2 rmoveto
          -4 -29 27 -24 37 1 37 1 32 25 4 30 3 29 -26 24 -37 -1 -36 -2 -34 -24 -3 -30 rrcurveto
          97 -203 -107 callsubr
          endchar
        </CharString>
        <CharString name="Atilde">
          859 44 hstem
          868 845 rmoveto
          2 4 -21 3 -2 -5 -11 -23 -17 -15 -27 3 -40 3 -38 30 -43 3 -46 4 -33 -45 -19 -34 -2 -5 23 -3 2 6 10 19 18 16 24 -2 41 -3 38 -32 42 -4 rrcurveto
          47 -4 34 47 18 37 rrcurveto
          -51 -255 -107 callsubr
          endchar
        </CharString>
        <CharString name="B">
          689 412 -20 hstem
          -85 callsubr
          endchar
        </CharString>
        <CharString name="C">
          358 780 183 -41 callgsubr
          164 405 36 47 -14 callsubr
          rrcurveto
          -10 54 -9 73 11 63 5 28 -21 -6 -4 -17 -20 -74 8 -93 16 -62 -139 -175 -63 -348 251 -106 145 -62 142 37 102 70 85 60 33 60 43 88 rrcurveto
          -150 555 -17 callsubr
        </CharString>
        <CharString name="C.alt">
          379 783 -20 hstem
          691 540 rmoveto
          -69 23 -121 -5 -102 -84 -102 -83 -4 -94 30 -48 34 -54 119 -18 121 64 rrcurveto
          127 68 125 138 139 vvcurveto
          137 -82 60 -146 -224 -194 -160 -184 -95 vhcurveto
          -119 -228 35 -273 221 -74 149 -48 156 50 94 86 63 58 71 110 38 96 8 20 -12 7 -7 -17 -47 -111 -50 -63 -71 -68 -94 -90 -165 -57 -122 49 -177 72 5 260 89 202 rrcurveto
          174 76 152 167 209 hhcurveto
          83 62 -18 -48 30 hvcurveto
          18 -28 7 -41 -6 -43 -17 -122 -85 -105 -107 -68 -205 -130 -168 104 207 183 75 62 119 39 65 -16 9 2 3 5 -9 3 rrcurveto
          endchar
        </CharString>
        <CharString name="Cacute">
          358 839 20 hstem
          780 183 -87 callsubr
          174 116 rmoveto
          4 8 -3 10 -8 4 -17 9 -18 -9 -13 -9 -13 -11 -85 -58 18 callgsubr
          142 62 6 14 rrcurveto
          endchar
        </CharString>
        <CharString name="Ccaron">
          358 605 843 -98 callgsubr
          175 -660 -41 callgsubr
          162 413 35 36 51 -84 89 -37 102 -11 402 -47 139 375 -381 34 -154 14 -147 -48 -105 -108 rrcurveto
          -10 42 -9 57 11 49 5 22 -20 -5 -4 -13 -20 -58 8 -73 16 -48 -136 -136 -64 -367 251 -106 145 -62 142 37 102 70 85 60 33 60 43 88 rrcurveto
          -163 496 rmoveto
          285 -33 -87 -313 -352 31 -107 10 -87 39 -44 90 97 118 149 75 146 -17 rrcurveto
          endchar
        </CharString>
        <CharString name="Ccedilla">
          358 -302 12 callsubr
          452 37 vstem
          490 -209 rmoveto
          57 -74 19 -45 -13 -13 -1 -2 -13 vhcurveto
          -1 6 37 23 7 6 92 -2 84 32 68 46 85 60 33 60 43 88 -54 callgsubr
          164 405 36 47 rrcurveto
          -14 callsubr
          -10 54 -9 73 11 63 5 28 -21 -6 -4 -17 -20 -74 8 -93 16 -62 -139 -175 -63 -348 251 -106 rrcurveto
          42 -18 42 -9 41 -3 -20 -15 -39 -30 -5 -6 rrcurveto
          -86 callsubr
          140 947 -17 callsubr
        </CharString>
        <CharString name="Ccircumflex">
          358 786 752 rmoveto
          -33 96 rlineto
          -1 4 -33 -4 0 vvcurveto
          -127 -85 -7 -6 21 -3 9 9 rlinecurve
          12 6 99 47 0 vvcurveto
          42 -64 3 -7 18 -2 -3 9 rlinecurve
          -6 -569 -87 callsubr
          endchar
        </CharString>
        <CharString name="Cdotaccent">
          358 800 -10 callsubr
          638 132 vstem
          754 824 -94 callsubr
          26 -641 -87 callsubr
          endchar
        </CharString>
        <CharString name="D">
          662 -75 callgsubr
          endchar
        </CharString>
        <CharString name="Dcaron">
          675 1023 217 rmoveto
          19 176 -88 138 -136 84 rrcurveto
          20 12 49 75 27 hhcurveto
          7 6 9 3 -13 hvcurveto
          -28 5 -52 -34 -51 -55 -104 50 -125 22 -123 -17 -412 -55 -6 -268 175 -57 88 -28 109 51 14 92 3 17 -22 0 -1 -9 -2 -32 -61 -103 -118 34 -148 43 84 228 277 55 rrcurveto
          124 24 122 -22 98 -54 -157 -162 -75 -253 -148 -131 -32 16 -82 39 -38 13 -225 72 -69 -218 204 -22 96 -11 81 23 73 55 202 -106 415 -1 31 294 rrcurveto
          -63 -2 rmoveto
          -28 -237 -340 -38 -193 106 13 10 12 11 13 13 110 109 130 220 117 170 113 -82 70 -130 -17 -152 rrcurveto
          -619 -171 rmoveto
          -55 -37 -64 -21 -72 3 -122 6 17 158 145 -46 60 -19 43 -22 48 -22 rrcurveto
          464 800 rmoveto
          36 -98 rlineto
          1 -5 37 5 0 vvcurveto
          149 98 8 6 -23 2 -10 -8 rlinecurve
          -13 -6 -119 -60 0 vvcurveto
          -46 66 -4 6 -20 2 4 -8 rlinecurve
          endchar
        </CharString>
        <CharString name="Dcroat">
          675 1023 239 rmoveto
          19 190 -88 150 -136 90 rrcurveto
          22 12 49 81 27 hhcurveto
          7 6 10 3 -13 hvcurveto
          -28 6 -52 -37 -51 -60 -104 55 -125 23 -123 -18 -412 -60 -6 -290 175 -61 88 -31 109 56 14 99 3 19 -22 0 -1 -10 -2 -35 -61 -111 -118 37 -148 46 84 247 277 59 rrcurveto
          124 26 122 -23 98 -59 -88 -98 -62 -128 -63 -119 rrcurveto
          1 -46 -32 0 -25 -39 callsubr
          82 9 -44 -80 -46 -74 -56 -54 rlinecurve
          -32 17 -82 43 -38 14 -225 78 -69 -236 204 -24 96 -12 81 25 73 59 202 -114 415 -1 31 318 rrcurveto
          -63 -2 rmoveto
          -28 -257 -340 -41 -193 115 13 11 12 11 13 14 45 49 49 69 50 78 rrcurveto
          1 23 25 1 26 hhcurveto
          27 -8 26 1 -23 hvcurveto
          -18 -17 1 -15 hhcurveto
          64 103 66 114 63 98 113 -89 70 -141 -17 -164 rrcurveto
          -619 -185 rmoveto
          -55 -40 -64 -23 -72 3 -122 6 17 172 145 -50 60 -21 43 -24 48 -23 rrcurveto
          endchar
        </CharString>
        <CharString name="Delta">
          228 -10 51 407 -20 hstem
          476 -10 rmoveto
          23 12 25 23 1 30 -2 9 rcurveline
          -169 380 rlineto
          2 -2 -5 2 -4 hhcurveto
          -11 -19 -19 -12 -5 hvcurveto
          -4 -3 -224 -385 -1 -6 rrcurveto
          -11 11 -22 12 vhcurveto
          216 370 rmoveto
          138 -319 rlineto
          -325 hlineto
          endchar
        </CharString>
        <CharString name="E">
          463 -34 -21 hstem
          793 257 -91 callgsubr
          -50 27 157 23 128 208 95 -65 callgsubr
          -293 -103 -59 callgsubr
          endchar
        </CharString>
        <CharString name="Eacute">
          550 848 20 hstem
          891 823 rmoveto
          4 9 -3 10 -9 4 -17 8 -18 -8 -14 -10 -13 -11 -88 -60 18 callgsubr
          146 64 7 14 rrcurveto
          -99 -631 -91 callgsubr
          -50 27 157 23 128 201 85 -65 callgsubr
          -286 -93 -59 callgsubr
          endchar
        </CharString>
        <CharString name="Ecaron">
          524 -99 -21 hstem
          792 192 -91 callgsubr
          -50 27 157 23 128 201 85 -65 callgsubr
          -286 -93 -59 callgsubr
          -131 648 rmoveto
          33 -82 rlineto
          1 -4 33 4 0 vvcurveto
          136 82 7 4 -21 3 -9 -7 rlinecurve
          -12 -6 -108 -49 0 vvcurveto
          -42 55 -3 5 -18 2 3 -7 rlinecurve
          endchar
        </CharString>
        <CharString name="Ecircumflex">
          550 -96 -21 hstem
          792 195 -86 callgsubr
          9 551 rmoveto
          -35 101 rlineto
          -1 5 -37 -5 0 vvcurveto
          -147 -101 -8 -5 23 -3 10 8 rlinecurve
          12 7 118 61 0 vvcurveto
          45 -68 4 -6 20 -2 -4 8 rlinecurve
          endchar
        </CharString>
        <CharString name="Edieresis">
          550 853 66 hstem
          621 13 callsubr
          828 817 rmoveto
          -97 callsubr
          -129 hmoveto
          -97 callsubr
          93 -620 -86 callgsubr
          endchar
        </CharString>
        <CharString name="Edotaccent">
          524 986 -10 callsubr
          371 132 vstem
          795 208 -91 callgsubr
          -50 27 157 23 128 200 78 -65 callgsubr
          -285 -86 -59 callgsubr
          -7 616 -94 callsubr
          endchar
        </CharString>
        <CharString name="Egrave">
          550 -96 -21 967 -20 hstem
          805 743 rmoveto
          6 -123 101 -17 -9 -7 -8 -10 -19 16 -12 16 -7 vhcurveto
          -8 16 92 -50 7 hhcurveto
          5 4 2 5 hvcurveto
          -13 -548 -86 callgsubr
          endchar
        </CharString>
        <CharString name="Emacron">
          524 854 49 hstem
          857 850 rmoveto
          -213 hlineto
          -13 -30 rlineto
          214 hlineto
          -50 -613 -91 callgsubr
          -50 27 157 23 128 200 78 -65 callgsubr
          -285 -86 -59 callgsubr
          endchar
        </CharString>
        <CharString name="Eng">
          687 1149 668 rmoveto
          -12 109 -114 3 -89 -44 -72 -35 -75 -82 -64 -91 -43 -60 -38 -64 -30 -56 -15 -29 -29 -73 38 113 rrcurveto
          25 75 30 81 77 vvcurveto
          246 -253 -15 -154 -90 vhcurveto
          -108 -63 -98 -101 -34 -115 rrcurveto
          -204 -61 125 -128 127 hhcurveto
          265 84 377 -57 -230 hvcurveto
          -10 -2 -6 -16 20 2 rrcurveto
          23 175 -88 -308 -210 hhcurveto
          -199 -9 366 183 273 hvcurveto
          159 107 198 20 -27 -263 -22 -212 -118 -312 -40 -72 -5 -32 74 2 13 36 48 136 74 241 121 171 60 85 70 62 69 35 66 34 60 -1 1 -70 1 -103 -47 -180 -39 -114 rrcurveto
          -115 -336 -88 -233 -220 -59 -111 -28 -194 65 27 179 9 67 44 51 23 11 7 5 7 8 -15 -1 -22 -1 -54 -50 -13 -54 -53 -205 160 -105 197 32 273 46 120 361 89 263 rrcurveto
          57 169 42 158 -7 65 rrcurveto
          endchar
        </CharString>
        <CharString name="Eogonek">
          524 -198 28 hstem
          291 32 vstem
          793 257 -91 callgsubr
          -50 27 157 23 128 208 95 -65 callgsubr
          -293 -103 -15 -172 rrcurveto
          -5 -59 69 -46 56 -20 -32 -1 -35 -6 -34 -10 rrcurveto
          -98 -327 -19 -360 403 hhcurveto
          13 hlineto
          -54 -36 -86 -89 -1 -54 -78 callgsubr
          46 63 74 53 42 152 8 151 50 91 72 88 69 20 75 -73 37 rrcurveto
          endchar
        </CharString>
        <CharString name="Eth">
          675 734 27 hstem
          385 258 vstem
          1023 239 rmoveto
          19 190 -88 150 -136 90 47 68 rcurveline
          3 4 13 14 13 9 24 15 -2 13 -32 -13 -17 -6 -50 -35 -17 -15 -25 -29 rcurveline
          -104 55 -125 23 -123 -18 -412 -60 -6 -290 175 -61 88 -31 109 56 14 99 3 19 -22 0 -1 -10 -2 -35 -61 -111 -118 37 -148 46 84 247 277 59 124 26 122 -23 98 -59 rrcurveto
          -88 -98 -62 -128 -63 -119 rrcurveto
          1 -46 -32 0 -25 -39 callsubr
          82 9 -44 -80 -46 -74 -56 -54 rlinecurve
          -32 17 -82 43 -38 14 -225 78 -69 -236 204 -24 96 -12 81 25 73 59 63 -28 78 -27 130 -16 180 -22 179 110 18 186 rrcurveto
          -368 49 -25 callgsubr
          -18 -17 1 -15 hhcurveto
          64 103 66 114 63 98 113 -89 70 -141 -17 -164 -15 -138 -127 -123 -173 16 -107 10 -77 24 -62 28 13 11 12 11 13 14 45 49 49 69 50 78 rrcurveto
          1 23 25 1 26 hhcurveto
          -314 -236 rmoveto
          -55 -40 -64 -23 -72 3 -122 6 17 172 145 -50 60 -21 43 -24 48 -23 rrcurveto
          endchar
        </CharString>
        <CharString name="Euro">
          309 -28 20 337 18 58 18 306 29 hstem
          92 69 480 32 vstem
          673 622 rmoveto
          88 -65 48 -84 -167 -156 -194 -141 -60 vhcurveto
          -37 hlineto
          -13 -25 rlineto
          39 hlineto
          -8 -19 0 -4 -6 -20 rrcurveto
          -42 hlineto
          -11 -26 rlineto
          47 hlineto
          -11 -44 -7 -45 -45 vvcurveto
          -126 53 -97 138 152 111 88 121 83 vhcurveto
          5 12 0 25 -15 -22 rrcurveto
          -78 -61 -123 -126 -108 hhcurveto
          -125 -41 103 109 42 6 42 10 41 hvcurveto
          221 hlineto
          11 26 rlineto
          -226 hlineto
          6 20 1 4 8 19 rrcurveto
          228 hlineto
          13 25 rlineto
          -229 hlineto
          136 63 139 170 165 hhcurveto
          46 18 -30 -43 hvcurveto
          -76 -60 -88 -2 vvcurveto
          -6 6 -1 5 54 27 96 43 vhcurveto
          endchar
        </CharString>
        <CharString name="F">
          696 -109 -21 hstem
          -80 callsubr
          endchar
        </CharString>
        <CharString name="G">
          347 770 -112 rmoveto
          -60 15 -70 10 -89 1 73 120 49 99 14 111 7 51 -68 40 -58 -136 -28 -67 -182 -106 -132 43 -117 38 -39 165 88 190 64 -43 102 -28 97 2 423 6 68 367 -309 48 rrcurveto
          -161 25 -202 -98 -106 -173 -8 -13 -8 -13 -6 -13 -61 73 -12 96 66 83 16 21 -15 2 -14 -15 -92 -94 19 -116 77 -80 -108 -227 79 -193 125 -43 165 -55 189 139 60 57 -4 -17 rcurveline
          -21 -93 -31 -70 -49 -83 -63 -1 -97 -7 -52 -8 -249 -35 -201 -160 186 -68 112 -41 272 109 128 185 80 1 99 -7 46 -12 38 -9 -1 20 -29 7 rrcurveto
          -162 896 rmoveto
          245 -37 -79 -289 -337 -34 -102 -10 -102 27 -62 47 9 18 11 19 11 18 94 154 176 107 136 -20 rrcurveto
          -123 -897 -15 callgsubr
        </CharString>
        <CharString name="Gbreve">
          374 714 36 hstem
          419 217 vstem
          758 841 rmoveto
          -25 -19 -14 -17 -45 hhcurveto
          -23 -15 4 16 -17 hvcurveto
          12 -12 0 19 -8 hhcurveto
          -8 -9 -8 -28 5 hvcurveto
          -30 5 39 -13 27 hhcurveto
          52 40 27 42 20 hvcurveto
          2 8 -13 2 -7 -9 rrcurveto
          20 -979 -98 callsubr
          endchar
        </CharString>
        <CharString name="Gcircumflex">
          374 749 763 -22 callsubr
          29 -901 rmoveto
          -60 15 -70 10 -89 1 73 120 49 99 14 111 7 51 -68 40 -58 -136 -28 -67 -182 -106 -132 43 -117 38 -10 162 79 178 57 -41 91 -26 86 2 378 6 76 329 -275 45 rrcurveto
          -144 23 -196 -78 -95 -162 -7 -12 -7 -12 -5 -12 -55 68 -10 90 58 77 15 19 -14 2 -12 -14 -82 -87 17 -108 68 -75 -96 -212 41 -190 125 -43 165 -55 189 139 60 57 -4 -17 rcurveline
          -21 -93 -31 -70 -49 -83 -63 -1 -97 -7 -52 -8 -249 -35 -201 -160 186 -68 112 -41 272 109 128 185 80 1 99 -7 46 -12 38 -9 -1 20 -29 7 rrcurveto
          -175 846 rmoveto
          219 -35 -87 -256 -300 -32 -91 -9 -91 25 -56 44 8 17 10 17 10 17 84 144 173 86 121 -18 rrcurveto
          -110 -847 -15 callgsubr
        </CharString>
        <CharString name="Gcommaaccent">
          207 -370 65 hstem
          152 22 vstem
          386 -306 rmoveto
          18 -10 16 -22 -16 -16 -13 -17 -2 vhcurveto
          -16 -8 callsubr
          30 10 45 30 48 vvcurveto
          392 243 -98 callsubr
          endchar
        </CharString>
        <CharString name="Gdotaccent">
          374 657 117 -60 36 hstem
          419 217 -142 105 vstem
          778 -138 -98 callsubr
          173 968 rmoveto
          10 -7 11 -12 -18 -20 -28 -17 -10 8 -6 10 20 19 19 21 vhcurveto
          endchar
        </CharString>
        <CharString name="H">
          1029 -3 callsubr
          -79 -27 -124 -325 -15 -42 rrcurveto
          -70 -135 17 -134 hhcurveto
          17 43 74 209 38 74 -66 callgsubr
          -21 -42 -75 -157 -50 -125 -91 callsubr
          80 233 108 151 19 10 rrcurveto
          -404 21 -15 callsubr
        </CharString>
        <CharString name="Hbar">
          1029 926 49 hstem
          -3 callsubr
          -38 -13 -49 -82 -41 -86 rrcurveto
          -356 hlineto
          20 52 21 49 15 29 -66 callgsubr
          -11 -21 -23 -48 -27 -59 rrcurveto
          -207 hlineto
          -10 -40 rlineto
          198 hlineto
          -23 -51 -23 -55 -20 -50 -91 callsubr
          22 64 24 57 24 51 rrcurveto
          170 hlineto
          9 40 rlineto
          -160 hlineto
          56 109 49 66 13 7 rrcurveto
          -265 -395 rmoveto
          -70 -135 17 -134 hhcurveto
          58 156 rlineto
          352 hlineto
          -36 -80 -29 -75 -6 -18 rrcurveto
          -139 416 -15 callsubr
        </CharString>
        <CharString name="Hcircumflex">
          1029 -3 callsubr
          -79 -27 -124 -325 -15 -42 rrcurveto
          -70 -135 17 -134 hhcurveto
          17 43 74 209 38 74 -66 callgsubr
          -21 -42 -75 -157 -50 -125 -91 callsubr
          80 233 108 151 19 10 rrcurveto
          -120 16 rmoveto
          -27 82 rlineto
          -1 4 -29 -4 0 vvcurveto
          -115 -82 -6 -4 18 -3 8 7 rlinecurve
          10 6 91 49 0 vvcurveto
          36 -55 3 -5 15 -2 -3 7 rlinecurve
          -284 5 -15 callsubr
        </CharString>
        <CharString name="I">
          560 1196 805 -106 callsubr
          endchar
        </CharString>
        <CharString name="Iacute">
          554 704 20 hstem
          1196 707 -106 callsubr
          15 115 -102 callgsubr
        </CharString>
        <CharString name="Icircumflex">
          554 1196 707 -106 callsubr
          90 38 -100 callgsubr
          endchar
        </CharString>
        <CharString name="Idieresis">
          554 760 66 hstem
          972 13 callsubr
          1196 707 -106 callsubr
          119 108 rmoveto
          -97 callsubr
          -129 0 callsubr
        </CharString>
        <CharString name="Idotaccent">
          577 739 -10 callsubr
          1031 132 vstem
          1196 708 -106 callsubr
          -15 120 -94 callsubr
          endchar
        </CharString>
        <CharString name="Igrave">
          554 850 -20 hstem
          1201 676 rmoveto
          -1 27 -26 6 -30 -9 -32 -11 -37 -55 -8 -16 -189 -32 -329 -76 -52 -236 -26 -118 105 -75 106 41 82 31 61 101 -39 75 -8 18 -17 -22 4 -5 16 -15 5 -118 -105 -42 rrcurveto
          -86 -33 -53 66 22 96 48 216 259 63 180 39 -21 -36 -70 -130 -59 -157 -54 -145 -162 -294 -291 -73 -160 -40 -261 74 53 218 21 83 65 63 35 15 10 5 10 10 -21 -1 rrcurveto
          -32 -2 -80 -63 -25 -66 -94 -250 216 -125 282 47 145 24 140 80 110 141 159 204 -7 199 122 224 47 8 74 13 -2 58 rrcurveto
          -48 -4 rmoveto
          12 22 -32 -18 -88 hvcurveto
          15 19 29 35 10 -4 rrcurveto
          78 73 rmoveto
          6 -123 99 -16 -9 -7 -7 -10 -19 16 -11 15 -8 vhcurveto
          -8 16 92 -50 7 hhcurveto
          4 5 3 5 hvcurveto
          endchar
        </CharString>
        <CharString name="Imacron">
          577 754 49 hstem
          1196 707 -106 callsubr
          117 123 -45 callsubr
        </CharString>
        <CharString name="Iogonek">
          577 -413 28 hstem
          318 32 vstem
          1196 707 rmoveto
          -1 27 -26 6 -30 -9 -32 -11 -37 -55 -8 -16 -189 -32 -329 -76 -52 -236 -26 -118 105 -75 106 41 82 31 61 101 -39 75 -8 18 -17 -22 4 -5 16 -15 5 -118 -105 -42 rrcurveto
          -86 -33 -53 66 22 96 48 216 259 63 180 39 -21 -36 -46 -69 -59 -157 -54 -145 -162 -294 -291 -73 -160 -40 -261 74 53 218 21 83 65 63 35 15 10 5 10 10 -21 -1 rrcurveto
          -32 -2 -80 -63 -25 -66 -79 -212 142 -122 217 -3 -53 -42 -66 -74 -1 -48 rrcurveto
          -30 -1 21 -14 25 hhcurveto
          51 40 35 20 4 hvcurveto
          2 9 -9 -3 -3 -2 rrcurveto
          -13 -13 -20 -17 -18 hhcurveto
          -23 -6 15 18 hvcurveto
          1 40 50 63 47 43 31 1 32 3 33 5 289 48 179 252 80 259 21 70 29 95 47 87 rrcurveto
          9 21 9 12 hhcurveto
          38 13 40 16 -1 41 rrcurveto
          -48 -4 rmoveto
          12 22 -32 -18 -88 hvcurveto
          15 19 29 35 10 -4 rrcurveto
          endchar
        </CharString>
        <CharString name="Itilde">
          577 787 44 hstem
          1196 707 -106 callsubr
          135 137 -76 callgsubr
        </CharString>
        <CharString name="J">
          614 1270 774 -45 callgsubr
          -171 -436 -29 callgsubr
          214 104 -29 callsubr
          endchar
        </CharString>
        <CharString name="Jcircumflex">
          646 1266 709 -45 callgsubr
          -157 -400 -29 callgsubr
          200 68 -29 callsubr
          107 35 -100 callgsubr
          endchar
        </CharString>
        <CharString name="K">
          792 -83 callsubr
          endchar
        </CharString>
        <CharString name="Kcommaaccent">
          841 -243 82 hstem
          798 27 vstem
          -83 callsubr
          -288 -948 -99 callgsubr
        </CharString>
        <CharString name="L">
          957 783 -73 callgsubr
        </CharString>
        <CharString name="Lacute">
          394 899 20 hstem
          915 642 rmoveto
          -8 90 -192 75 -154 -382 rrcurveto
          0 -72 -180 -61 callgsubr
          -36 -74 -11 -20 -15 -20 -84 callsubr
          57 105 -20 -37 29 59 rrcurveto
          213 36 215 213 -18 196 rrcurveto
          -41 -21 rmoveto
          1 -180 -176 -177 -2 callgsubr
          45 83 0 vvcurveto
          152 294 116 0 1 -65 rrcurveto
          -504 -590 -57 callgsubr
          647 788 -2 callsubr
          -4 12 -10 4 -19 10 -22 -10 -16 -11 -16 -13 -101 -68 -4 -8 -3 -4 1 -5 5 -3 7 -3 169 73 8 16 rrcurveto
          endchar
        </CharString>
        <CharString name="Lcaron">
          394 981 82 hstem
          1000 27 vstem
          917 811 rmoveto
          19 -8 20 -21 -17 -16 -13 -16 -2 vhcurveto
          -17 -8 callsubr
          31 10 42 26 47 vvcurveto
          -54 -172 rmoveto
          -7 83 -173 69 -140 -353 rrcurveto
          0 -62 -145 -61 callgsubr
          -36 -74 12 19 -38 -59 -84 callsubr
          57 98 -20 -30 29 59 rrcurveto
          213 36 169 176 -16 182 rrcurveto
          -37 -20 rmoveto
          1 -166 -136 -141 -2 callgsubr
          31 50 0 vvcurveto
          138 273 104 0 1 -61 rrcurveto
          -464 -540 -57 callgsubr
          endchar
        </CharString>
        <CharString name="Lcommaaccent">
          394 -169 82 hstem
          383 27 vstem
          957 775 rmoveto
          -8 92 -195 77 -157 -393 rrcurveto
          0 -73 -179 -61 callgsubr
          -36 -74 -31 -60 -38 -59 -84 callsubr
          21 34 rcurveline
          36 64 23 49 29 59 213 36 222 213 -18 202 rrcurveto
          -41 -22 rmoveto
          1 -185 -183 -177 -2 callgsubr
          47 81 0 vvcurveto
          155 303 118 0 1 -67 rrcurveto
          -554 -674 -57 callgsubr
          45 -218 -99 callgsubr
        </CharString>
        <CharString name="Ldotaccent">
          536 204 -20 hstem
          710 245 rmoveto
          -81 callsubr
          247 538 -73 callgsubr
        </CharString>
        <CharString name="Lslash">
          394 220 27 hstem
          652 221 -25 callgsubr
          1 -42 -52 1 -50 hhcurveto
          36 75 213 36 232 222 -28 201 rlinecurve
          -11 78 -194 81 -155 -383 rrcurveto
          0 -73 -187 -61 callgsubr
          -12 -25 -11 -23 -12 -22 rrcurveto
          -72 -65 1 -22 -39 callsubr
          26 3 54 4 59 3 -16 -30 -16 -28 -18 -28 -73 13 -107 -3 -71 -21 -269 -81 142 -226 209 101 65 31 60 59 52 73 127 -25 138 -29 97 -86 68 -59 -3 -101 -16 -35 rrcurveto
          -8 -17 -22 -36 43 23 8 4 9 8 8 15 25 42 -21 118 -95 74 -93 72 -137 53 -98 24 21 34 rcurveline
          34 63 rlineto
          3 62 62 2 42 hhcurveto
          264 541 rmoveto
          1 -185 -183 -185 -2 callgsubr
          47 89 0 vvcurveto
          155 303 118 0 1 -67 rrcurveto
          -554 -682 -57 callgsubr
          endchar
        </CharString>
        <CharString name="M">
          977 -81 callgsubr
          endchar
        </CharString>
        <CharString name="N">
          687 1188 668 -93 callsubr
          endchar
        </CharString>
        <CharString name="Nacute">
          687 834 20 hstem
          1127 614 -71 callsubr
          4 206 -2 callsubr
          -4 11 -9 4 -18 10 -21 -10 -15 -11 -15 -12 -95 -65 -4 -7 -3 -4 1 -5 5 -3 6 -3 160 70 7 15 rrcurveto
          endchar
        </CharString>
        <CharString name="Ncaron">
          687 961 839 -98 callgsubr
          166 -225 -71 callsubr
          endchar
        </CharString>
        <CharString name="Ncommaaccent">
          687 -169 82 hstem
          740 27 vstem
          1188 668 -93 callsubr
          -424 -807 -99 callgsubr
        </CharString>
        <CharString name="Ntilde">
          687 872 44 hstem
          1192 640 -93 callsubr
          -23 205 rmoveto
          2 4 -17 2 -2 -4 -9 -19 -14 -12 -23 2 -33 3 -31 24 -36 3 -38 3 -27 -37 -16 -28 -2 -4 19 -3 2 5 8 16 15 13 20 -2 34 -2 31 -27 35 -3 rrcurveto
          39 -3 28 39 15 30 rrcurveto
          endchar
        </CharString>
        <CharString name="O">
          374 904 547 -106 callgsubr
          endchar
        </CharString>
        <CharString name="OE">
          1141 -114 24 29 25 312 33 223 272 hstem
          50 52 598 59 49 80 549 34 vstem
          1417 219 rmoveto
          -37 18 -25 -19 51 -12 60 -14 -32 -75 -74 -62 rrcurveto
          -71 -86 -163 -74 -165 6 callsubr
          137 -47 10 42 8 71 -231 -42 -18 131 16 23 rcurveline
          15 24 -23 1 -7 -14 -1 -1 rcurveline
          15 135 212 101 167 -17 198 -19 -103 -192 -97 -10 -48 -5 -7 -28 60 14 211 48 39 190 -250 28 -172 20 -303 -111 -1 -183 rrcurveto
          -17 5 -16 10 -15 vhcurveto
          -21 -17 -22 -16 -22 -15 20 494 -767 -85 39 -384 5 -55 29 -42 43 -29 -68 -174 57 -168 114 -37 134 -44 139 71 101 106 rrcurveto
          -107 18 110 -92 211 7 callsubr
          -82 39 rrcurveto
          -719 181 rmoveto
          -163 -88 -220 -32 -118 58 42 94 157 231 125 -39 13 -4 10 10 -15 8 -151 85 -177 -235 -55 -116 -22 19 -14 26 -4 31 -53 357 692 123 -47 -528 rrcurveto
          -6 -35 rmoveto
          -3 -23 -7 -25 -8 -23 -3 -9 -4 -9 -4 -9 -29 -33 -18 -37 -9 -37 -92 -140 -146 -102 -135 66 -97 48 -3 145 48 126 132 -53 213 27 165 88 rrcurveto
          256 29 rmoveto
          -34 -2 -36 -6 -36 -11 -37 -11 -32 -14 -29 -17 6 22 4 21 1 21 30 19 28 22 24 25 28 -32 45 -24 38 -13 rrcurveto
          endchar
        </CharString>
        <CharString name="Oacute">
          432 810 20 hstem
          891 528 -106 callgsubr
          112 472 -102 callgsubr
        </CharString>
        <CharString name="Ocircumflex">
          432 696 760 rmoveto
          -30 88 rlineto
          -1 4 -30 -4 0 vvcurveto
          -123 -88 -7 -5 19 -2 8 7 rlinecurve
          11 6 98 53 0 vvcurveto
          38 -59 3 -5 17 -2 -3 7 rlinecurve
          195 -232 -106 callgsubr
          endchar
        </CharString>
        <CharString name="Odieresis">
          432 816 66 hstem
          496 13 callsubr
          706 817 rmoveto
          -97 callsubr
          -129 hmoveto
          -97 callsubr
          314 -289 -106 callgsubr
          endchar
        </CharString>
        <CharString name="Ograve">
          432 732 738 rmoveto
          6 -131 106 -17 -10 -7 -8 -10 -20 17 -13 16 -8 vhcurveto
          -8 17 98 -54 8 hhcurveto
          5 4 3 6 hvcurveto
          159 -210 -106 callgsubr
          endchar
        </CharString>
        <CharString name="Ohungarumlaut">
          419 817 20 hstem
          635 841 -21 callsubr
          254 -345 -106 callgsubr
          53 504 -21 callsubr
          endchar
        </CharString>
        <CharString name="Omacron">
          419 817 49 hstem
          904 547 -106 callgsubr
          -23 485 -45 callsubr
        </CharString>
        <CharString name="Omega">
          93 15 -21 358 -20 hstem
          354 -14 rmoveto
          26 38 19 32 5 hvcurveto
          -1 5 -4 8 -4 -4 rrcurveto
          -9 -9 -7 -25 -26 hhcurveto
          -29 -17 4 3 -17 hvcurveto
          51 56 55 59 3 85 rrcurveto
          94 3 -77 39 -74 hhcurveto
          -89 -112 -49 -115 -4 hvcurveto
          -2 -62 41 -70 36 -44 rrcurveto
          6 -30 -42 15 -30 hhcurveto
          -16 -31 -4 -24 -1 hvcurveto
          -2 -21 24 -2 5 18 3 4 rcurveline
          1 5 5 0 5 32 29 -11 33 hhcurveto
          10 27 0 18 1 hvcurveto
          6 -61 69 3 92 vhcurveto
          89 3 73 39 71 hhcurveto
          58 60 -26 -75 -2 hvcurveto
          -3 -72 -54 -89 -58 -33 rrcurveto
          -1 -3 -2 -4 -3 vvcurveto
          -10 -1 7 -6 8 9 9 7 10 20 19 -7 19 hhcurveto
          endchar
        </CharString>
        <CharString name="Oslash">
          419 -97 -21 hstem
          177 -118 rmoveto
          42 75 12 -5 212 -69 227 218 62 189 rlinecurve
          12 38 8 35 3 34 63 40 49 52 37 58 15 24 -23 1 -7 -14 -25 -49 -51 -41 -54 -36 5 128 -48 90 -74 55 51 90 rcurveline
          -34 16 -48 -85 -216 123 -372 -122 28 -270 rlinecurve
          5 -55 29 -42 43 -29 -59 -151 35 -146 84 -60 -43 -78 rcurveline
          52 442 rmoveto
          42 94 157 231 125 -39 13 -4 10 10 -15 8 -151 85 -177 -235 -55 -116 -22 19 -14 26 -4 31 -38 257 347 135 181 -141 -219 -390 rcurveline
          -70 -3 -63 9 -47 23 rrcurveto
          495 27 rmoveto
          -3 -23 -7 -25 -8 -23 -69 -196 -196 -199 -175 85 167 295 rcurveline
          97 8 104 30 90 48 rrcurveto
          6 35 rmoveto
          -85 -46 -100 -31 -93 -10 204 360 rcurveline
          54 -57 31 -89 -11 -127 rrcurveto
          -516 -97 rmoveto
          49 -20 61 -9 66 2 -153 -273 rcurveline
          -68 61 2 127 43 112 rrcurveto
          endchar
        </CharString>
        <CharString name="Otilde">
          432 856 44 hstem
          891 528 -106 callgsubr
          -17 500 rmoveto
          2 3 -17 3 -2 -4 -9 -19 -14 -13 -22 3 -33 2 -31 25 -36 2 -38 4 -27 -37 -16 -28 -1 -5 19 -2 1 5 9 16 14 13 20 -2 34 -2 31 -27 35 -3 rrcurveto
          39 -3 28 38 14 31 rrcurveto
          endchar
        </CharString>
        <CharString name="P">
          538 964 705 -95 callsubr
          endchar
        </CharString>
        <CharString name="P_r.001">
          847 1269 183 -36 callgsubr
          -13 7 -9 -17 -21 -43 -62 -125 -41 1 -60 3 102 183 15 31 12 25 16 38 -7 14 -49 -5 -52 -1 -37 2 17 12 32 27 6 28 14 67 -66 25 -9 -56 rrcurveto
          -27 -168 -133 -279 -220 30 -11 2 0 -22 11 -1 148 -15 146 131 61 163 12 32 rcurveline
          56 -1 35 -13 -14 -33 -11 -25 -36 -52 -15 -41 -40 -104 61 -30 34 8 65 16 51 106 29 60 rrcurveto
          -305 522 -95 callsubr
          endchar
        </CharString>
        <CharString name="Q">
          400 529 638 rmoveto
          -197 111 -325 -403 111 -277 66 -167 190 10 131 86 367 242 30 636 -590 -100 -167 -28 -112 -150 74 -151 13 -26 16 10 -5 22 -38 155 67 125 156 21 442 58 97 -514 -352 -266 rrcurveto
          -132 -100 -163 -15 -47 164 -62 223 265 368 157 -48 13 -4 10 10 -15 8 rrcurveto
          136 -1007 rmoveto
          255 -43 224 37 -233 hvcurveto
          -19 3 2 -19 20 -3 191 -31 44 -223 -217 42 rrcurveto
          58 -300 -76 220 -178 hhcurveto
          -45 -35 -44 -27 -2 hvcurveto
          -1 -20 15 -6 2 20 rrcurveto
          29 3 38 18 25 156 46 -278 352 hhcurveto
          endchar
        </CharString>
        <CharString name="R">
          672 -83 callgsubr
          endchar
        </CharString>
        <CharString name="Racute">
          672 840 20 hstem
          1028 149 -82 callsubr
          114 186 rmoveto
          4 9 -3 12 -10 4 -18 10 -21 -10 -14 -11 -15 -12 -96 -65 -4 -7 -2 -4 1 -6 4 -2 7 -3 159 69 8 16 rrcurveto
          endchar
        </CharString>
        <CharString name="Rcaron">
          672 852 843 -98 callgsubr
          176 -694 -82 callsubr
          endchar
        </CharString>
        <CharString name="Rcommaaccent">
          672 -138 82 hstem
          541 27 vstem
          -83 callgsubr
          -383 -818 -99 callgsubr
        </CharString>
        <CharString name="S">
          549 -2 56 -64 callsubr
          endchar
        </CharString>
        <CharString name="Sacute">
          549 859 20 hstem
          881 543 -63 callgsubr
          6 281 rmoveto
          4 8 -4 10 -8 4 -16 8 -18 -8 -13 -10 -13 -10 -84 -57 -3 -7 -3 -3 1 -5 4 -3 6 -2 140 61 7 14 rrcurveto
          endchar
        </CharString>
        <CharString name="Scaron">
          549 -5 52 vstem
          790 844 rmoveto
          33 -96 rlineto
          1 -4 33 4 0 vvcurveto
          135 96 7 5 -21 3 -9 -8 rlinecurve
          -12 -6 -107 -58 0 vvcurveto
          -42 64 -3 6 -18 2 3 -8 rlinecurve
          42 -275 rmoveto
          57 47 -22 76 -66 32 -67 34 -138 -6 -93 -32 -135 -48 -85 -138 139 -92 69 -46 125 -33 57 -47 112 -91 -66 -159 -155 -82 -186 -97 -333 25 2 230 1 59 17 62 34 52 rrcurveto
          16 27 23 23 25 20 30 23 -27 -4 -13 -5 -91 -43 -72 -126 5 -88 15 -262 396 -26 210 125 156 94 125 174 -190 117 -68 43 -94 33 -57 34 -125 77 65 104 110 40 rrcurveto
          299 107 53 -231 -116 -14 -30 -3 1 -22 25 7 26 7 21 11 15 12 rrcurveto
          endchar
        </CharString>
        <CharString name="Scedilla">
          549 -295 12 callsubr
          414 37 vstem
          452 -202 -31 callsubr
          -2 3 rcurveline
          116 -4 124 28 91 54 -32 callsubr
          rrcurveto
          9 callsubr
          4 callsubr
          -146 -52 -91 -148 149 -99 75 -50 134 -36 62 -50 121 -98 -71 -172 -168 -88 -200 -104 -359 26 2 248 1 64 19 67 36 56 rrcurveto
          18 29 24 25 27 21 33 25 -29 -4 -14 -6 -98 -46 -78 -136 5 -95 10 -164 148 -78 166 -10 -18 -13 -46 -35 -5 -6 rrcurveto
          -86 callsubr
          endchar
        </CharString>
        <CharString name="Scircumflex">
          549 47 51 vstem
          863 549 rmoveto
          56 48 -22 78 -64 33 -65 34 -135 -5 -90 -34 -132 -49 -83 -140 135 -94 68 -47 121 -35 56 -47 109 -93 -64 -153 -152 -83 -180 -99 -325 25 2 235 1 60 17 64 33 53 rrcurveto
          16 28 22 23 24 20 30 24 -26 -4 -13 -6 -89 -43 -70 -129 4 -90 16 -268 385 -26 204 128 153 96 121 168 -184 119 -67 44 -92 33 -55 35 -122 79 63 106 108 41 rrcurveto
          291 109 52 -235 -113 -14 -30 -4 1 -22 24 7 26 7 20 11 15 12 rrcurveto
          7 214 -22 callsubr
          endchar
        </CharString>
        <CharString name="Scommaaccent">
          549 -225 82 hstem
          336 27 -64 callsubr
          -540 -817 -99 callgsubr
        </CharString>
        <CharString name="T">
          566 1400 610 -38 callsubr
          rrcurveto
          1 hlineto
          -22 -43 -50 -11 -9 hvcurveto
          -64 18 -142 59 -94 callgsubr
          147 168 8 219 120 191 -34 callsubr
          endchar
        </CharString>
        <CharString name="T_h">
          877 17 -21 24 -21 hstemhm
          hintmask 10000000
          1299 183 rmoveto
          -75 callsubr
          -27 -31 -27 -34 53 109 84 165 80 139 10 -1 10 0 11 1 111 5 151 61 28 123 23 98 -105 20 -71 -29 -82 -34 -74 -109 -55 -100 rrcurveto
          -38 3 -56 28 -39 14 15 19 20 26 19 4 19 4 9 19 -26 -1 -33 -1 -40 -51 -9 -11 -44 15 -162 62 -94 callgsubr
          145 166 13 220 116 190 43 -17 61 -22 30 -3 -106 -201 -111 -223 -76 -157 rrcurveto
          hintmask 01000000
          -46 callsubr
          -67 callsubr
          hintmask 10000000
          -33 callsubr
          35 31 27 35 26 hvcurveto
          29 39 24 50 17 36 rrcurveto
          104 625 rmoveto
          58 35 62 -33 -23 -69 -16 -47 -47 -46 -33 -18 -54 -30 -67 -11 -60 1 75 128 61 63 44 27 rrcurveto
          endchar
        </CharString>
        <CharString name="Tbar">
          736 391 32 hstem
          1044 416 rmoveto
          -104 hlineto
          25 70 28 69 42 67 -34 callsubr
          -55 callsubr
          rrcurveto
          1 hlineto
          -22 -43 -50 -11 -9 hvcurveto
          -64 18 -142 59 -120 10 -375 34 -76 -368 204 -71 94 -32 114 57 13 107 rrcurveto
          13 -10 4 -10 -9 vhcurveto
          -2 vlineto
          4 -28 -72 -124 -123 39 -157 50 115 293 286 -14 107 -5 91 -17 105 -33 -20 -26 -38 -89 -47 -101 rrcurveto
          -119 hlineto
          -16 -20 rlineto
          125 hlineto
          -53 -114 -65 -124 -61 -66 -76 -83 -107 -63 -157 -4 -154 -3 -185 110 36 205 16 95 71 23 16 20 6 42 -99 -41 -30 -93 -135 -427 634 -70 212 241 91 104 37 123 44 125 rrcurveto
          97 hlineto
          endchar
        </CharString>
        <CharString name="Tcaron">
          736 1394 555 -38 callsubr
          -23 -2 -41 -48 -9 -11 -64 18 -142 59 -94 callgsubr
          147 168 8 219 120 191 -34 callsubr
          -340 288 -98 callgsubr
          endchar
        </CharString>
        <CharString name="Tcommaaccent">
          736 -227 82 hstem
          315 27 vstem
          1400 610 -38 callsubr
          -23 -2 -41 -48 -9 -11 -64 18 -142 59 -94 callgsubr
          147 168 8 219 120 191 -34 callsubr
          -1061 -807 -99 callgsubr
        </CharString>
        <CharString name="Thorn">
          -16 850 -20 hstem
          421 750 3 callgsubr
          -51 -231 -7 callgsubr
          75 153 rcurveline
          44 -2 69 7 61 16 154 38 176 188 -221 121 -29 17 -40 14 -44 7 rrcurveto
          98 -55 rmoveto
          138 -84 -94 -174 -167 -53 -41 -13 -54 -6 -41 -1 32 65 rcurveline
          20 28 45 120 7 18 50 136 rcurveline
          35 -8 45 -14 25 -14 rrcurveto
          endchar
        </CharString>
        <CharString name="U">
          590 -107 callgsubr
          endchar
        </CharString>
        <CharString name="Uacute">
          590 670 20 hstem
          -107 callgsubr
          22 277 -102 callgsubr
        </CharString>
        <CharString name="Ubreve">
          590 687 44 hstem
          788 271 vstem
          -107 callgsubr
          47 319 -79 callsubr
          endchar
        </CharString>
        <CharString name="Ucircumflex">
          590 -107 callgsubr
          45 259 -100 callgsubr
          endchar
        </CharString>
        <CharString name="Udieresis">
          590 693 66 hstem
          800 13 callsubr
          -107 callgsubr
          9 237 rmoveto
          -97 callsubr
          -129 0 callsubr
        </CharString>
        <CharString name="Ugrave">
          590 -107 callgsubr
          18 242 -90 callsubr
        </CharString>
        <CharString name="Uhungarumlaut">
          590 688 20 hstem
          -70 callsubr
          -104 346 -77 callsubr
        </CharString>
        <CharString name="Umacron">
          590 630 49 hstem
          -107 callgsubr
          29 179 -45 callsubr
        </CharString>
        <CharString name="Uogonek">
          590 -157 28 hstem
          598 32 vstem
          672 -19 rmoveto
          4 1 2 -1 2 vhcurveto
          34 21 36 34 35 45 -93 callgsubr
          -12 -22 -14 -39 -22 hvcurveto
          -41 -74 -60 -141 -67 -97 -110 -159 -102 -17 -11 104 -15 146 157 228 36 158 25 110 -12 101 -98 42 -89 39 -123 -20 -114 -63 -487 -266 161 -491 299 127 221 93 32 329 -206 -87 rrcurveto
          -8 -3 -39 -26 52 12 191 43 -105 -287 -137 -51 -278 -104 -98 444 400 234 114 66 137 29 82 -50 48 -29 -3 -92 -24 -96 -37 -145 -161 -256 22 -135 12 -77 57 -30 72 26 rrcurveto
          -53 -42 -66 -74 -1 -48 -78 callgsubr
          46 64 75 53 42 rrcurveto
          endchar
        </CharString>
        <CharString name="Uring">
          590 633 17 93 18 hstem
          841 17 92 19 vstem
          -70 callsubr
          -111 301 -56 callgsubr
        </CharString>
        <CharString name="Utilde">
          590 720 44 hstem
          -107 callgsubr
          49 263 -76 callgsubr
        </CharString>
        <CharString name="V">
          623 1032 389 rmoveto
          57 148 -88 69 -49 13 -40 10 1 -30 35 -7 23 -4 16 5 9 -52 20 -122 -89 -162 -107 -125 -34 -40 -281 -298 39 226 16 91 48 157 64 130 77 158 44 204 -146 64 rrcurveto
          -177 78 -340 -151 -108 -247 rrcurveto
          -213 -93 133 -156 138 hhcurveto
          125 166 132 127 76 -55 56 -85 -40 hvcurveto
          -19 -9 -6 -14 30 9 rrcurveto
          67 20 24 -46 -54 vvcurveto
          -110 -119 -121 -112 -113 -104 102 209 76 vhcurveto
          82 223 332 198 162 -100 78 -48 -71 -212 -52 -123 -134 -320 -25 -169 83 -15 129 -23 277 253 96 253 rrcurveto
          endchar
        </CharString>
        <CharString name="W">
          992 -104 callsubr
          endchar
        </CharString>
        <CharString name="Wacute">
          992 663 20 hstem
          -104 callsubr
          -198 527 -102 callgsubr
        </CharString>
        <CharString name="Wcircumflex">
          992 -104 callsubr
          -230 457 -100 callgsubr
          endchar
        </CharString>
        <CharString name="Wdieresis">
          992 695 66 hstem
          915 13 callsubr
          -104 callsubr
          -236 503 rmoveto
          -97 callsubr
          -129 0 callsubr
        </CharString>
        <CharString name="Wgrave">
          992 -104 callsubr
          -253 466 -90 callsubr
        </CharString>
        <CharString name="X">
          455 -199 -21 hstem
          498 61 vstem
          1079 768 rmoveto
          44 45 -27 5 -16 hhcurveto
          -16 -22 -24 -34 -35 hvcurveto
          -95 -94 -155 -92 -199 -140 rrcurveto
          177 -1 5 178 -131 hhcurveto
          -131 -182 -165 -17 -11 hvcurveto
          -21 -30 32 -6 5 4 46 99 291 161 26 -176 12 -82 -1 -85 -1 -96 -219 -156 -223 -189 -158 -219 rrcurveto
          -34 -25 3 -17 17 hhcurveto
          14 23 12 39 24 hvcurveto
          129 202 206 172 210 152 -3 -151 -4 -141 11 -48 38 -176 191 37 146 306 12 25 -21 -3 -8 -17 -84 -194 -155 -113 -46 171 -16 61 -2 142 3 139 235 168 209 132 75 73 rrcurveto
          endchar
        </CharString>
        <CharString name="Y">
          607 -105 callgsubr
          endchar
        </CharString>
        <CharString name="Yacute">
          654 665 20 hstem
          -105 callgsubr
          330 908 -102 callgsubr
        </CharString>
        <CharString name="Ycircumflex">
          654 -105 callgsubr
          291 824 -100 callgsubr
          endchar
        </CharString>
        <CharString name="Ydieresis">
          607 570 66 hstem
          811 13 callsubr
          -105 callgsubr
          254 757 rmoveto
          -97 callsubr
          -129 0 callsubr
        </CharString>
        <CharString name="Ygrave">
          654 -105 callgsubr
          268 864 -90 callsubr
        </CharString>
        <CharString name="Z">
          325 1046 661 -96 callsubr
          endchar
        </CharString>
        <CharString name="Z.stroke">
          325 333 26 hstem
          376 404 vstem
          753 333 rmoveto
          42 -12 25 1 -36 hvcurveto
          -39 -35 1 1 -31 hvcurveto
          74 94 99 143 69 63 72 -18 59 -8 31 26 66 56 -51 64 -83 -29 -31 -11 -39 -24 -41 -32 -111 34 -143 56 -123 -10 -233 -18 -14 -154 55 -61 15 -17 17 -11 8 -2 rrcurveto
          10 -3 37 -2 -35 24 -104 69 99 86 85 22 119 31 181 -26 118 -33 -75 -61 -82 -83 -56 -66 -82 -98 rcurveline
          1 -66 -48 0 -36 hhcurveto
          -46 24 -49 2 22 hvcurveto
          36 2 40 4 43 3 rrcurveto
          -102 -121 -123 -143 -85 callgsubr
          119 94 111 133 rrcurveto
          2 42 45 1 49 hhcurveto
          -475 -291 rmoveto
          -28 -24 -54 -24 -46 -2 -125 -4 2 129 119 -13 26 -3 35 -13 41 -23 rrcurveto
          10 -7 20 -16 0 vvcurveto
          750 627 rmoveto
          -26 -16 -46 7 -57 16 rrcurveto
          39 46 41 26 31 hhcurveto
          36 4 -54 -18 -29 hvcurveto
          endchar
        </CharString>
        <CharString name="Z.stroke_acute">
          592 333 26 436 20 hstemhm
          376 404 hintmask 10100000
          703 280 -103 callgsubr
          hintmask 01000000
          -50 204 rmoveto
          4 9 -3 10 -9 5 -18 9 -19 -9 -14 -11 -14 -11 -91 -62 -3 -7 -3 -3 1 -6 4 -2 7 -3 151 66 7 15 rrcurveto
          endchar
        </CharString>
        <CharString name="Z.stroke_caron">
          692 333 26 hstem
          376 404 vstem
          756 843 -98 callgsubr
          -53 -564 -103 callgsubr
          endchar
        </CharString>
        <CharString name="Z.stroke_dotaccent">
          597 333 26 393 -10 callsubr
          376 404 -14 132 vstem
          883 824 -94 callsubr
          -180 -545 -103 callgsubr
          endchar
        </CharString>
        <CharString name="Zacute">
          325 806 20 hstem
          1048 607 -96 callsubr
          718 830 -102 callgsubr
        </CharString>
        <CharString name="Zcaron">
          325 926 843 -98 callgsubr
          -223 -564 -103 callgsubr
          endchar
        </CharString>
        <CharString name="Zdotaccent">
          325 746 -10 callsubr
          754 132 vstem
          818 821 -94 callsubr
          230 -214 -96 callsubr
          endchar
        </CharString>
        <CharString name="a">
          -2 -105 callsubr
          endchar
        </CharString>
        <CharString name="aacute">
          -2 394 20 hstem
          -105 callsubr
          -10 299 -102 callgsubr
        </CharString>
        <CharString name="abreve">
          -2 435 44 hstem
          233 271 vstem
          -105 callsubr
          18 343 -79 callsubr
          endchar
        </CharString>
        <CharString name="acircumflex">
          -2 -105 callsubr
          -11 226 -100 callgsubr
          endchar
        </CharString>
        <CharString name="acute">
          -85 413 20 hstem
          247 502 -102 callgsubr
        </CharString>
        <CharString name="adieresis">
          -2 426 66 hstem
          215 13 callsubr
          -105 callsubr
          -11 275 rmoveto
          -97 callsubr
          -129 0 callsubr
        </CharString>
        <CharString name="ae">
          84 -1 28 305 25 hstem
          24 45 150 59 183 27 vstem
          509 -7 callsubr
          21 -20 -51 callsubr
          -61 7 90 39 17 hvcurveto
          4 8 rlineto
          27 64 21 23 31 hvcurveto
          64 49 30 68 -39 29 -32 24 -50 -14 -45 -33 -3 4 rcurveline
          -57 62 -115 -37 -60 -71 -151 -181 76 -175 115 110 29 28 27 40 16 26 -7 -61 21 -34 25 -17 rrcurveto
          -12 17 20 -7 22 hhcurveto
          111 -23 callsubr
          -184 119 rmoveto
          -29 -26 -27 -35 -18 -34 -26 -49 -27 -49 -36 -42 -47 -56 -55 -8 10 70 6 38 27 49 8 14 36 59 52 59 45 25 33 18 34 -5 14 -28 rrcurveto
          80 -91 rmoveto
          -35 -29 -49 -14 -20 -1 21 42 rcurveline
          11 17 13 19 13 16 123 149 5 -130 -82 -69 rrcurveto
          endchar
        </CharString>
        <CharString name="afii00208">
          -23 callgsubr
        </CharString>
        <CharString name="agrave">
          -2 532 -20 hstem
          -105 callsubr
          -98 222 -90 callsubr
        </CharString>
        <CharString name="amacron">
          -2 424 49 hstem
          -105 callsubr
          9 278 -45 callsubr
        </CharString>
        <CharString name="ampersand">
          254 -45 13 277 38 54 17 29 17 141 93 42 27 hstem
          11 98 164 53 122 17 38 52 116 26 33 16 vstem
          731 420 rmoveto
          -7 11 -11 -8 7 -11 rrcurveto
          -79 53 -187 -50 -47 hhcurveto
          -177 hlineto
          -203 -52 -144 -94 175 hvcurveto
          12 -6 -1 21 -11 6 -51 27 -20 34 5 31 19 114 273 2 -5 -111 rrcurveto
          -79 -4 -97 -116 -141 hhcurveto
          -233 49 378 35 237 hvcurveto
          -21 21 36 -23 44 hhcurveto
          70 -9 58 5 -58 hvcurveto
          2 -30 -32 -4 -21 hhcurveto
          -31 65 58 90 46 41 67 58 75 25 53 -1 36 -1 39 -14 -8 -45 rrcurveto
          9 -3 -18 9 -12 hhcurveto
          -27 1 -20 16 callgsubr
          34 27 36 38 67 -65 20 -55 1 hvcurveto
          -124 2 -177 -78 -3 -142 rrcurveto
          -31 10 -34 18 -25 vhcurveto
          -38 -358 -41 -402 359 hhcurveto
          221 145 206 90 -109 hvcurveto
          133 -2 141 80 -61 91 rrcurveto
          -314 -37 rmoveto
          -3 36 11 -26 -49 hhcurveto
          -33 -24 11 19 -15 hvcurveto
          24 1 24 0 26 -2 rrcurveto
          endchar
        </CharString>
        <CharString name="aogonek">
          -2 -123 28 hstem
          242 32 vstem
          421 184 -36 callgsubr
          -15 6 -9 -18 -21 -43 -66 -127 -42 2 rrcurveto
          -13 -5 19 10 callsubr
          61 59 105 21 21 -14 -3 -15 6 -13 1 -32 2 -14 -24 -22 -42 -26 -49 -28 -49 -35 -42 -47 -56 -55 -8 10 70 6 38 27 49 8 14 36 59 52 59 45 25 rrcurveto
          37 20 37 -8 11 -37 17 -3 8 17 -14 15 -57 62 -115 -37 -60 -71 -151 -181 76 -175 115 110 29 28 27 40 16 26 -27 -94 35 -31 31 -3 -51 -43 -60 -70 -1 -45 -78 callgsubr
          43 56 69 51 43 47 35 44 86 24 49 rrcurveto
          endchar
        </CharString>
        <CharString name="apostrophe">
          -159 480 -21 198 -20 hstem
          137 638 rmoveto
          13 -2 -8 6 -12 hhcurveto
          -17 -14 -16 -17 1 hvcurveto
          9 -165 rlineto
          10 hlineto
          8 31 31 118 -6 30 rrcurveto
          endchar
        </CharString>
        <CharString name="apple">
          209 292 24 122 24 hstem
          24 253 vstem
          326 43 rmoveto
          -5 7 12 -7 23 hhcurveto
          48 42 68 55 18 hvcurveto
          -36 14 -26 35 -2 40 -2 53 29 32 25 14 -34 55 -60 -4 -12 -5 -9 -4 -23 -7 -17 -5 -13 -3 -12 -2 -15 4 -17 5 -22 8 -10 4 -13 5 -61 1 -36 -67 rrcurveto
          -41 -74 26 -115 51 -61 rrcurveto
          -27 22 19 -20 24 hhcurveto
          23 11 8 5 8 hvcurveto
          17 11 37 1 19 -12 rrcurveto
          -15 415 rmoveto
          -20 -29 -4 -34 5 -12 71 -4 39 84 -24 35 -11 4 -38 -16 -18 -28 rrcurveto
          -148 -131 rmoveto
          1 -16 callsubr
          hhcurveto
          2 2 -1 -1 hvcurveto
          1 -1 0 -2 -1 vvcurveto
          -2 0 -1 -1 -1 vhcurveto
          -2 -2 -1 -2 -1 -1 0 1 vhcurveto
          -1 -1 1 1 hvcurveto
          3 -1 1 hlineto
          -16 callsubr
          hvcurveto
          2 vlineto
          15 callsubr
          -1 22 callgsubr
          vvcurveto
          2 0 1 1 1 vhcurveto
          10 hmoveto
          1 -16 callsubr
          hhcurveto
          2 2 -1 -1 1 hvcurveto
          -8 vlineto
          -2 -1 -2 -1 -2 hhcurveto
          14 callgsubr
          -1 hvcurveto
          -1 0 1 1 -1 hvcurveto
          3 -1 1 hlineto
          -16 callsubr
          hvcurveto
          -16 callsubr
          vvcurveto
          -1 hlineto
          15 callsubr
          1 -1 1 -16 callgsubr
          1 vvcurveto
          150 -36 rmoveto
          -3 -1 -3 hlineto
          -16 callsubr
          vvcurveto
          1 1 1 0 2 hhcurveto
          1 1 0 -1 hvcurveto
          1 1 -1 -1 hvcurveto
          -7 -3 1 vlineto
          0 -4 callgsubr
          vvcurveto
          -2 hlineto
          14 callgsubr
          -1 hvcurveto
          -1 0 1 1 1 1 1 0 hvcurveto
          1 -16 callsubr
          hhcurveto
          2 hlineto
          -45 -60 rmoveto
          -1 1 0 -1 vvcurveto
          1 0 -1 -1 hvcurveto
          -2 -7 vlineto
          -1 1 0 -1 vvcurveto
          3 hlineto
          0 0 1 1 vhcurveto
          2 hlineto
          -1 0 0 -1 -1 vhcurveto
          -1 -1 -4 callgsubr
          hhcurveto
          -2 -1 0 1 -1 hvcurveto
          -1 -10 callgsubr
          2 vvcurveto
          1 0 2 1 1 vhcurveto
          1 -16 callsubr
          hhcurveto
          -97 96 rmoveto
          1 -1 0 0 vhcurveto
          -2 -4 hlineto
          1 0 -1 1 hhcurveto
          0 0 1 1 vhcurveto
          -11 hmoveto
          1 20 callsubr
          1 vlineto
          1 -1 0 0 -1 hhcurveto
          -1 -4 hlineto
          1 -1 rlineto
          -10 callgsubr
          0 hvcurveto
          106 -97 rmoveto
          5 hlineto
          1 -1 0 0 vhcurveto
          1 -4 callgsubr
          vhcurveto
          0 -4 callgsubr
          vvcurveto
          48 61 rmoveto
          -2 -2 2 hlineto
          1 20 callsubr
          1 vlineto
          endchar
        </CharString>
        <CharString name="approxequal">
          22 145 29 8 30 30 29 7 30 hstem
          316 302 rmoveto
          -37 callgsubr
          -96 vmoveto
          -37 callgsubr
          endchar
        </CharString>
        <CharString name="aring">
          -2 334 17 93 18 hstem
          246 17 92 19 vstem
          -105 callsubr
          -141 307 -56 callgsubr
        </CharString>
        <CharString name="asciicircum">
          18 403 -21 134 -20 hstem
          403 391 rmoveto
          -5 8 -41 34 -38 37 -31 43 rlinecurve
          -6 3 -22 -3 -139 -102 -3 -18 rlinecurve
          6 -7 18 3 97 70 21 15 rlinecurve
          -26 19 80 -66 32 hhcurveto
          5 7 2 7 hvcurveto
          endchar
        </CharString>
        <CharString name="asciitilde">
          133 453 44 hstem
          453 494 rmoveto
          2 4 -21 3 -2 -5 -11 -23 -17 -15 -27 3 -40 3 -38 30 -43 3 -46 4 -33 -45 -19 -34 -2 -5 23 -3 2 6 10 19 18 16 24 -2 41 -3 38 -32 42 -4 rrcurveto
          47 -4 34 47 18 37 rrcurveto
          endchar
        </CharString>
        <CharString name="asterisk">
          79 357 33 hstem
          392 389 rmoveto
          -136 hlineto
          85 92 26 28 -13 29 -20 -21 rlinecurve
          -116 -117 -59 115 -17 32 -30 -7 13 -26 rlinecurve
          21 -44 19 -42 17 -39 rrcurveto
          -145 hlineto
          -36 17 -46 1 18 hvcurveto
          132 5 -100 -101 -27 -27 43 -18 13 13 rlinecurve
          109 119 50 -112 17 -33 29 41 -8 16 rlinecurve
          -19 36 -17 34 -17 35 132 5 rcurveline
          1 35 12 31 -28 hhcurveto
          endchar
        </CharString>
        <CharString name="at">
          604 -148 22 165 35 384 31 190 -21 hstem
          76 48 157 57 564 40 vstem
          942 442 rmoveto
          170 -13 -165 67 -151 hhcurveto
          -278 -282 -247 -289 23 hvcurveto
          -207 17 174 -84 184 hhcurveto
          121 110 41 64 96 hvcurveto
          16 7 -15 21 -12 -12 rrcurveto
          -60 -89 -108 -39 -112 hhcurveto
          -159 -160 79 178 -14 hvcurveto
          274 -22 241 253 271 hhcurveto
          140 134 -59 -159 13 hvcurveto
          9 -119 -58 -131 -89 -72 -58 -47 -143 -52 26 127 15 76 75 133 27 26 -18 -3 -19 8 -16 1 -40 3 -18 -31 -28 -54 -32 -61 -35 -62 -45 -53 -59 -69 -70 -11 13 88 rrcurveto
          7 48 34 62 11 18 45 74 65 74 57 31 46 26 48 -10 14 -47 20 -4 10 21 -17 19 -72 79 -145 -47 -75 -90 -190 -227 95 -221 145 139 37 36 34 49 20 33 rrcurveto
          -38 -132 75 -26 42 3 rrcurveto
          49 77 24 29 36 hvcurveto
          100 80 84 129 -11 135 rrcurveto
          endchar
        </CharString>
        <CharString name="atilde">
          -2 480 44 hstem
          -105 callsubr
          26 337 rmoveto
          2 4 -21 3 -2 -5 -11 -23 -17 -15 -27 3 -40 3 -38 30 -43 3 -46 4 -33 -45 -19 -34 -2 -5 23 -3 2 6 10 19 18 16 24 -2 41 -3 38 -32 42 -4 rrcurveto
          47 -4 34 47 18 37 rrcurveto
          endchar
        </CharString>
        <CharString name="b">
          -7 618 -20 hstem
          -56 callsubr
          endchar
        </CharString>
        <CharString name="b.alt">
          -7 46 404 -28 callsubr
          -55 -117 -40 -54 -6 -9 6 -11 8 7 20 19 36 65 46 87 -20 -41 -16 -38 -8 -31 -18 -72 42 -59 114 31 rrcurveto
          84 22 61 95 18 84 13 64 -20 66 -73 11 -45 7 1 -30 30 3 63 6 1 -64 -26 -66 -17 -40 -30 -51 -28 -33 -35 -42 -28 -20 -23 5 -68 14 43 141 51 101 rrcurveto
          11 22 14 26 15 28 159 -38 callgsubr
          -50 callgsubr
        </CharString>
        <CharString name="backslash">
          515 761 29 hstem
          859 -34 rmoveto
          -1 6 -4 4 -4 5 -163 169 -116 177 -138 186 rrcurveto
          139 -104 -126 138 -111 hhcurveto
          -28 -34 -7 -29 -10 hvcurveto
          7 -7 rlineto
          4 14 14 10 14 hhcurveto
          180 420 -747 -54 183 hvcurveto
          endchar
        </CharString>
        <CharString name="bar">
          133 221 43 vstem
          264 -231 rmoveto
          980 -43 -980 vlineto
          endchar
        </CharString>
        <CharString name="braceleft">
          17 -131 22 400 27 hstem
          128 51 vstem
          421 726 rmoveto
          -4 hlineto
          -66 -49 -12 -23 -31 hvcurveto
          -61 -47 -13 -124 -14 -66 -10 -50 -15 -34 -22 -17 -21 -18 -38 -11 -56 -6 rrcurveto
          0 -23 -27 17 29 21 -3 -6 15 vhcurveto
          14 -6 12 -9 9 -11 15 -18 2 -34 -10 -49 -9 -46 -52 -157 44 -48 rrcurveto
          -23 22 44 -12 65 hhcurveto
          5 hlineto
          10 5 23 -1 -12 hvcurveto
          -45 -30 8 18 -15 hvcurveto
          -15 17 -2 34 10 50 10 49 40 134 -27 49 -15 26 -34 18 -54 10 62 11 45 21 26 32 65 79 -17 172 65 57 rrcurveto
          18 20 35 9 48 8 20 23 -23 hhcurveto
          endchar
        </CharString>
        <CharString name="braceright">
          133 277 27 395 23 hstem
          320 51 7 56 vstem
          477 304 rmoveto
          -51 5 -32 11 -13 17 -48 63 144 214 -57 73 rrcurveto
          24 -18 -43 11 -68 hhcurveto
          -5 hlineto
          0 -26 -23 20 48 30 -9 -18 12 vhcurveto
          12 -18 -2 -33 -15 -49 -14 -48 -48 -129 24 -51 14 -27 31 -18 51 -9 -58 -11 -43 -18 -29 -26 -85 -78 5 -181 -73 -58 rrcurveto
          -18 -22 -36 -9 -48 hhcurveto
          -13 -7 -21 -1 12 hvcurveto
          5 hlineto
          65 49 11 23 33 hvcurveto
          106 74 -20 201 85 64 rrcurveto
          24 31 40 11 48 hhcurveto
          0 26 26 -17 1 vhcurveto
          endchar
        </CharString>
        <CharString name="bracketleft">
          233 -17 41 644 50 hstem
          38 59 vstem
          583 682 rmoveto
          36 -67 0 -24 vhcurveto
          -20 hlineto
          -65 -28 -30 -46 -40 hvcurveto
          -110 -128 -191 -318 -168 vvcurveto
          -45 86 0 30 23 101 -3 26 18 -29 4 -13 vhcurveto
          -24 -24 -4 -24 hhcurveto
          -30 -37 5 39 115 239 429 101 51 hvcurveto
          6 11 24 -1 12 25 24 -4 25 hhcurveto
          15 10 -1 19 hvcurveto
          endchar
        </CharString>
        <CharString name="bracketright">
          204 670 46 hstem
          489 59 vstem
          548 670 rmoveto
          43 -28 3 -35 -40 -93 1 -50 -13 vhcurveto
          3 -2 rlineto
          37 37 4 37 hhcurveto
          11 11 0 -4 11 hvcurveto
          2 -10 1 -10 -10 vvcurveto
          -146 -141 -303 -97 -109 vhcurveto
          -79 -89 -141 73 -14 -73 rrcurveto
          -7 15 40 2 20 hhcurveto
          60 78 1 45 45 hvcurveto
          136 137 137 311 193 vvcurveto
          endchar
        </CharString>
        <CharString name="breve">
          -25 435 44 hstem
          58 271 vstem
          264 527 -79 callsubr
          endchar
        </CharString>
        <CharString name="brokenbar">
          133 -210 -21 980 -20 hstem
          428 749 rmoveto
          -52 hlineto
          -90 -422 48 -5 rlineto
          -23 -106 rmoveto
          -47 4 -96 -451 rlineto
          52 hlineto
          endchar
        </CharString>
        <CharString name="bullet">
          414 350 192 hstem
          130 194 vstem
          386 15 rmoveto
          183 149 148 183 183 -149 148 -183 -183 -148 -148 -183 -183 148 -148 183 hvcurveto
          endchar
        </CharString>
        <CharString name="c">
          -92 17 -21 356 -20 hstem
          338 183 rmoveto
          -92 callsubr
          110 40 83 104 49 hvcurveto
          endchar
        </CharString>
        <CharString name="cacute">
          -92 419 20 hstem
          338 183 rmoveto
          -92 callsubr
          110 40 83 104 49 hvcurveto
          91 325 -102 callgsubr
        </CharString>
        <CharString name="caron">
          15 85 614 -98 callgsubr
          endchar
        </CharString>
        <CharString name="ccaron">
          -92 17 -21 hstem
          338 183 rmoveto
          -92 callsubr
          110 40 83 104 49 hvcurveto
          -107 375 -98 callgsubr
          endchar
        </CharString>
        <CharString name="ccedilla">
          -92 -208 12 callsubr
          233 37 vstem
          271 -115 -31 callsubr
          -2 4 rcurveline
          98 7 38 80 47 99 -92 callsubr
          1 hlineto
          -19 -13 -44 -34 -5 -6 rrcurveto
          -86 callsubr
          endchar
        </CharString>
        <CharString name="ccircumflex">
          -92 17 -21 hstem
          338 183 rmoveto
          -92 callsubr
          110 40 83 104 49 hvcurveto
          13 221 -100 callgsubr
          endchar
        </CharString>
        <CharString name="cdotaccent">
          -92 379 -10 callsubr
          219 132 vstem
          338 183 rmoveto
          -92 callsubr
          110 40 83 104 49 hvcurveto
          -17 280 -94 callsubr
          endchar
        </CharString>
        <CharString name="cedilla">
          27 -208 12 callsubr
          288 37 vstem
          326 -115 -31 callsubr
          rrcurveto
          3 -1 -3 5 -4 hhcurveto
          -4 -66 -51 -7 -7 hvcurveto
          -86 callsubr
          endchar
        </CharString>
        <CharString name="cent">
          -36 336 821 rmoveto
          6 16 -16 24 -15 -35 -21 -50 -24 -59 -24 -60 rrcurveto
          -6 hlineto
          -48 1 -54 -39 -31 -36 -63 -75 -60 -195 134 -12 -17 -53 -120 -213 96 -31 16 -5 12 19 -19 4 -66 15 114 232 11 32 56 2 40 31 32 45 6 8 -7 19 -11 -14 rrcurveto
          -38 -31 -39 -36 -41 hhcurveto
          -29 -24 17 49 -2 hvcurveto
          -2 59 25 57 35 48 38 50 55 42 35 -8 11 -3 15 -16 -4 -23 rrcurveto
          8 -3 -18 10 -13 hhcurveto
          -27 1 -19 16 callgsubr
          32 21 29 33 1 hvcurveto
          1 34 -21 31 -32 10 33 82 28 66 8 21 rrcurveto
          endchar
        </CharString>
        <CharString name="circumflex">
          133 385 389 -100 callgsubr
          endchar
        </CharString>
        <CharString name="colon">
          -96 -14 82 142 82 hstem
          254 251 rmoveto
          -81 callsubr
          -110 -224 rmoveto
          -20 callsubr
          -19 callgsubr
          endchar
        </CharString>
        <CharString name="comma">
          -199 -14 82 hstem
          84 27 vstem
          114 20 rmoveto
          26 -15 22 -29 -23 -22 -18 -23 -3 vhcurveto
          -11 callsubr
          10 10 4 6 8 hvcurveto
          -5 -45 -34 -30 -37 -12 -13 -4 3 -12 12 5 rrcurveto
          42 14 62 42 66 vvcurveto
          endchar
        </CharString>
        <CharString name="copyright">
          365 -13 54 101 60 330 60 98 53 hstem
          -10 55 126 68 453 55 vstem
          70 264 rmoveto
          -25 callsubr
          -44 hmoveto
          -24 callgsubr
          400 -53 rmoveto
          -39 -26 -34 -33 -46 hhcurveto
          -37 -14 32 35 50 32 60 15 22 hvcurveto
          35 24 37 40 32 hhcurveto
          16 9 -13 -30 -8 hvcurveto
          -4 -15 -13 -18 -10 -11 19 -19 35 36 4 29 rrcurveto
          35 4 -20 25 -44 hhcurveto
          -41 -42 -26 -43 -32 hvcurveto
          -84 -63 -44 -155 136 hhcurveto
          63 38 32 47 29 hvcurveto
          9 15 -12 11 -12 -18 rrcurveto
          endchar
        </CharString>
        <CharString name="currency">
          319 63 -21 144 -20 264 -20 126 -20 hstem
          169 57 202 56 vstem
          471 365 rmoveto
          183 171 -218 -130 rlineto
          17 -23 -29 7 -28 hhcurveto
          -31 -33 -9 -15 -28 hvcurveto
          -154 124 104 -162 -27 -27 -17 -35 -1 -39 rlinecurve
          -1 -19 4 -19 9 -17 -180 -170 rcurveline
          216 131 rlineto
          -16 25 28 -7 29 hhcurveto
          31 30 8 16 29 hvcurveto
          156 -127 -106 164 23 26 21 34 1 36 rlinecurve
          1 21 -4 20 -10 17 rrcurveto
          -142 27 rmoveto
          52 49 -43 -60 -2 hvcurveto
          -61 -3 -51 -42 -52 hhcurveto
          -51 -48 43 60 3 hvcurveto
          60 2 50 43 51 hhcurveto
          endchar
        </CharString>
        <CharString name="d">
          15 21 -21 hstem
          -82 callgsubr
          endchar
        </CharString>
        <CharString name="d.alt">
          70 21 -21 hstem
          678 680 rmoveto
          107 187 -183 -15 -89 -149 -65 -111 -55 -111 -47 -105 -21 -39 rcurveline
          -72 42 -87 -35 -56 -65 -73 -88 -55 -161 94 -26 69 -18 47 80 30 49 rrcurveto
          -57 -5 31 -58 73 hhcurveto
          95 50 130 56 28 hvcurveto
          10 20 -18 5 -8 -19 rrcurveto
          -67 -29 -59 -100 -58 hhcurveto
          -55 -21 65 75 39 hvcurveto
          72 138 129 99 114 157 68 121 rlinecurve
          -361 -359 rmoveto
          -47 -88 -50 -86 -37 -52 -85 -120 -60 62 66 124 53 98 110 111 50 -49 rrcurveto
          343 373 rmoveto
          -59 -108 -114 -159 -95 -80 45 89 111 215 65 83 73 94 4 -80 -30 -54 rrcurveto
          endchar
        </CharString>
        <CharString name="dagger">
          89 411 29 hstem
          431 363 rmoveto
          -48 callgsubr
          -101 -143 -53 -119 -35 -113 -9 callsubr
          32 88 102 162 102 138 2 callsubr
          endchar
        </CharString>
        <CharString name="daggerdbl">
          89 194 48 52 48 hstem
          -1 262 -153 43 vstem
          270 200 rmoveto
          -77 -10 31 47 32 48 35 45 rlinecurve
          2 callsubr
          -48 callgsubr
          -34 -48 -29 -44 -23 -43 -72 -10 -16 -5 -4 -3 rrcurveto
          -12 -7 -8 -6 -6 vvcurveto
          -1 0 -2 2 -1 vhcurveto
          -2 3 -2 5 2 4 1 1 4 vhcurveto
          4 hlineto
          25 4 24 3 21 4 -39 -74 -26 -68 -20 -66 -9 callsubr
          20 54 45 80 55 86 27 6 29 5 29 5 84 16 rcurveline
          13 2 6 2 1 5 rrcurveto
          2 -2 -6 1 -11 hhcurveto
          -6 hlineto
          -31 -21 -4 -2 -17 hvcurveto
          endchar
        </CharString>
        <CharString name="dcaron">
          303 545 82 hstem
          636 27 vstem
          -82 callgsubr
          346 252 rmoveto
          -74 callgsubr
          endchar
        </CharString>
        <CharString name="dcroat">
          15 475 27 hstem
          311 258 vstem
          552 475 -25 callgsubr
          -26 -24 1 1 -21 hvcurveto
          35 62 29 46 11 10 -15 -2 -15 5 -13 1 -32 3 -17 -10 -19 -45 -32 -69 rcurveline
          1 -34 -27 0 -20 -39 callsubr
          62 7 -20 -40 -22 -44 -23 -44 rlinecurve
          -72 42 -87 -35 -56 -65 -73 -88 -55 -161 94 -26 69 -18 47 80 30 49 -10 -41 8 -30 11 -17 rrcurveto
          -19 13 16 -8 16 hhcurveto
          80 58 130 56 24 hvcurveto
          9 20 -16 4 -8 -18 rrcurveto
          -42 -21 -58 -124 -50 hhcurveto
          -47 31 84 23 10 hvcurveto
          34 81 75 146 62 112 rrcurveto
          2 29 30 1 34 hhcurveto
          -235 -154 rmoveto
          -47 -88 -50 -86 -37 -52 -85 -120 -60 62 66 124 53 98 110 111 50 -49 rrcurveto
          endchar
        </CharString>
        <CharString name="degree">
          -29 645 -21 128 -20 hstem
          227 688 rmoveto
          35 -29 29 -35 -35 -29 -29 -35 -34 24 -30 40 35 29 28 36 vhcurveto
          -19 -1 rmoveto
          -24 -22 -24 -24 -11 -35 7 41 26 21 20 25 26 20 -20 -26 vhcurveto
          endchar
        </CharString>
        <CharString name="dieresis">
          -74 431 66 hstem
          38 13 callsubr
          233 464 rmoveto
          -97 callsubr
          -129 0 callsubr
        </CharString>
        <CharString name="divide">
          49 -14 82 80 21 41 82 hstemhm
          64 347 hintmask 10100000
          295 251 rmoveto
          -81 callsubr
          -43 -224 rmoveto
          -20 callsubr
          -19 callgsubr
          hintmask 01010000
          159 122 rmoveto
          18 vlineto
          -2 1 rlineto
          -344 hlineto
          -1 -1 rlineto
          -18 vlineto
          1 -1 rlineto
          344 hlineto
          endchar
        </CharString>
        <CharString name="dollar">
          97 421 88 hstem
          158 63 56 63 113 23 vstem
          475 487 rmoveto
          37 -20 39 -54 9 vhcurveto
          33 61 -32 -6 -28 -52 rlineto
          -90 -127 -47 -108 -48 31 -43 29 -36 hvcurveto
          -149 -272 -40 8 -39 18 -29 30 rlinecurve
          -9 hlineto
          -4 -4 -13 -14 -1 -6 24 -32 61 -14 38 -7 -35 -61 rcurveline
          34 6 28 53 rlineto
          110 146 66 128 55 -35 51 -32 42 hvcurveto
          117 212 28 -6 29 -14 6 -40 rlinecurve
          8 -3 -17 9 -11 hhcurveto
          -26 -18 -18 -24 -1 hvcurveto
          -25 -1 20 -21 25 hhcurveto
          32 23 31 35 hvcurveto
          -111 69 rmoveto
          -108 -194 rlineto
          -17 28 -19 22 34 vvcurveto
          66 70 45 60 vhcurveto
          5 4 -1 5 hhcurveto
          -88 -382 rmoveto
          -94 -96 -62 -86 vhcurveto
          141 254 rlineto
          21 -28 20 -34 -36 vvcurveto
          endchar
        </CharString>
        <CharString name="dotaccent">
          -80 463 -10 callsubr
          79 132 vstem
          181 547 -94 callsubr
          endchar
        </CharString>
        <CharString name="dotlessi">
          -178 0 21 hstem
          11 48 vstem
          -97 callgsubr
          endchar
        </CharString>
        <CharString name="dotlessj">
          -175 -295 -21 652 -20 -89 callsubr
          endchar
        </CharString>
        <CharString name="e">
          -106 17 -21 hstem
          -101 callsubr
          endchar
        </CharString>
        <CharString name="e.001">
          37 224 198 rmoveto
          64 49 29 68 -38 29 -27 20 -40 -7 -38 -22 -54 -32 -43 -56 -26 -63 -56 -143 62 -109 125 -4 80 -2 73 42 40 68 25 42 4 84 -64 12 rrcurveto
          -9 -4 -9 -3 8 hvcurveto
          11 -4 47 -21 -24 -78 -27 -33 rlinecurve
          -21 -28 -21 -20 -25 -13 -66 -34 -98 7 -26 86 -11 33 7 50 13 39 36 2 66 30 28 20 rrcurveto
          -10 17 rmoveto
          -30 -36 -52 -14 -18 hhcurveto
          9 18 25 44 26 32 123 149 5 -130 -82 -69 rrcurveto
          endchar
        </CharString>
        <CharString name="e_m">
          440 16 -21 22 -21 25 -21 hstemhm
          hintmask 01000000
          863 184 -36 callgsubr
          -16 7 -8 -18 rrcurveto
          -46 -21 -64 -127 -52 hhcurveto
          -13 -11 9 41 7 hvcurveto
          14 70 106 188 0 vvcurveto
          -33 12 -104 -63 -48 -43 -30 -27 -33 -38 -20 -25 24 49 31 49 18 42 9 20 -6 17 -18 7 -34 12 -64 -63 -48 -43 rrcurveto
          hintmask 00100000
          -31 -27 -32 -38 -20 -25 36 72 55 100 30 16 -14 -3 -15 6 -13 1 -32 2 -13 -17 -26 -48 rrcurveto
          hintmask 01000000
          -14 -25 -13 -25 -12 -25 -2 -2 -1 -3 -35 callsubr
          66 56 40 49 43 hvcurveto
          -14 -30 -15 -30 -15 -30 10 6 9 -1 14 1 rrcurveto
          -34 callgsubr
          -29 -5 14 -26 23 hhcurveto
          13 60 85 112 43 40 77 72 18 -27 -24 -39 -28 -45 -19 -34 -8 -26 rrcurveto
          -93 -30 48 -24 36 hhcurveto
          35 32 27 36 27 hvcurveto
          31 41 24 51 16 33 rrcurveto
          -649 31 rmoveto
          -30 -36 -52 -14 -18 hhcurveto
          9 18 25 44 26 32 123 149 5 -130 -82 -69 rrcurveto
          endchar
        </CharString>
        <CharString name="e_n">
          268 -19 callsubr
          hintmask 01000000
          691 -92 callgsubr
          rrcurveto
          hintmask 10000000
          -14 -25 -13 -25 -12 -26 rrcurveto
          hintmask 00100000
          -2 -2 -1 -2 -35 callsubr
          65 56 39 48 42 hvcurveto
          -14 -30 -15 -30 -15 -30 -46 callsubr
          21 9 1 14 8 hvcurveto
          56 -78 callsubr
          rrcurveto
          -33 callsubr
          36 31 28 35 27 hvcurveto
          31 41 24 51 16 33 rrcurveto
          -477 31 rmoveto
          hintmask 00100000
          -30 -36 -52 -14 -18 hhcurveto
          9 18 25 44 26 32 123 149 5 -130 -82 -69 rrcurveto
          endchar
        </CharString>
        <CharString name="eacute">
          -106 394 20 hstem
          -101 callsubr
          180 268 -102 callgsubr
        </CharString>
        <CharString name="ecaron">
          -106 17 -21 hstem
          -101 callsubr
          -2 322 -98 callgsubr
          endchar
        </CharString>
        <CharString name="ecircumflex">
          -106 17 -21 hstem
          -101 callsubr
          152 195 -100 callgsubr
          endchar
        </CharString>
        <CharString name="edieresis">
          -106 407 66 hstem
          161 13 callsubr
          -101 callsubr
          142 225 rmoveto
          -97 callsubr
          -129 0 callsubr
        </CharString>
        <CharString name="edotaccent">
          -106 402 -10 callsubr
          216 132 vstem
          -101 callsubr
          104 271 -94 callsubr
          endchar
        </CharString>
        <CharString name="egrave">
          -106 17 -21 527 -20 hstem
          -101 callsubr
          73 182 -90 callsubr
        </CharString>
        <CharString name="eight">
          68 -11 21 567 -20 hstem
          14 46 205 64 96 36 vstem
          -17 callgsubr
          96 105 83 100 44 -1 28 -18 40 vhcurveto
          2 callgsubr
          3 callsubr
          -13 callgsubr
        </CharString>
        <CharString name="eight.inferior">
          -79 14 5 callgsubr
          318 -54 callsubr
        </CharString>
        <CharString name="eight.onum">
          68 10 -21 588 -20 hstemhm
          201 65 -1 64 hintmask 11100000
          -17 callgsubr
          vhcurveto
          hintmask 11010000
          96 105 83 100 44 -1 28 -18 40 hvcurveto
          2 callgsubr
          hintmask 11100000
          3 callsubr
          hintmask 11010000
          -13 callgsubr
        </CharString>
        <CharString name="eight.superior">
          -79 264 5 callgsubr
          568 -54 callsubr
        </CharString>
        <CharString name="ellipsis">
          185 -14 82 hstem
          504 27 rmoveto
          -81 callsubr
          -206 hmoveto
          -81 callsubr
          -194 hmoveto
          -81 callsubr
          endchar
        </CharString>
        <CharString name="emacron">
          -106 440 49 hstem
          -101 callsubr
          155 263 -45 callsubr
        </CharString>
        <CharString name="emdash">
          -23 callgsubr
        </CharString>
        <CharString name="endash">
          182 211 27 hstem
          512 211 -25 callgsubr
          3 -116 -186 1 -42 -39 callsubr
          7 60 196 10 92 hhcurveto
          endchar
        </CharString>
        <CharString name="eng">
          -17 -295 -21 333 -21 24 -21 hstemhm
          hintmask 10100000
          406 -92 callgsubr
          -49 -90 -41 -95 -48 -95 -46 callsubr
          21 9 1 14 8 hvcurveto
          56 -78 callsubr
          -5 -14 -2 -13 -2 -11 -28 -57 rcurveline
          -9 -19 -12 -20 -11 -19 -81 -23 -95 -17 -67 -32 -39 -18 -36 -27 -19 -37 rrcurveto
          -56 -30 10 -66 100 hhcurveto
          113 84 89 92 62 hvcurveto
          30 54 26 47 23 43 rrcurveto
          hintmask 11000000
          -9 12 15 -4 14 hhcurveto
          77 58 -5 callsubr
          -306 -256 rmoveto
          -7 -13 -7 -13 -8 -11 rrcurveto
          -63 -45 -107 -124 -88 hhcurveto
          -85 37 118 44 103 hvcurveto
          57 25 86 20 64 -4 callsubr
        </CharString>
        <CharString name="eogonek">
          -106 -120 28 hstem
          137 32 vstem
          318 -7 callsubr
          21 -20 -51 callsubr
          -66 17 101 36 15 hvcurveto
          27 65 21 23 31 hvcurveto
          64 49 29 68 -38 29 -44 33 -76 -38 -51 -60 -44 -52 -34 -75 1 -60 rrcurveto
          -63 1 45 -33 50 hhcurveto
          8 8 1 1 7 hvcurveto
          -50 -43 -57 -67 -1 -44 -78 callgsubr
          43 54 67 50 42 61 35 31 78 28 60 rrcurveto
          -104 28 rmoveto
          -30 -36 -52 -14 -18 hhcurveto
          9 18 25 44 26 32 123 149 5 -130 -82 -69 rrcurveto
          endchar
        </CharString>
        <CharString name="equal">
          106 194 48 52 48 hstem
          147 262 vstem
          409 322 rmoveto
          -21 callgsubr
          -100 vmoveto
          -21 callgsubr
          endchar
        </CharString>
        <CharString name="eth">
          36 211 27 hstem
          147 258 vstem
          366 596 rmoveto
          23 13 -20 19 -20 -11 -78 -42 rcurveline
          29 -28 -39 18 -51 hhcurveto
          -14 -44 0 -21 -6 6 -1 5 hvcurveto
          12 11 4 13 hhcurveto
          37 30 -18 -27 23 hvcurveto
          -76 -42 -25 -15 38 -35 11 8 rlinecurve
          22 16 25 19 27 19 rrcurveto
          32 -55 13 -74 -50 vvcurveto
          -31 -4 -32 -7 -31 vhcurveto
          15 vlineto
          33 -18 24 -18 callgsubr
          61 -12 65 -32 47 vhcurveto
          23 15 24 16 28 16 rrcurveto
          -92 -335 rmoveto
          -34 -9 -37 -17 -30 vhcurveto
          -44 -24 -59 -109 -57 hhcurveto
          -23 -5 24 16 33 9 42 11 31 hvcurveto
          47 16 65 112 58 hhcurveto
          29 6 -26 -25 hvcurveto
          endchar
        </CharString>
        <CharString name="exclam">
          -2 -14 82 hstem
          540 611 rmoveto
          -2 6 -5 2 -26 -1 -43 8 -14 -27 rlinecurve
          -254 -484 -1 -7 10 -1 37 56 287 418 11 30 rlinecurve
          -338 -584 rmoveto
          -81 callsubr
          endchar
        </CharString>
        <CharString name="exclamdown">
          49 -14 82 hstem
          -44 -289 rmoveto
          2 -6 5 -2 26 1 43 -8 14 27 rlinecurve
          254 484 1 7 -10 1 -37 -56 -287 -418 -11 -30 rlinecurve
          338 584 rmoveto
          -19 callgsubr
          -20 callsubr
          endchar
        </CharString>
        <CharString name="f">
          -154 20 -21 627 -20 hstem
          -63 callsubr
          -2 19 -13 callsubr
        </CharString>
        <CharString name="f.alt">
          -31 -287 -21 hstem
          46 404 -28 callsubr
          -55 -117 -40 -54 -6 -9 6 -11 8 7 20 19 36 65 46 87 rrcurveto
          -226 -90 -61 -299 126 hhcurveto
          86 66 107 109 26 hvcurveto
          19 75 6 86 -26 61 -16 37 -33 39 -59 4 21 61 21 50 15 27 203 75 136 73 99 160 108 173 -134 50 -131 -85 -139 -90 -117 -214 -67 -123 -36 -4 -41 6 -5 34 rrcurveto
          1 18 -18 1 -4 -18 rrcurveto
          163 -25 rmoveto
          61 122 106 181 114 80 94 66 109 -10 -88 -151 -82 -140 -170 -109 -144 -39 rrcurveto
          4 -272 rmoveto
          10 -55 -7 -72 -15 -64 -21 -87 -56 -119 -56 12 -70 14 67 277 65 186 45 -3 28 -35 10 -54 rrcurveto
          endchar
        </CharString>
        <CharString name="ffi">
          218 15 callgsubr
          466 85 -44 callsubr
          -38 -96 rlineto
          0 -72 callsubr
          43 38 39 50 31 hvcurveto
          hintmask 01100000
          -44 -6 14 -44 57 hhcurveto
          74 57 127 56 26 hvcurveto
          -42 callsubr
          -380 -90 -46 callgsubr
          198 hmoveto
          -70 callgsubr
          323 423 -52 callsubr
          -325 -404 -9 callgsubr
          -198 hmoveto
          -43 callgsubr
        </CharString>
        <CharString name="ffl">
          256 19 -21 22 -21 hstemhm
          hintmask 01000000
          713 493 rmoveto
          72 160 -108 14 -71 -119 -58 -96 -62 -143 -31 -111 rrcurveto
          -1 -1 -72 callsubr
          51 43 55 62 34 hvcurveto
          hintmask 10000000
          -58 -11 4 -60 75 -74 callsubr
          -627 -498 -46 callgsubr
          198 hmoveto
          -47 callgsubr
          -198 hmoveto
          -43 callgsubr
        </CharString>
        <CharString name="fi">
          20 15 callgsubr
          268 85 -44 callsubr
          -38 -96 rlineto
          0 -1 -1 -1 vvcurveto
          -33 -70 -57 -111 -60 4 -3 13 rcurveline
          -7 35 -12 24 -13 16 100 225 130 231 63 59 rrcurveto
          -87 callgsubr
          43 38 39 50 31 hvcurveto
          hintmask 01100000
          -44 -6 14 -44 57 hhcurveto
          74 57 127 56 26 hvcurveto
          -42 callsubr
          -182 -90 -46 callgsubr
          323 423 -52 callsubr
          -325 -404 -13 callsubr
        </CharString>
        <CharString name="five">
          93 -13 19 318 26 143 64 hstem
          316 67 vstem
          507 576 -52 callgsubr
        </CharString>
        <CharString name="five.inferior">
          -63 203 -20 hstem
          191 61 vstem
          314 374 -59 callsubr
        </CharString>
        <CharString name="five.onum">
          73 -199 -21 hstem
          255 67 vstem
          446 369 -52 callgsubr
        </CharString>
        <CharString name="five.superior">
          -63 191 61 vstem
          314 624 -59 callsubr
        </CharString>
        <CharString name="fl">
          58 19 -21 22 -21 hstemhm
          hintmask 01000000
          515 493 rmoveto
          72 160 -108 14 -71 -119 -58 -96 -62 -143 -31 -111 rrcurveto
          -1 -1 -1 -1 -1 vvcurveto
          -33 -70 -57 -111 -60 4 -3 13 rcurveline
          -7 35 -12 24 -13 16 100 225 130 231 63 59 rrcurveto
          -87 callgsubr
          51 43 55 62 34 hvcurveto
          hintmask 10000000
          -58 -11 4 -60 75 -74 callsubr
          -429 -498 rmoveto
          -47 callgsubr
          endchar
        </CharString>
        <CharString name="florin">
          148 -352 -21 1058 -20 hstem
          -275 -261 rmoveto
          -4 -9 -2 -12 1 -17 1 -17 3 -13 5 -9 rrcurveto
          -23 14 22 -12 29 hhcurveto
          57 46 30 59 38 hvcurveto
          18 28 23 43 226 571 rrcurveto
          134 hlineto
          12 22 rlineto
          -137 hlineto
          41 91 28 58 14 25 rrcurveto
          71 39 37 35 35 hhcurveto
          14 13 -7 -14 12 hvcurveto
          11 -14 2 -22 -8 -31 17 1 rcurveline
          4 9 2 12 -1 17 -1 17 -3 13 -5 9 rrcurveto
          23 -14 -22 12 -29 hhcurveto
          -57 -46 -30 -59 -38 hvcurveto
          -18 -28 -23 -43 -27 -61 -12 -26 -11 -28 -12 -30 rrcurveto
          -75 hlineto
          -12 -22 rlineto
          78 hlineto
          -37 -78 -99 -300 -111 -222 rrcurveto
          -72 -36 -40 -34 -35 hhcurveto
          -14 -13 7 14 -12 hvcurveto
          -11 14 -2 22 8 31 rrcurveto
          endchar
        </CharString>
        <CharString name="four">
          112 188 21 hstem
          485 562 -57 callsubr
        </CharString>
        <CharString name="four.inferior">
          -50 232 340 -88 callsubr
          endchar
        </CharString>
        <CharString name="four.onum">
          41 -193 -21 579 -20 hstem
          410 355 -57 callsubr
        </CharString>
        <CharString name="four.superior">
          -50 232 590 -88 callsubr
          endchar
        </CharString>
        <CharString name="fraction">
          196 761 29 hstem
          545 606 -68 callgsubr
          endchar
        </CharString>
        <CharString name="g">
          40 -295 -21 hstem
          -102 callsubr
          endchar
        </CharString>
        <CharString name="gbreve">
          40 445 44 hstem
          206 271 vstem
          -102 callsubr
          210 594 -79 callsubr
          endchar
        </CharString>
        <CharString name="gcircumflex">
          40 -295 -21 hstem
          -102 callsubr
          175 446 -100 callgsubr
          endchar
        </CharString>
        <CharString name="gcommaaccent">
          40 509 82 490 82 hstem
          159 27 vstem
          -102 callsubr
          61 531 rmoveto
          -23 13 -20 27 20 20 16 21 3 vhcurveto
          20 3 -13 17 -21 hhcurveto
          -9 -9 -4 -5 -7 hvcurveto
          4 40 31 27 33 11 12 3 -3 11 -10 -4 rrcurveto
          -38 -13 -56 -38 -59 vvcurveto
          endchar
        </CharString>
        <CharString name="gdotaccent">
          40 414 -10 callsubr
          253 132 vstem
          -102 callsubr
          153 555 -94 callsubr
          endchar
        </CharString>
        <CharString name="germandbls">
          85 -325 26 17 98 131 21 708 23 hstem
          -401 26 663 38 116 66 vstem
          296 288 rmoveto
          9 -47 29 -68 -2 -43 -3 -53 -19 -34 -22 -17 -23 11 -21 28 2 38 1 28 -19 9 -20 -3 -36 callsubr
          -42 74 -26 41 -45 73 104 47 36 29 45 38 23 44 1 47 1 51 -13 43 -65 23 -111 37 -52 -59 -47 -92 -146 -356 41 90 -93 -235 rrcurveto
          -90 -226 -91 -108 -119 -31 -28 -7 -42 8 -10 25 rrcurveto
          -7 8 10 -5 12 hhcurveto
          27 24 22 27 3 hvcurveto
          27 3 -20 22 -27 hhcurveto
          -39 -30 -36 -40 2 hvcurveto
          4 -51 46 -18 57 4 80 6 91 71 66 77 111 129 79 314 103 285 18 51 60 84 78 -28 80 -28 -16 -117 -55 -64 -52 -62 -70 -24 17 -81 rrcurveto
          -25 -271 rmoveto
          -3 -6 -7 -1 -7 hhcurveto
          -39 -13 47 32 32 hvcurveto
          2 -38 17 -24 21 -13 rrcurveto
          endchar
        </CharString>
        <CharString name="grave">
          -141 420 -21 135 -20 hstem
          193 408 -90 callsubr
        </CharString>
        <CharString name="greater">
          -23 42 -21 286 -20 hstem
          248 150 -28 callgsubr
        </CharString>
        <CharString name="greaterequal">
          -101 20 24 hstem
          15 193 vstem
          219 200 rmoveto
          8 -1 10 -6 6 vhcurveto
          -15 17 -18 15 -17 15 -96 89 rcurveline
          -2 1 rlineto
          -4 -1 0 -7 -3 vvcurveto
          -7 1 -8 5 -6 vhcurveto
          12 -16 14 -15 13 -15 64 -71 rcurveline
          -103 -101 rlineto
          -6 -6 -8 -3 -11 vvcurveto
          -4 2 -3 5 11 127 80 13 15 vhcurveto
          7 5 0 10 8 vvcurveto
          -10 -179 -3 callgsubr
        </CharString>
        <CharString name="guillemotleft">
          99 42 -21 hstem
          477 297 rmoveto
          -1 7 -6 3 -10 1 -181 -116 -22 -13 rlinecurve
          8 -32 17 -99 13 -24 8 -3 rcurveline
          7 3 5 10 1 136 32 24 109 71 20 32 rlinecurve
          -144 hmoveto
          -27 callsubr
        </CharString>
        <CharString name="guillemotright">
          99 42 -21 286 -20 hstem
          393 150 rmoveto
          -5 21 -23 122 -10 10 -8 4 rcurveline
          -8 -4 -9 -17 5 -102 -1 -26 rlinecurve
          -32 -25 -108 -68 -21 -33 rrcurveto
          -9 vlineto
          7 -2 8 1 rlineto
          60 128 -28 callgsubr
        </CharString>
        <CharString name="guilsinglleft">
          148 491 -20 hstem
          299 480 rmoveto
          8 3 -4 3 -7 hhcurveto
          -8 -11 0 callgsubr
          5 -1 vhcurveto
          78 -81 25 -35 14 -24 19 -7 7 8 3 11 -23 45 -35 53 -29 61 102 125 59 54 2 12 rrcurveto
          203 hmoveto
          8 4 -5 3 -7 hhcurveto
          -7 -12 0 callgsubr
          6 -1 vhcurveto
          78 -81 25 -35 13 -24 19 -7 7 8 3 11 -22 45 -35 53 -30 61 102 125 59 54 2 12 rrcurveto
          endchar
        </CharString>
        <CharString name="guilsinglright">
          148 132 -21 hstem
          279 122 rmoveto
          -8 -3 4 -3 7 hhcurveto
          8 11 -1 callgsubr
          -5 1 vhcurveto
          -78 81 -25 35 -14 24 -19 7 -7 -8 -3 -11 23 -45 35 -53 29 -61 -102 -125 -59 -54 -2 -12 rrcurveto
          -203 hmoveto
          -8 -4 5 -3 7 hhcurveto
          7 12 -1 callgsubr
          -6 1 vhcurveto
          -78 81 -25 35 -13 24 -19 7 -7 -8 -3 -11 22 -45 35 -53 30 -61 -102 -125 -59 -54 -2 -12 rrcurveto
          endchar
        </CharString>
        <CharString name="h">
          -64 callgsubr
          endchar
        </CharString>
        <CharString name="h.001">
          -20 -19 callsubr
          hintmask 10000000
          411 557 rmoveto
          139 245 -167 22 -95 -171 -80 -144 -70 -146 -52 -115 -126 -255 rcurveline
          -55 callgsubr
          -75 callsubr
          -27 -31 -27 -34 37 77 rcurveline
          2 2 107 89 83 84 90 159 rlinecurve
          -20 23 rmoveto
          -74 -133 -92 -112 -79 -75 120 250 42 81 63 81 96 123 -37 -144 -39 -71 rrcurveto
          endchar
        </CharString>
        <CharString name="h.alt">
          -1 -19 callsubr
          hintmask 10000000
          46 404 -28 callsubr
          -49 -109 -46 -62 -6 -9 7 -12 7 8 25 26 26 48 41 78 4 -4 -70 -134 -35 -67 rrcurveto
          -55 callgsubr
          -75 callsubr
          -48 -49 -27 -34 3 8 rcurveline
          9 25 10 26 11 25 9 20 10 21 14 27 11 22 14 26 15 28 159 -38 callgsubr
          rrcurveto
          -50 callgsubr
        </CharString>
        <CharString name="hbar">
          -20 475 33 hstem
          347 501 rmoveto
          -67 hlineto
          29 49 24 38 15 15 -14 -2 -15 5 -13 1 -32 2 -16 -23 -23 -42 -24 -43 rcurveline
          -74 hlineto
          -13 -20 rlineto
          77 hlineto
          -86 -163 -84 -177 -71 -148 -46 callsubr
          -67 callsubr
          -33 callsubr
          74 55 118 69 33 hvcurveto
          -75 callsubr
          -27 -31 -27 -34 51 104 69 133 56 98 rrcurveto
          67 hlineto
          endchar
        </CharString>
        <CharString name="hcircumflex">
          -64 callgsubr
          38 486 -100 callgsubr
          endchar
        </CharString>
        <CharString name="hungarumlaut">
          -85 413 20 hstem
          144 560 -77 callsubr
        </CharString>
        <CharString name="hyphen">
          -26 callsubr
        </CharString>
        <CharString name="i">
          -178 21 -21 459 -20 hstem
          211 418 -52 callsubr
          -141 -333 -44 callsubr
          -64 -163 rlineto
          -52 -21 0 -78 75 hhcurveto
          74 57 127 56 26 hvcurveto
          -42 callsubr
          endchar
        </CharString>
        <CharString name="iacute">
          -184 0 21 394 20 hstemhm
          11 48 hintmask 10100000
          -97 callgsubr
          hintmask 01000000
          142 321 -102 callgsubr
        </CharString>
        <CharString name="icircumflex">
          -184 0 21 hstem
          11 48 vstem
          -97 callgsubr
          80 223 -100 callgsubr
          endchar
        </CharString>
        <CharString name="idieresis">
          -184 0 21 375 66 hstemhm
          11 48 48 66 63 66 hintmask 10100000
          -97 callgsubr
          hintmask 01011000
          66 246 rmoveto
          -97 callsubr
          -129 0 callsubr
        </CharString>
        <CharString name="igrave">
          -184 0 21 hstem
          11 48 vstem
          -97 callgsubr
          2 225 -90 callsubr
        </CharString>
        <CharString name="imacron">
          -178 0 21 392 43 hstemhm
          11 48 hintmask 10100000
          -97 callgsubr
          hintmask 01000000
          81 264 rmoveto
          -197 hlineto
          -12 -27 rlineto
          198 hlineto
          endchar
        </CharString>
        <CharString name="infinity">
          341 266 32 145 31 hstem
          45 13 184 235 vstem
          661 388 rmoveto
          66 -59 50 -77 -66 -46 -56 -41 -37 vhcurveto
          53 -36 -65 40 -73 hhcurveto
          -85 -52 -53 -71 -62 47 -54 74 68 50 56 41 39 hvcurveto
          -49 36 73 -56 72 hhcurveto
          82 55 71 65 hvcurveto
          -15 -8 rmoveto
          -51 -47 -39 -58 -22 -23 5 8 -19 vhcurveto
          -53 22 -13 33 -29 41 5 6 3 7 5 6 rrcurveto
          31 29 43 24 47 hhcurveto
          63 69 -35 -58 hvcurveto
          -310 -13 rmoveto
          -35 -39 -50 -35 -59 hhcurveto
          -51 -54 25 49 51 36 41 60 68 57 -49 -47 32 hvcurveto
          endchar
        </CharString>
        <CharString name="integral">
          148 -182 -21 827 -20 hstem
          433 602 rmoveto
          27 26 -9 -10 26 hvcurveto
          2 22 rlineto
          11 -31 -33 8 -33 hhcurveto
          -96 -39 -68 -97 -30 hvcurveto
          -151 -510 rlineto
          -98 -30 -58 -35 -54 hhcurveto
          -23 -25 8 10 -21 hvcurveto
          -10 -16 rlineto
          -12 34 33 -9 37 hhcurveto
          96 40 53 96 32 hvcurveto
          176 549 rlineto
          57 21 23 50 61 hhcurveto
          endchar
        </CharString>
        <CharString name="iogonek">
          -178 -136 28 hstem
          39 32 vstem
          70 85 -44 callsubr
          -64 -163 -20 -50 -1 -73 65 -7 rlinecurve
          -54 -38 -76 -83 -2 -51 -78 callgsubr
          44 58 70 51 43 65 19 49 110 24 51 -42 callsubr
          141 333 -52 callsubr
          endchar
        </CharString>
        <CharString name="itilde">
          -178 0 21 416 44 hstemhm
          11 48 hintmask 10100000
          -97 callgsubr
          hintmask 01000000
          106 286 -76 callgsubr
        </CharString>
        <CharString name="j">
          -175 -295 -21 775 -20 -89 callsubr
          273 490 -52 callsubr
          endchar
        </CharString>
        <CharString name="jcircumflex">
          -175 -295 -21 -89 callsubr
          317 461 -100 callgsubr
          endchar
        </CharString>
        <CharString name="k">
          11 21 -21 618 -20 hstem
          262 569 rmoveto
          -86 -128 -132 -299 -68 -90 -6 -9 6 -11 8 7 20 19 40 72 46 87 -30 -69 -34 -57 -18 -69 -72 callgsubr
          13 29 13 26 rrcurveto
          67 133 102 162 51 39 -14 -3 -15 6 -13 1 rrcurveto
          -5 hlineto
          -22 1 -21 -15 -24 -35 rrcurveto
          endchar
        </CharString>
        <CharString name="k.001">
          -7 20 -21 hstem
          423 605 rmoveto
          80 130 -122 6 -76 -99 -95 -125 -170 -356 -77 -168 1 callgsubr
          34 63 44 49 37 32 115 98 44 -70 -63 -51 -23 -19 -53 -13 -22 2 -27 -12 -32 -38 12 -65 10 -52 31 -29 36 -4 58 -6 62 16 79 182 rrcurveto
          7 16 -12 9 -8 -16 -28 -58 -28 -52 -25 -27 -92 -98 -64 125 38 93 44 4 46 14 30 21 76 54 12 112 -129 -48 -60 -23 -66 -70 -42 -53 34 73 rcurveline
          95 78 111 155 68 110 rrcurveto
          -16 17 rmoveto
          -54 -100 -119 -162 -72 -68 54 126 98 172 42 50 63 75 16 -43 -28 -50 rrcurveto
          endchar
        </CharString>
        <CharString name="k.alt">
          11 21 -21 hstem
          42 397 -28 callsubr
          -49 -109 -46 -62 -6 -9 7 -12 7 8 25 26 26 48 41 78 12 23 rcurveline
          -31 -67 -31 -57 -18 -68 -72 callgsubr
          50 98 13 26 rrcurveto
          158 -38 callgsubr
          -50 callgsubr
        </CharString>
        <CharString name="kcommaaccent">
          -7 -140 82 hstem
          107 27 vstem
          262 569 rmoveto
          -86 -128 -132 -299 -68 -90 -6 -9 6 -11 8 7 20 19 40 72 46 87 -30 -69 -34 -57 -18 -69 -72 callgsubr
          13 29 13 26 rrcurveto
          67 133 102 162 51 39 -14 -3 -15 6 -13 1 rrcurveto
          -5 hlineto
          -22 1 -21 -15 -24 -35 rrcurveto
          -131 -679 -99 callgsubr
        </CharString>
        <CharString name="kgreenlandic">
          -7 20 -21 hstem
          376 329 rmoveto
          -11 19 -30 6 -52 -19 -60 -23 -66 -70 -42 -53 27 54 27 55 28 52 9 18 rcurveline
          -24 4 -32 2 -18 -22 -21 -43 rlinecurve
          -31 -63 -31 -68 -86 -185 1 callgsubr
          14 27 17 25 17 22 -4 -18 -2 -27 7 -43 12 -68 46 -23 36 -4 58 -6 62 16 79 182 7 16 -12 9 -8 -16 -28 -58 -28 -52 -25 -27 rrcurveto
          -90 -95 -96 114 62 178 73 57 59 -9 2 -28 30 -8 26 30 -12 32 rrcurveto
          endchar
        </CharString>
        <CharString name="l">
          -140 19 -21 hstem
          -89 callgsubr
          endchar
        </CharString>
        <CharString name="l.001">
          -140 19 -21 hstem
          380 599 rmoveto
          91 207 -149 -10 -70 -139 -63 -125 -100 -225 -31 -112 rrcurveto
          -60 -17 -48 -137 112 -80 callgsubr
          98 89 112 184 58 133 rrcurveto
          -19 19 rmoveto
          -49 -120 -121 -201 -71 -72 51 140 89 220 62 90 68 99 -4 -96 -25 -60 rrcurveto
          endchar
        </CharString>
        <CharString name="lacute">
          -140 699 20 hstem
          -89 callgsubr
          190 280 -102 callgsubr
        </CharString>
        <CharString name="lcaron">
          18 530 82 hstem
          459 27 vstem
          -89 callgsubr
          184 50 rmoveto
          -74 callgsubr
          endchar
        </CharString>
        <CharString name="lcommaaccent">
          -140 -125 82 hstem
          96 27 vstem
          -89 callgsubr
          -182 -603 -99 callgsubr
        </CharString>
        <CharString name="less">
          -23 42 -21 hstem
          333 297 rmoveto
          -27 callsubr
        </CharString>
        <CharString name="lessequal">
          -101 20 24 hstem
          15 193 vstem
          212 91 rmoveto
          11 -7 3 -6 6 vhcurveto
          -104 101 64 71 14 15 14 15 12 16 rlinecurve
          4 6 1 8 7 vvcurveto
          2 0 9 -3 -2 -133 -122 -15 -14 vhcurveto
          -6 -6 0 -10 -8 vvcurveto
          -8 0 -10 6 -5 vhcurveto
          -13 17 125 -80 12 hhcurveto
          4 2 3 4 hvcurveto
          -3 -70 -3 callgsubr
        </CharString>
        <CharString name="logicalnot">
          456 14 263 hstem
          669 277 rmoveto
          -568 hlineto
          -11 -19 -24 -11 -10 12 -3 8 174 174 1 -1 174 hvcurveto
          -41 -193 rlineto
          -11 -2 11 -11 10 hhcurveto
          14 11 9 13 2 hvcurveto
          endchar
        </CharString>
        <CharString name="lozenge">
          223 7 -21 700 -20 hstem
          275 -14 rmoveto
          14 7 7 11 5 hvcurveto
          36 55 161 255 1 39 rrcurveto
          5 -1 6 5 vvcurveto
          -28 51 -31 52 -27 52 -22 46 -17 48 -19 47 rrcurveto
          10 -6 -7 11 -11 hhcurveto
          -28 -196 -329 -40 -1 hvcurveto
          -9 1 -4 3 -7 vhcurveto
          43 -83 48 -79 36 -87 6 -15 4 -15 7 -14 rrcurveto
          -10 5 7 -8 10 hhcurveto
          47 612 rmoveto
          30 -97 32 -97 37 -96 -47 -79 -44 -80 -47 -76 -30 95 -32 99 -35 94 43 79 47 79 46 79 rrcurveto
          endchar
        </CharString>
        <CharString name="lslash">
          -140 211 27 hstem
          236 259 rmoveto
          17 7 -2 17 -14 -5 -66 -24 rcurveline
          65 75 45 83 36 81 72 160 -108 14 -71 -119 -55 -92 -59 -133 -33 -109 -48 -19 rcurveline
          -18 -7 2 -33 9 6 46 21 rcurveline
          -65 -19 -35 -119 105 -80 callgsubr
          10 9 9 8 9 10 rrcurveto
          162 288 rmoveto
          -37 -87 -64 -108 -66 -72 -4 -2 -3 -1 -4 -1 34 84 73 166 47 66 54 77 -10 -76 -20 -46 rrcurveto
          endchar
        </CharString>
        <CharString name="m">
          155 16 -21 22 -21 25 -21 hstemhm
          hintmask 10000000
          578 184 -36 callgsubr
          -16 7 -8 -18 rrcurveto
          -46 -21 -64 -127 -52 hhcurveto
          -13 -11 9 41 7 hvcurveto
          14 70 106 188 0 vvcurveto
          -33 12 -104 -63 -48 -43 -30 -27 -33 -38 -20 -25 24 49 31 49 18 42 9 20 -6 17 -18 7 -34 12 -64 -63 -48 -43 -31 -27 -32 -38 -20 -25 36 72 55 100 30 16 rrcurveto
          5 callsubr
          -39 -93 -48 -95 10 6 9 -1 14 1 rrcurveto
          hintmask 01000000
          -34 callgsubr
          hintmask 00100000
          -29 -5 14 -26 23 hhcurveto
          13 60 85 112 43 40 77 72 18 -27 -24 -39 -28 -45 -19 -34 -8 -26 rrcurveto
          hintmask 01000000
          -93 -30 48 -24 36 hhcurveto
          76 59 -5 callsubr
          endchar
        </CharString>
        <CharString name="macron">
          133 403 49 hstem
          409 441 -45 callsubr
        </CharString>
        <CharString name="minus">
          21 207 24 hstem
          107 255 vstem
          362 208 rmoveto
          21 vlineto
          -1 1 rlineto
          -253 hlineto
          -1 -1 rlineto
          -21 vlineto
          1 -1 rlineto
          253 hlineto
          endchar
        </CharString>
        <CharString name="mu">
          -28 -8 20 329 -20 hstem
          413 161 rmoveto
          -2 2 rlineto
          -6 hlineto
          -40 -17 -63 -121 -55 hhcurveto
          -13 -4 9 11 40 49 90 20 37 hvcurveto
          78 151 -3 1 rlineto
          -12 -5 -13 -8 -13 hhcurveto
          -9 -9 3 4 -7 hvcurveto
          -2 hlineto
          -23 -51 -27 -49 -27 -48 rrcurveto
          -43 -24 -74 -132 -57 hhcurveto
          -18 -7 11 16 41 39 71 20 36 hvcurveto
          16 26 15 26 15 27 14 26 15 29 20 22 -2 2 rcurveline
          -10 -12 -21 -11 -15 hhcurveto
          -6 -6 2 3 -4 hvcurveto
          -2 hlineto
          -41 -61 -30 -68 -33 -66 -193 -379 rcurveline
          -1 -2 4 -2 1 -1 rrcurveto
          -4 9 16 -2 10 hhcurveto
          3 8 0 3 2 hvcurveto
          129 282 rlineto
          -17 9 19 -11 19 hhcurveto
          51 52 70 39 24 hvcurveto
          -6 -17 -4 -18 -18 vvcurveto
          -33 18 -25 34 65 57 118 51 23 vhcurveto
          endchar
        </CharString>
        <CharString name="multiply">
          -48 122 -21 210 -20 hstem
          260 285 rmoveto
          4 -7 17 -4 vhcurveto
          -74 -80 -42 85 -4 -1 -14 -15 -1 -4 rlinecurve
          43 -84 -74 -80 rlineto
          -3 8 -17 3 -1 vhcurveto
          74 80 42 -85 4 1 14 15 1 4 rlinecurve
          -43 84 rlineto
          endchar
        </CharString>
        <CharString name="n">
          -17 -19 callsubr
          hintmask 00100000
          406 -92 callgsubr
          rrcurveto
          hintmask 10000000
          -49 -90 -41 -95 -48 -95 rrcurveto
          hintmask 00100000
          -46 callsubr
          hintmask 10000000
          21 9 1 14 8 hvcurveto
          56 -78 callsubr
          rrcurveto
          hintmask 01000000
          -33 callsubr
          77 58 -5 callsubr
          endchar
        </CharString>
        <CharString name="nacute">
          -17 413 20 hstem
          406 -92 callgsubr
          -49 -90 -41 -95 -48 -95 -46 callsubr
          21 9 1 14 8 hvcurveto
          56 -78 callsubr
          rrcurveto
          -33 callsubr
          77 58 -5 callsubr
          44 318 -102 callgsubr
        </CharString>
        <CharString name="nbspace">
          -93 endchar
        </CharString>
        <CharString name="ncaron">
          -17 -19 callsubr
          hintmask 00100000
          406 -92 callgsubr
          rrcurveto
          hintmask 10000000
          -49 -90 -41 -95 -48 -95 rrcurveto
          hintmask 00100000
          -46 callsubr
          hintmask 10000000
          21 9 1 14 8 hvcurveto
          56 -78 callsubr
          rrcurveto
          hintmask 01000000
          -33 callsubr
          77 58 -5 callsubr
          -160 353 -98 callgsubr
          endchar
        </CharString>
        <CharString name="ncommaaccent">
          -17 -128 82 hstem
          129 27 vstem
          406 -92 callgsubr
          -49 -90 -41 -95 -48 -95 -46 callsubr
          21 9 1 14 8 hvcurveto
          56 -78 callsubr
          rrcurveto
          -33 callsubr
          77 58 -5 callsubr
          -253 -282 -99 callgsubr
        </CharString>
        <CharString name="nine">
          83 208 58 311 -21 hstem
          74 57 247 60 vstem
          438 456 -48 callsubr
        </CharString>
        <CharString name="nine.inferior">
          -69 370 -20 hstem
          39 58 135 53 vstem
          27 -16 -49 callgsubr
        </CharString>
        <CharString name="nine.onum">
          48 -251 -21 230 58 311 -20 hstem
          25 57 247 60 vstem
          389 206 -48 callsubr
        </CharString>
        <CharString name="nine.superior">
          -69 620 -20 hstem
          39 58 135 53 vstem
          27 234 -49 callgsubr
        </CharString>
        <CharString name="notequal">
          106 211 27 73 27 hstem
          147 262 vstem
          392 211 -25 callgsubr
          -123 3 55 68 rlineto
          1 22 25 1 25 27 -8 27 -23 hhcurveto
          -45 1 11 14 10 15 11 15 rlinecurve
          12 16 -26 -3 -12 -16 -30 -40 rcurveline
          1 -75 -47 1 -33 -39 callsubr
          37 4 44 6 49 3 -54 -66 rcurveline
          1 -32 -24 0 -20 -39 callsubr
          42 5 -39 -51 -12 -16 27 0 12 16 rlinecurve
          13 18 14 18 14 18 rrcurveto
          5 46 52 4 59 hhcurveto
          endchar
        </CharString>
        <CharString name="ntilde">
          -17 448 44 hstem
          406 -92 callgsubr
          -49 -90 -41 -95 -48 -95 -46 callsubr
          21 9 1 14 8 hvcurveto
          56 -78 callsubr
          rrcurveto
          -33 callsubr
          77 58 -5 callsubr
          31 305 rmoveto
          2 4 -21 3 -2 -5 -11 -23 -17 -15 -27 3 -40 3 -38 30 -43 3 -46 4 -33 -45 -19 -34 -2 -5 23 -3 2 6 10 19 18 16 24 -2 41 -3 38 -32 42 -4 rrcurveto
          47 -4 34 47 18 37 rrcurveto
          endchar
        </CharString>
        <CharString name="numbersign">
          394 0 276 141 48 hstem
          719 465 rmoveto
          -148 hlineto
          139 231 rlineto
          -54 hlineto
          -139 -231 rlineto
          -140 hlineto
          140 231 rlineto
          -55 hlineto
          -138 -231 rlineto
          -170 hlineto
          -29 -48 rlineto
          170 hlineto
          -84 -141 rlineto
          -156 hlineto
          -30 -47 rlineto
          158 hlineto
          -138 19 callgsubr
          138 hlineto
          -137 19 callgsubr
          161 hlineto
          29 47 rlineto
          -161 hlineto
          83 141 rlineto
          149 hlineto
          -203 hmoveto
          -84 -141 rlineto
          -140 hlineto
          85 141 rlineto
          endchar
        </CharString>
        <CharString name="o">
          -17 -104 callgsubr
          endchar
        </CharString>
        <CharString name="oacute">
          -17 418 20 hstem
          -104 callgsubr
          180 190 -102 callgsubr
        </CharString>
        <CharString name="ocircumflex">
          -17 -104 callgsubr
          121 93 -100 callgsubr
          endchar
        </CharString>
        <CharString name="odieresis">
          -17 424 66 hstem
          195 13 callsubr
          -104 callgsubr
          128 140 rmoveto
          -97 callsubr
          -129 0 callsubr
        </CharString>
        <CharString name="oe">
          100 0 22 296 32 hstem
          30 56 390 27 vstem
          524 187 rmoveto
          9 21 -19 -51 callsubr
          -66 17 101 36 15 hvcurveto
          27 65 21 23 30 hvcurveto
          65 49 29 68 -38 29 -44 33 -77 -37 -50 -61 -3 -4 rcurveline
          -4 43 -22 31 -44 1 -68 2 -83 -78 -39 -92 -38 -89 11 -91 76 -2 46 -1 52 41 39 46 rrcurveto
          -59 3 45 -31 47 hhcurveto
          112 -23 callsubr
          -104 28 rmoveto
          -30 -36 -52 -14 -19 hhcurveto
          10 18 24 44 27 32 123 149 5 -130 -82 -69 rrcurveto
          -138 19 rmoveto
          -20 -33 -15 -38 -7 -35 -30 -49 -59 -68 -43 12 -36 11 9 70 39 82 37 79 62 64 43 -12 23 -7 6 -32 -9 -44 rrcurveto
          endchar
        </CharString>
        <CharString name="ogonek">
          -19 -152 28 hstem
          146 32 vstem
          220 -7 rmoveto
          13 2 -4 -3 -4 hhcurveto
          -49 -21 -112 -108 -2 -62 -78 callgsubr
          46 64 75 53 42 rrcurveto
          endchar
        </CharString>
        <CharString name="ograve">
          -17 534 -20 hstem
          -104 callgsubr
          47 91 -90 callsubr
        </CharString>
        <CharString name="ohungarumlaut">
          -17 416 20 hstem
          -104 callgsubr
          9 246 -77 callsubr
        </CharString>
        <CharString name="omacron">
          -17 403 49 hstem
          -104 callgsubr
          122 124 -45 callsubr
        </CharString>
        <CharString name="one">
          26 -2 20 hstem
          426 563 rmoveto
          5 vlineto
          -2 1 -2 1 -2 -1 -31 -3 rcurveline
          -17 -2 -17 -19 -11 -12 -57 -60 -59 -43 -67 -51 -2 -6 rcurveline
          4 -8 rlineto
          4 hlineto
          59 36 53 41 51 46 -90 -160 -89 -161 -91 -161 1 -6 rcurveline
          2 5 -2 2 hhcurveto
          12 1 30 0 10 6 299 548 rcurveline
          endchar
        </CharString>
        <CharString name="one.inferior">
          -106 245 366 -69 callgsubr
          endchar
        </CharString>
        <CharString name="one.onum">
          34 0 22 hstem
          61 211 vstem
          201 22 rmoveto
          -67 hlineto
          56 104 47 104 56 103 63 3 rcurveline
          9 12 21 1 -11 hvcurveto
          -61 hlineto
          3 10 -8 -1 -17 -1 -7 -1 -8 -2 -6 -4 rrcurveto
          -30 -27 1 -22 hhcurveto
          -5 1 -34 -44 13 4 23 3 28 3 34 3 -160 -307 rcurveline
          1 -24 -21 0 -19 hhcurveto
          -5 1 -34 -44 13 4 24 3 28 4 36 3 7 -1 10 0 9 2 25 2 28 1 32 1 rrcurveto
          9 12 21 1 -11 hvcurveto
          endchar
        </CharString>
        <CharString name="onehalf">
          270 761 29 hstem
          515 606 -68 callgsubr
          -270 10 -69 callgsubr
          373 -301 -88 callgsubr
          endchar
        </CharString>
        <CharString name="onequarter">
          270 761 29 hstem
          528 340 -88 callsubr
          17 266 -68 callgsubr
          -300 10 -69 callgsubr
          endchar
        </CharString>
        <CharString name="onesuperior">
          -106 245 616 -69 callgsubr
          endchar
        </CharString>
        <CharString name="ordfeminine">
          22 435 -20 hstem
          250 515 -2 callsubr
          -8 3 -4 -9 -11 -22 -33 -63 -21 1 rrcurveto
          -6 -3 9 21 5 hvcurveto
          6 30 29 53 11 10 rrcurveto
          -1 -7 -8 3 -6 hhcurveto
          -16 2 -7 -13 -11 -21 -13 -24 -14 -25 -18 -21 -23 -27 -28 -5 5 35 3 19 14 25 4 7 18 29 26 30 22 12 19 10 18 -4 6 -18 8 -2 4 9 -7 7 rrcurveto
          -28 31 -58 -18 -30 -36 -75 -90 38 -88 57 55 15 14 13 20 8 13 -15 -52 24 -13 16 1 31 3 30 60 15 30 rrcurveto
          endchar
        </CharString>
        <CharString name="ordmasculine">
          -79 431 -20 hstem
          246 520 rmoveto
          3 8 -7 2 -2 -5 rrcurveto
          -15 -7 -27 -70 -36 hhcurveto
          -12 -8 4 8 -4 hvcurveto
          19 17 16 24 7 18 19 44 -5 46 -38 1 -34 1 -42 -39 -19 -46 -19 -45 5 -45 38 -1 15 -1 15 7 14 11 rrcurveto
          -8 7 9 -5 12 hhcurveto
          46 23 61 28 12 hvcurveto
          -72 65 rmoveto
          18 -5 -2 -36 -20 -41 -4 -10 -6 -9 -5 -8 rrcurveto
          2 1 2 2 vvcurveto
          8 -7 6 -8 -13 -4 -9 -12 -1 vhcurveto
          -7 3 -10 5 -8 vhcurveto
          -12 -10 -12 -4 -10 2 -18 5 5 35 19 41 19 40 31 32 21 -6 rrcurveto
          endchar
        </CharString>
        <CharString name="oslash">
          -17 -219 31 vstem
          68 -54 rmoveto
          31 54 rlineto
          1 hlineto
          29 -1 30 14 28 21 rrcurveto
          -15 13 21 -11 30 hhcurveto
          84 56 142 38 17 hvcurveto
          7 15 -17 4 -5 -10 rrcurveto
          -48 -24 -52 -124 -64 hhcurveto
          -24 -15 10 15 -8 hvcurveto
          38 36 31 47 15 35 28 65 1 68 -32 31 27 46 rcurveline
          -19 9 -25 -44 rlineto
          4 -8 -10 3 -11 hhcurveto
          -68 2 -83 -78 -39 -92 -34 -80 5 -81 56 -18 -28 -49 rcurveline
          70 232 rmoveto
          35 75 58 62 43 -5 -162 -286 rcurveline
          -19 24 12 60 33 70 rrcurveto
          134 -33 rmoveto
          -9 -19 -11 -19 -11 -16 rrcurveto
          1 4 1 3 4 vvcurveto
          16 -13 14 -17 -8 -7 -2 -4 -5 vhcurveto
          99 175 22 -23 -9 -63 -33 -70 rlinecurve
          -94 -56 rmoveto
          -15 5 -18 11 -16 vhcurveto
          -23 -19 -23 -10 -19 3 49 86 rcurveline
          endchar
        </CharString>
        <CharString name="otilde">
          -17 470 44 hstem
          -104 callgsubr
          171 194 rmoveto
          2 4 -21 3 -2 -5 -11 -23 -17 -15 -27 3 -40 3 -38 30 -43 3 -46 4 -33 -45 -19 -34 -2 -5 23 -3 2 6 10 19 18 16 24 -2 41 -3 38 -32 42 -4 rrcurveto
          47 -4 34 47 18 37 rrcurveto
          endchar
        </CharString>
        <CharString name="p">
          -16 -58 callgsubr
          endchar
        </CharString>
        <CharString name="p.001">
          -6 323 350 rmoveto
          -68 19 -107 -146 -54 -133 13 34 48 144 1 33 1 49 -19 -4 -27 -3 rrcurveto
          -7 -1 -17 -7 0 vvcurveto
          27 -7 -61 -158 -20 -39 -7 -14 rcurveline
          -84 -97 -86 -147 -50 -112 -91 -207 149 10 70 139 42 82 56 125 43 107 71 -41 88 34 55 66 73 88 56 160 -95 26 rrcurveto
          -27 -156 rmoveto
          -54 -99 -110 -111 -49 49 47 88 49 87 38 52 85 119 60 -62 -66 -123 rrcurveto
          -471 -452 rmoveto
          49 120 121 201 71 72 -51 -140 -89 -220 -62 -90 -68 -99 4 96 25 60 rrcurveto
          endchar
        </CharString>
        <CharString name="paragraph">
          51 -36 20 785 67 hstem
          312 66 vstem
          604 654 rmoveto
          -172 hlineto
          -33 -35 -1 -13 -34 hvcurveto
          -64 -25 -48 -52 -21 -58 rrcurveto
          -94 -34 42 -48 90 hhcurveto
          -133 -363 rlineto
          67 hlineto
          221 604 rlineto
          49 hlineto
          -221 -604 rlineto
          67 hlineto
          221 604 rlineto
          20 hlineto
          endchar
        </CharString>
        <CharString name="parenleft">
          -2 -60 22 hstem
          25 58 vstem
          496 755 rmoveto
          -230 -59 -186 -225 -39 -147 -59 -229 106 -171 142 17 33 4 0 21 -26 -3 -149 -18 -39 203 60 185 37 116 121 225 229 60 29 8 4 21 -33 -8 rrcurveto
          endchar
        </CharString>
        <CharString name="parenright">
          166 742 22 hstem
          451 58 vstem
          492 380 rmoveto
          59 229 -106 171 -142 -17 -33 -4 0 -21 27 3 148 17 39 -202 -60 -185 -37 -116 -121 -225 -228 -60 -30 -8 -4 -21 33 8 230 59 187 225 38 147 rrcurveto
          endchar
        </CharString>
        <CharString name="partialdiff">
          16 -5 327 277 23 hstem
          63 44 219 36 vstem
          362 376 rmoveto
          117 -45 129 -137 -14 -44 0 -21 -6 6 -1 5 vhcurveto
          12 11 4 13 hhcurveto
          115 42 -164 -90 -48 -8 -49 -19 -45 hvcurveto
          7 20 4 21 21 vvcurveto
          33 -13 25 -18 callgsubr
          -57 -114 rmoveto
          -34 -13 -38 -17 -30 vhcurveto
          -44 -24 -62 -114 -57 hhcurveto
          -23 -2 29 16 33 9 42 11 31 hvcurveto
          47 16 67 115 58 hhcurveto
          29 8 -28 -25 hvcurveto
          endchar
        </CharString>
        <CharString name="percent">
          269 -29 22 296 32 60 22 12 106 179 32 hstem
          62 56 75 65 21 56 202 27 vstem
          620 661 rmoveto
          11 -23 -5 -3 -2 vhcurveto
          -14 -8 -122 -146 -45 -35 -73 -58 -74 -36 -28 50 70 65 114 231 -149 4 -67 1 -84 -78 -39 -91 -38 -89 11 -92 76 -2 30 -1 30 14 27 21 53 -55 87 46 78 67 rrcurveto
          -152 -188 -151 -188 -167 -176 1 -5 rcurveline
          37 hlineto
          485 405 rmoveto
          -67 2 -84 -78 -39 -92 -38 -89 11 -91 76 -2 140 -4 177 350 -176 4 rrcurveto
          -196 377 rmoveto
          64 -18 -74 -159 -29 -41 rrcurveto
          2 4 0 3 4 vvcurveto
          17 -13 13 -17 -24 -10 -20 -23 vhcurveto
          -1 -15 6 -18 10 -16 -24 -20 -24 -10 -20 6 -36 10 10 70 38 82 38 80 61 63 43 -12 rrcurveto
          228 -525 rmoveto
          -15 -42 -21 -43 -14 -18 -24 -30 -45 -59 -46 13 -36 10 10 70 38 83 38 79 61 64 44 -13 35 -10 -7 -52 -18 -52 rrcurveto
          endchar
        </CharString>
        <CharString name="period">
          -144 -14 82 hstem
          185 27 rmoveto
          -81 callsubr
          endchar
        </CharString>
        <CharString name="periodcentered">
          -91 191 82 hstem
          207 232 rmoveto
          -81 callsubr
          endchar
        </CharString>
        <CharString name="perthousand">
          336 -21 273 132 272 hstem
          116 39 44 39 163 16 23 39 164 16 vstem
          659 176 rmoveto
          45 -27 31 -45 -87 -60 -99 -79 -47 23 -48 53 82 61 127 70 vhcurveto
          -171 475 rmoveto
          -32 hlineto
          -100 -168 rlineto
          -13 -8 -25 -14 -16 hhcurveto
          -7 -6 2 3 -6 hvcurveto
          -1 2 rlineto
          25 28 16 52 37 vvcurveto
          41 -21 35 -45 -87 -59 -99 -79 -44 21 -51 51 40 37 39 33 18 vhcurveto
          -5 7 9 -2 9 hhcurveto
          12 13 5 7 10 hvcurveto
          -311 -475 rlineto
          32 hlineto
          353 191 rmoveto
          45 -26 31 -46 -87 -59 -99 -79 -47 22 -48 53 82 61 127 70 vhcurveto
          -98 396 rmoveto
          -4 -4 1 -4 hhcurveto
          -33 -11 -40 -26 -19 5 -12 9 -15 hvcurveto
          -2 -4 rlineto
          -28 -14 -33 -37 -35 hhcurveto
          -34 -4 44 26 18 2 17 5 17 hvcurveto
          46 13 43 82 56 hhcurveto
          40 5 -40 -30 hvcurveto
          324 -387 rmoveto
          -59 -56 -137 -72 -31 -5 46 24 17 3 18 4 17 vhcurveto
          46 13 43 82 56 hhcurveto
          32 13 -25 -29 hvcurveto
          -242 hmoveto
          -59 -56 -137 -71 -32 -5 46 24 17 3 18 5 17 vhcurveto
          46 12 44 82 56 hhcurveto
          32 12 -25 -29 hvcurveto
          endchar
        </CharString>
        <CharString name="pi">
          70 -6 20 hstem
          406 360 rmoveto
          2 vlineto
          1 -2 1 -1 vhcurveto
          -12 -3 -50 -56 -63 -63 53 -60 hhcurveto
          -7 -7 -1 -3 -7 hvcurveto
          -24 -11 -40 -44 -28 vvcurveto
          -3 1 -2 4 13 -5 40 6 41 vhcurveto
          1 4 4 0 4 hhcurveto
          7 7 -1 -1 7 hvcurveto
          -69 -326 rlineto
          18 hlineto
          68 322 42 -12 40 -23 43 -9 rlinecurve
          -59 -275 rlineto
          18 hlineto
          58 273 rlineto
          9 10 1 3 9 hvcurveto
          -1 hlineto
          24 10 50 48 -2 28 rrcurveto
          endchar
        </CharString>
        <CharString name="plus">
          106 203 36 hstem
          461 238 rmoveto
          -43 1 -48 -1 -39 1 8 41 8 callgsubr
          -15 -68 -9 -37 rrcurveto
          1 -53 -64 2 -22 hhcurveto
          -30 3 -50 2 15 hvcurveto
          29 3 65 2 47 4 -13 9 callgsubr
          30 12 58 8 49 rrcurveto
          3 43 52 3 38 hhcurveto
          27 -2 26 1 -22 hvcurveto
          endchar
        </CharString>
        <CharString name="plusminus">
          106 35 27 190 36 hstem
          132 298 vstem
          467 287 rmoveto
          1 -42 -49 -1 -39 hhcurveto
          8 42 8 callgsubr
          -14 -68 -10 -37 rrcurveto
          1 -52 -65 2 -22 hhcurveto
          -30 4 -50 2 14 hvcurveto
          29 3 65 2 48 4 -14 9 callgsubr
          29 12 59 8 49 rrcurveto
          2 44 51 4 38 hhcurveto
          27 -1 26 1 -23 hvcurveto
          -54 -252 rmoveto
          27 -8 27 -23 hhcurveto
          3 -116 -102 5 -42 -39 callsubr
          7 60 112 6 92 hhcurveto
          endchar
        </CharString>
        <CharString name="product">
          260 21 -21 642 -20 hstem
          592 635 rmoveto
          2 vlineto
          1 -3 1 -2 vhcurveto
          -16 -4 -50 -76 -86 -86 53 -82 hhcurveto
          -10 -9 -1 -3 -10 hvcurveto
          -32 -11 -55 -44 -28 vvcurveto
          -3 1 -2 6 17 -6 40 6 56 vhcurveto
          1 5 6 0 5 hhcurveto
          10 9 -1 -1 10 hvcurveto
          -137 -595 rlineto
          25 hlineto
          135 591 57 -12 55 -23 58 -9 rlinecurve
          -122 -544 rlineto
          24 hlineto
          121 542 rlineto
          13 13 1 3 13 hvcurveto
          -2 hlineto
          33 10 68 48 -2 28 rrcurveto
          endchar
        </CharString>
        <CharString name="q">
          -10 -266 -21 hstem
          366 253 rmoveto
          -2 -14 -16 6 -12 hhcurveto
          -26 2 -9 -8 -26 -44 -26 -42 -88 -155 -53 23 -95 42 276 376 57 -155 11 -30 35 30 -36 29 -74 59 -98 -34 -59 -71 -74 -88 -60 -144 99 -43 43 -13 40 32 28 33 rrcurveto
          9 12 55 79 6 11 -42 -94 -28 -39 -81 -187 -20 -44 -8 -27 22 -24 8 -9 14 -9 7 -12 9 62 149 360 77 118 rrcurveto
          endchar
        </CharString>
        <CharString name="question">
          30 -14 82 536 44 hstem
          207 116 94 72 vstem
          424 444 rmoveto
          155 175 -153 77 -139 -79 -27 -16 -33 -21 -13 -29 -29 -69 62 -42 53 41 46 36 -27 69 -59 -32 -16 -9 -15 -11 -4 -16 -4 24 30 30 30 15 97 47 92 -54 -88 -111 rrcurveto
          -74 -93 -103 -109 -24 -100 -3 -13 17 -6 5 12 51 135 87 51 86 98 rrcurveto
          -222 -417 rmoveto
          -81 callsubr
          endchar
        </CharString>
        <CharString name="questiondown">
          44 336 -20 hstem
          72 -122 rmoveto
          -155 -175 153 -77 139 79 27 16 33 21 13 29 29 69 -62 42 -53 -41 -46 -36 27 -69 59 32 16 9 15 11 4 16 4 -24 -30 -30 -30 -15 -97 -47 -92 54 88 111 rrcurveto
          74 93 103 109 24 100 3 13 -17 6 -5 -12 -51 -135 -87 -51 -86 -98 rrcurveto
          222 417 rmoveto
          -19 callgsubr
          -20 callsubr
          endchar
        </CharString>
        <CharString name="quotedbl">
          -34 416 20 hstem
          331 637 -40 callsubr
        </CharString>
        <CharString name="quotedblbase">
          -107 49 -21 198 -20 hstem
          228 206 -40 callsubr
        </CharString>
        <CharString name="quotedblleft">
          -48 558 82 hstem
          284 717 rmoveto
          -30 callsubr
          -119 hmoveto
          -30 callsubr
          endchar
        </CharString>
        <CharString name="quotedblright">
          41 632 82 hstem
          242 27 91 27 vstem
          387 660 rmoveto
          -74 callgsubr
          -119 hmoveto
          -74 callgsubr
          endchar
        </CharString>
        <CharString name="quoteleft">
          -167 558 82 hstem
          166 717 rmoveto
          13 5 0 11 -13 -4 -45 -14 -64 -37 -10 -66 rrcurveto
          -26 -4 7 -28 30 hhcurveto
          22 25 18 23 7 hvcurveto
          23 7 -12 18 -23 hhcurveto
          -10 -11 -3 -6 -9 hvcurveto
          13 44 38 30 39 12 rrcurveto
          endchar
        </CharString>
        <CharString name="quoteright">
          -194 632 82 hstem
          241 27 vstem
          268 660 rmoveto
          -74 callgsubr
          endchar
        </CharString>
        <CharString name="quotesinglbase">
          -198 171 -20 hstem
          188 116 rmoveto
          26 -12 29 -29 -23 -21 -19 -23 -4 vhcurveto
          -22 -1 callsubr
          -12 13 5 rrcurveto
          42 14 58 36 66 vvcurveto
          endchar
        </CharString>
        <CharString name="quotesingle">
          -194 477 82 hstem
          161 27 vstem
          188 504 rmoveto
          26 -12 29 -29 -23 -21 -19 -22 -4 vhcurveto
          -23 -1 callsubr
          -11 13 4 rrcurveto
          42 14 58 37 65 vvcurveto
          endchar
        </CharString>
        <CharString name="r">
          -92 -90 callgsubr
          endchar
        </CharString>
        <CharString name="r.001">
          -92 330 183 -36 callgsubr
          -13 7 -9 -17 -21 -43 -62 -125 -41 1 -60 3 102 183 15 31 12 25 16 38 -7 14 -49 -5 -52 -1 -37 2 17 12 32 27 6 28 14 67 -66 25 -9 -56 rrcurveto
          -25 -159 -117 -228 -122 -121 -8 -8 8 -12 8 7 49 47 120 149 62 166 12 32 rcurveline
          56 -1 35 -13 -14 -33 -11 -25 -36 -52 -15 -41 -40 -104 61 -30 34 8 65 16 51 106 29 60 rrcurveto
          endchar
        </CharString>
        <CharString name="r.002">
          -62 360 183 -36 callgsubr
          -13 7 -9 -17 -21 -43 -62 -125 -41 1 -60 3 102 183 15 31 12 25 16 38 -7 14 -49 -5 -52 -1 -37 2 17 12 32 27 6 28 14 67 -65 25 -10 -56 rrcurveto
          -32 -180 -159 -258 -198 24 -11 1 -7 -16 17 -5 167 -49 125 187 85 169 56 -1 35 -13 -14 -33 -11 -25 -36 -52 -15 -41 -40 -104 61 -30 34 8 65 16 51 106 29 60 rrcurveto
          endchar
        </CharString>
        <CharString name="racute">
          -92 500 20 hstem
          -90 callgsubr
          57 406 -102 callgsubr
        </CharString>
        <CharString name="radical">
          270 18 -21 hstem
          168 207 rmoveto
          51 -210 128 188 129 186 132 186 rlinecurve
          -7 6 -12 11 -4 -7 -47 -83 -261 -318 -39 -58 -13 37 -15 91 -21 26 -68 -68 -72 -41 26 -14 34 18 28 28 31 22 rrcurveto
          endchar
        </CharString>
        <CharString name="rcaron">
          -92 -90 callgsubr
          -129 446 -98 callgsubr
          endchar
        </CharString>
        <CharString name="rcommaaccent">
          -92 -119 82 hstem
          80 27 vstem
          -90 callgsubr
          -226 -272 -99 callgsubr
        </CharString>
        <CharString name="registered">
          365 -13 54 291 60 132 60 106 53 hstem
          -10 55 166 66 198 65 152 55 vstem
          26 264 rmoveto
          -24 callgsubr
          44 hmoveto
          -25 callsubr
          501 -44 rmoveto
          4 9 -8 -2 -4 -7 -4 -9 -15 -33 -20 -20 -30 -30 -21 15 -21 32 -31 47 -13 65 -2 12 rrcurveto
          9 29 2 3 16 hvcurveto
          132 21 36 90 -114 33 -12 3 -14 2 -15 3 4 13 -1 8 -18 -19 -48 7 -53 -1 -58 -8 -92 -13 -49 -51 -4 -44 -6 -71 80 -18 42 44 9 8 5 12 2 13 rrcurveto
          1 5 -5 6 -1 -10 rrcurveto
          -5 -5 -11 -11 -11 vhcurveto
          -36 -38 -65 20 11 56 8 35 40 41 71 14 56 12 52 2 47 -4 -34 -38 -31 -62 -34 -59 -44 -78 -47 -76 -73 4 -58 3 16 81 66 -25 7 -3 3 5 -7 3 rrcurveto
          -97 33 -29 -98 88 -11 49 -6 48 11 36 40 35 37 19 38 20 40 4 -27 5 -72 38 -40 27 -28 46 -2 26 28 18 19 19 43 6 12 rrcurveto
          -59 216 rmoveto
          74 -24 -57 -85 -77 -10 -48 -5 rcurveline
          22 47 26 40 24 44 13 -2 13 -2 10 -3 rrcurveto
          endchar
        </CharString>
        <CharString name="ring">
          -40 368 17 93 18 hstem
          105 17 92 19 vstem
          139 525 -56 callgsubr
        </CharString>
        <CharString name="robbie">
          300 -170 -21 224 52 31 61 11 -20 22 -20 22 -20 23 -20 21 -20 23 -20 22 -20 22 -20 21 -20 21 -20 22 -20 112 67 45 -20 25 -20 22 -20 27 -20 29 -20 hstemhm
          hintmask 111000000000011100010000
          598 434 rmoveto
          21 vlineto
          12 0 11 -1 11 vhcurveto
          -1 10 -2 8 -5 7 rrcurveto
          2 vlineto
          -11 11 rlineto
          22 vlineto
          1 1 1 1 1 vhcurveto
          1 -16 callsubr
          hhcurveto
          18 2 vlineto
          2 1 0 4 5 vvcurveto
          -4 11 rlineto
          1 -1 2 -3 3 vhcurveto
          -2 2 -1 2 1 vvcurveto
          -4 7 -3 6 rlineto
          5 -2 4 -4 4 vhcurveto
          -1 3 -1 2 3 vvcurveto
          -1 3 -1 2 -3 3 -1 3 -3 2 -3 1 -3 1 -4 1 -3 3 rrcurveto
          -2 -1 1 3 hvcurveto
          -1 2 0 2 2 vvcurveto
          -3 1 -3 2 -4 1 -4 1 -3 3 -1 3 rrcurveto
          13 vlineto
          14 callgsubr
          hvcurveto
          1 -1 -6 callgsubr
          hhcurveto
          -5 2 -5 1 -7 1 -6 1 -5 2 -5 3 rrcurveto
          3 vlineto
          -26 13 rlineto
          -30 hlineto
          -5 4 -4 4 -9 8 rlineto
          3 -4 -4 2 -3 hhcurveto
          1 -4 -5 0 -7 hhcurveto
          -6 -2 -5 -1 -3 -2 rrcurveto
          -1 -2 0 -1 -2 hvcurveto
          -1 -1 -2 0 -1 hhcurveto
          -2 -3 -3 0 -2 hhcurveto
          2 -1 -3 0 -3 hhcurveto
          -2 -2 -3 -1 -5 hhcurveto
          -1 -4 -3 0 -3 hhcurveto
          -2 -1 1 1 -1 hvcurveto
          -6 callgsubr
          2 -2 1 -3 2 -4 1 -3 1 -6 3 rcurveline
          -7 2 -9 -1 -9 -5 -9 -5 -6 -4 -3 -3 -8 -4 rcurveline
          -5 -4 rlineto
          -46 -5 hlineto
          -1 -2 0 -1 -1 hvcurveto
          -1 -1 -2 0 -1 hhcurveto
          -3 -2 -2 -2 -2 vvcurveto
          -2 -2 -1 -1 -1 hhcurveto
          -2 -3 -2 -1 -3 hhcurveto
          -2 -1 -1 -1 -1 vvcurveto
          -1 -1 -1 -3 hvcurveto
          -5 vlineto
          -1 -2 -1 -1 -1 hvcurveto
          -3 -2 rlineto
          -1 0 -2 -1 -2 vhcurveto
          -1 -1 0 -2 -1 vvcurveto
          -2 -1 -2 -2 -1 vhcurveto
          11 callsubr
          -1 1 vvcurveto
          -2 1 0 -1 -1 vvcurveto
          -5 -3 -4 -4 -4 -3 -11 -10 rcurveline
          -1 -1 -2 -1 -1 vhcurveto
          -4 -4 rlineto
          -6 hlineto
          -4 callgsubr
          -2 hvcurveto
          -5 -7 rlineto
          -2 -2 -3 -1 -3 hhcurveto
          -2 -2 rlineto
          -1 -1 1 1 -3 hvcurveto
          -4 -3 hlineto
          -10 -10 -10 -9 rlineto
          -2 vlineto
          -5 -5 rlineto
          11 callsubr
          -2 -2 vvcurveto
          -2 -1 -1 -2 -1 -1 rrcurveto
          -31 vlineto
          -2 -4 -2 -4 -3 -4 rrcurveto
          -3 -4 -1 -5 -5 vvcurveto
          -24 vlineto
          -12 1 -11 3 -11 vhcurveto
          9 -31 1 -5 0 -3 -1 -2 rlinecurve
          -1 -1 -1 -3 -3 vvcurveto
          -29 8 vlineto
          3 2 -1 -1 2 hvcurveto
          -4 vlineto
          -1 1 2 -1 2 hhcurveto
          14 callsubr
          -3 vvcurveto
          4 -11 5 -6 hlineto
          3 3 0 -1 hvcurveto
          2 -1 1 -2 1 -3 rrcurveto
          -2 5 -26 -5 -6 -4 -3 -8 vlineto
          1 -1 -1 -1 -3 -2 rrcurveto
          -1 -1 -1 -1 1 vvcurveto
          1 -4 callgsubr
          vhcurveto
          -9 15 5 17 vlineto
          -3 1 -1 2 vhcurveto
          14 callsubr
          -1 vvcurveto
          1 -1 0 -3 -1 -3 -4 -18 rcurveline
          -1 -3 0 -1 -1 vvcurveto
          -2 -13 2 hlineto
          3 -5 1 -2 1 vvcurveto
          1 1 14 callsubr
          rrcurveto
          -1 -1 0 -3 -5 vvcurveto
          -3 0 -2 1 -3 vhcurveto
          -3 -1 -3 -2 -3 hhcurveto
          -6 -2 -5 vlineto
          1 2 -2 -1 -3 -3 rrcurveto
          19 callsubr
          -8 vlineto
          20 callgsubr
          -1 -2 0 2 -2 hvcurveto
          19 callsubr
          -1 -2 0 -2 -1 hvcurveto
          -2 hlineto
          hintmask 111000000000101000100000
          6 vlineto
          -2 1 -1 0 0 vvcurveto
          hintmask 111000000000011000100000
          -1 -2 -6 callgsubr
          2 rrcurveto
          -5 hlineto
          hintmask 111000000010001000100000
          -2 0 -2 -1 vhcurveto
          hintmask 110000010000001000100000
          -1 -2 0 -2 -3 vvcurveto
          -7 hlineto
          20 callgsubr
          -15 5 vlineto
          hintmask 111000000010001000100000
          2 2 rlineto
          hintmask 111000000000101000100000
          2 1 1 2 -1 vhcurveto
          hintmask 111000000010001000100000
          4 -2 rlineto
          20 callgsubr
          1 2 -1 -1 3 hvcurveto
          hintmask 110010000000001000100000
          -11 2 -8 -2 -22 vlineto
          -3 0 -3 1 -2 vhcurveto
          1 -1 1 -3 1 -3 rrcurveto
          -16 vlineto
          8 -28 rlineto
          2 -9 1 -11 -13 vvcurveto
          -21 vlineto
          -7 -11 -3 -4 -2 -4 -1 -3 rlinecurve
          -1 -3 -1 -4 -4 vvcurveto
          -1 -3 -1 -3 -2 -3 rrcurveto
          -39 vlineto
          10 -7 9 -6 rlineto
          -6 vlineto
          -3 1 -2 1 -2 vhcurveto
          3 -2 2 -2 -3 vvcurveto
          2 -2 1 -3 1 -3 rrcurveto
          26 -2 hlineto
          8 -7 8 -6 rlineto
          -3 2 -4 vlineto
          3 -2 3 -2 3 -3 3 -2 2 -3 1 -3 rrcurveto
          -18 4 -4 vlineto
          5 7 0 2 8 hvcurveto
          8 6 -1 -3 3 hvcurveto
          -3 0 -2 1 -1 vhcurveto
          -1 0 -6 callgsubr
          vhcurveto
          -6 vlineto
          -1 -3 -1 -3 1 -3 1 -3 -1 -3 -1 -1 rrcurveto
          -4 89 11 3 2 6 2 6 vlineto
          21 callsubr
          2 3 rrcurveto
          -2 1 0 2 2 vvcurveto
          2 2 1 1 1 hhcurveto
          21 callsubr
          2 hhcurveto
          1 1 2 0 1 hhcurveto
          1 0 0 1 1 vhcurveto
          -1 20 callsubr
          7 4 1 1 2 hvcurveto
          7 7 4 6 rlineto
          -20 callgsubr
          2 3 vvcurveto
          2 hlineto
          3 0 2 1 vhcurveto
          1 22 callgsubr
          vvcurveto
          3 3 1 0 -1 vvcurveto
          -1 1 1 -1 1 hhcurveto
          7 4 2 1 2 vlineto
          1 1 0 0 1 vvcurveto
          3 5 vlineto
          2 21 callsubr
          hhcurveto
          1 2 0 1 1 vvcurveto
          5 hlineto
          1 0 1 -16 callsubr
          -1 1 hvcurveto
          1 2 0 1 2 hvcurveto
          1 2 2 0 1 hhcurveto
          22 callgsubr
          1 vhcurveto
          1 1 0 0 1 vvcurveto
          1 -16 callsubr
          hhcurveto
          3 2 2 3 2 vhcurveto
          1 3 2 1 3 hhcurveto
          3 0 2 -2 vhcurveto
          0 1 1 3 1 vhcurveto
          12 callgsubr
          -4 -2 -1 -2 2 hvcurveto
          -1 -1 -2 -3 -1 vhcurveto
          -24 hlineto
          -3 1 -1 2 -1 2 -1 1 -2 2 -3 1 rrcurveto
          4 -1 vlineto
          1 -1 -1 -1 -1 -2 -4 4 rcurveline
          -1 1 0 0 1 vvcurveto
          -39 hlineto
          -2 5 rlineto
          -4 1 hlineto
          0 -4 callgsubr
          1 vhcurveto
          -5 2 hlineto
          -1 2 -3 0 -3 -2 rrcurveto
          -1 -3 -3 -1 -2 hhcurveto
          1 -3 -3 1 -3 hhcurveto
          -8 4 hlineto
          -3 1 -3 0 -2 -2 rrcurveto
          -2 -1 -1 0 2 vvcurveto
          -16 14 rlineto
          2 vlineto
          -1 -1 -2 0 -1 3 rrcurveto
          3 -1 -2 1 -1 hhcurveto
          12 vlineto
          5 1 3 1 2 vhcurveto
          1 0 2 -1 3 vhcurveto
          -3 5 rlineto
          -3 -3 -1 -1 -1 hvcurveto
          -9 hlineto
          -3 -1 0 1 hvcurveto
          -1 0 20 callsubr
          -2 6 callgsubr
          48 hlineto
          -5 4 rlineto
          3 3 2 2 1 vvcurveto
          2 22 callgsubr
          vvcurveto
          2 6 4 vlineto
          5 3 -1 -3 1 hvcurveto
          3 2 -20 callgsubr
          vvcurveto
          3 6 rlineto
          6 3 vlineto
          0 21 callsubr
          vhcurveto
          3 vlineto
          9 7 -2 -4 4 hvcurveto
          4 -4 4 -5 3 -7 rrcurveto
          -1 2 3 0 4 hhcurveto
          -1 4 4 0 5 hhcurveto
          12 hlineto
          3 1 3 0 1 1 rrcurveto
          4 vlineto
          -4 2 rlineto
          -24 hlineto
          3 -1 2 -2 3 vhcurveto
          -4 5 rlineto
          16 vlineto
          1 21 callsubr
          vhcurveto
          1 2 20 callsubr
          2 17 -2 7 vlineto
          4 -6 rlineto
          19 callsubr
          2 -2 1 -2 1 -3 rrcurveto
          35 1 hlineto
          0 22 callgsubr
          vhcurveto
          1 2 0 3 vhcurveto
          -1 2 2 0 2 hhcurveto
          1 1 1 2 hvcurveto
          1 -2 vlineto
          -7 5 rlineto
          -3 1 -1 2 1 vvcurveto
          7 vlineto
          7 4 1 2 2 hvcurveto
          2 1 5 0 7 -2 rrcurveto
          4 6 vlineto
          2 5 2 3 1 vvcurveto
          1 2 4 1 7 hhcurveto
          1 1 rlineto
          1 hlineto
          1 1 14 callsubr
          rrcurveto
          -16 callgsubr
          1 vvcurveto
          -1 1 21 callsubr
          rrcurveto
          hintmask 110000100000001000100000
          13 -2 vlineto
          20 callgsubr
          2 -2 4 vlineto
          19 callsubr
          -5 -4 -1 -1 -3 hvcurveto
          -1 -2 -3 -1 -3 hhcurveto
          -30 hlineto
          20 callgsubr
          -5 4 rlineto
          -4 hlineto
          hintmask 111000000010001000100000
          2 -6 vlineto
          hintmask 110100000000001000100000
          5 -5 vlineto
          hintmask 110010000000001000100000
          2 -9 vlineto
          hintmask 110001000000001000100000
          2 -8 vlineto
          hintmask 110010000000001000100000
          -5 -2 rlineto
          -21 hlineto
          hintmask 110001000000001000100000
          -3 2 rlineto
          -2 19 hlineto
          1 7 -2 6 -3 3 rrcurveto
          -1 -2 0 -1 -2 hvcurveto
          -1 -1 -1 1 1 vvcurveto
          -1 -1 -1 0 0 vvcurveto
          -1 vlineto
          -7 -3 -4 -3 -1 -3 rrcurveto
          hintmask 111000000000011000100000
          -1 -3 -3 -3 -3 -3 rrcurveto
          -5 hlineto
          hintmask 111000000000101000100000
          -2 -6 vlineto
          hintmask 111000000010001000100000
          -5 -2 rlineto
          19 callsubr
          -5 1 -7 -2 -9 -3 -9 -3 -8 0 -7 3 rrcurveto
          20 callgsubr
          -1 -2 1 1 -2 hvcurveto
          hintmask 111000000000101000100000
          -4 4 rlineto
          -4 hlineto
          hintmask 111000000001001000100000
          -1 -1 -2 0 -1 hhcurveto
          hintmask 111000000010001000100000
          -1 -2 -2 0 -1 hhcurveto
          hintmask 111000000001001000100000
          -1 -2 0 1 -2 hvcurveto
          hintmask 111000000000101000100000
          1 -1 -2 0 -1 hhcurveto
          -4 hlineto
          -3 5 -1 1 -2 2 -3 1 rlinecurve
          3 -1 4 -1 5 vhcurveto
          -4 15 rlineto
          -1 5 -1 4 5 vvcurveto
          -1 4 1 3 2 2 rrcurveto
          -1 0 20 callsubr
          2 hlineto
          1 1 0 0 1 hhcurveto
          7 5 1 3 3 hvcurveto
          1 5 0 4 -1 2 rrcurveto
          1 -1 -1 1 -2 hhcurveto
          1 -1 -2 0 -2 hhcurveto
          -2 1 -2 1 -2 2 rrcurveto
          -6 6 callgsubr
          1 4 3 2 vhcurveto
          3 1 3 4 3 5 rrcurveto
          5 3 0 -1 hvcurveto
          2 -1 2 2 3 3 rrcurveto
          14 hlineto
          5 -8 rlineto
          2 -4 1 -3 -1 vvcurveto
          20 hlineto
          -2 1 1 -2 -1 hhcurveto
          -1 -2 14 callsubr
          rrcurveto
          4 -3 hlineto
          -1 1 -2 1 -1 vhcurveto
          3 hlineto
          -1 1 0 0 1 hhcurveto
          14 callsubr
          -1 vvcurveto
          15 hlineto
          1 1 -1 -1 hvcurveto
          5 hlineto
          14 callgsubr
          -1 vhcurveto
          -2 vlineto
          1 -4 callgsubr
          -1 vvcurveto
          6 -2 20 2 hlineto
          2 2 2 2 2 1 5 4 rcurveline
          43 hlineto
          5 3 1 1 3 hvcurveto
          2 1 2 2 3 vvcurveto
          2 3 0 3 3 vvcurveto
          3 9 1 -2 3 1 3 4 rlinecurve
          3 4 1 3 1 vvcurveto
          -1 7 -4 6 -6 7 -5 6 -5 6 -3 5 rrcurveto
          -7 hlineto
          -5 4 -23 3 -29 0 -40 -3 rlinecurve
          -1 -12 0 -3 -2 vhcurveto
          -1 vlineto
          -1 14 callgsubr
          vvcurveto
          -17 hlineto
          3 0 2 -1 vhcurveto
          -1 -1 0 1 1 vvcurveto
          29 2 2 6 vlineto
          2 1 1 2 vhcurveto
          4 3 rlineto
          hintmask 111000001000001100010000
          2 3 0 3 -1 3 -1 3 1 3 3 1 rrcurveto
          2 -1 4 -2 5 vhcurveto
          -2 5 -1 4 1 vvcurveto
          -5 11 -1 hlineto
          -1 20 callsubr
          16 -4 6 vlineto
          -7 -3 0 -1 2 hvcurveto
          1 -1 -1 -2 -3 -5 -4 -4 rcurveline
          -6 vlineto
          -4 callgsubr
          -1 vhcurveto
          -1 -4 callgsubr
          -1 vvcurveto
          -3 -3 -1 -3 -1 hvcurveto
          -7 -5 1 2 -1 hvcurveto
          -9 6 rlineto
          6 vlineto
          14 callsubr
          2 vhcurveto
          22 2 vlineto
          3 1 0 2 -2 2 rrcurveto
          -2 2 -1 2 2 vvcurveto
          -2 hlineto
          -1 -1 -1 -1 hvcurveto
          -9 9 -1 2 -1 1 1 1 rlinecurve
          -16 callsubr
          2 vvcurveto
          -20 callgsubr
          2 2 hvcurveto
          1 -16 callgsubr
          hhcurveto
          2 1 -1 -2 hvcurveto
          -1 1 1 -1 1 hhcurveto
          3 3 1 1 4 hvcurveto
          5 3 rlineto
          -1 0 -6 callgsubr
          vhcurveto
          -1 1 2 -1 1 hhcurveto
          2 5 rlineto
          1 1 2 0 2 hhcurveto
          1 -2 1 -1 -3 vvcurveto
          3 3 2 1 0 vvcurveto
          3 3 5 3 1 2 -2 1 rlinecurve
          -1 1 1 3 3 5 rrcurveto
          2 0 2 2 vhcurveto
          2 2 2 2 3 vhcurveto
          31 2 6 2 hlineto
          5 3 3 2 3 3 rrcurveto
          2 3 3 1 5 hhcurveto
          7 vlineto
          -3 1 3 -2 3 hhcurveto
          5 vlineto
          3 1 3 2 3 vvcurveto
          2 2 2 2 5 1 rrcurveto
          8 -5 hlineto
          1 1 1 -2 1 -3 rrcurveto
          19 6 hlineto
          1 -3 2 -1 2 2 rrcurveto
          1 2 -20 callgsubr
          vvcurveto
          3 hlineto
          -1 0 1 2 2 hvcurveto
          2 -16 callgsubr
          hhcurveto
          5 3 5 2 6 1 rrcurveto
          1 5 7 0 9 hhcurveto
          -5 vlineto
          1 1 1 -1 3 -2 rrcurveto
          2 hlineto
          -5 2 -4 5 -4 vhcurveto
          -1 -1 -2 -2 vhcurveto
          -1 -2 -1 -1 -3 vvcurveto
          5 -6 2 -2 13 -5 2 hlineto
          3 -1 1 -2 -1 vvcurveto
          2 -4 hlineto
          5 6 0 -1 9 hvcurveto
          8 -1 5 -20 callgsubr
          rrcurveto
          1 1 1 1 hvcurveto
          2 7 2 vlineto
          5 2 0 1 -2 hvcurveto
          1 1 0 3 vhcurveto
          5 2 3 0 3 -1 rrcurveto
          14 callsubr
          -1 vvcurveto
          3 -1 2 0 -6 callgsubr
          1 1 0 2 -1 5 -8 rcurveline
          2 -3 2 -3 2 -1 rrcurveto
          4 -2 14 hlineto
          2 -5 rlineto
          0 1 0 -1 vvcurveto
          1 1 rlineto
          -4 callgsubr
          -1 vhcurveto
          5 -4 rlineto
          2 -2 0 -2 -3 vvcurveto
          10 hlineto
          3 -16 callgsubr
          3 rrcurveto
          -3 1 -2 1 -1 vhcurveto
          -1 1 0 0 1 hhcurveto
          -6 2 -11 5 -7 2 -4 2 -2 6 vlineto
          1 1 -1 -2 2 hvcurveto
          1 -1 0 0 -1 vvcurveto
          2 -4 4 -11 hlineto
          -2 0 -6 callgsubr
          vhcurveto
          14 callgsubr
          -1 vhcurveto
          19 callsubr
          -33 -2 -6 vlineto
          hintmask 111000001000001010000000
          -4 -3 rlineto
          -6 vlineto
          hintmask 111000001000001100010000
          -1 1 rlineto
          -1 0 0 -1 hvcurveto
          -3 -3 -2 -7 -9 vvcurveto
          -125 -2 vlineto
          -2 0 -1 -1 hvcurveto
          2 -1 0 -3 -3 vvcurveto
          -6 -4 hlineto
          -3 -1 -1 -1 vhcurveto
          -3 -3 0 -1 1 hhcurveto
          14 callsubr
          -1 vvcurveto
          -3 -1 -2 -1 0 vvcurveto
          -2 -4 callgsubr
          -2 vvcurveto
          -2 1 3 -1 3 hhcurveto
          -5 -6 rlineto
          5 hlineto
          1 -1 0 0 -1 vvcurveto
          -1 hlineto
          1 -3 1 0 0 vvcurveto
          2 1 -1 1 -3 vhcurveto
          2 3 1 1 -1 -1 -1 -1 1 2 2 3 rrcurveto
          5 hlineto
          -16 callgsubr
          1 hvcurveto
          7 vlineto
          1 1 1 1 1 vhcurveto
          1 0 20 callsubr
          4 vlineto
          3 0 2 1 vhcurveto
          1 2 0 2 4 vvcurveto
          3 15 hlineto
          1 5 2 4 3 5 rrcurveto
          5 hlineto
          3 2 5 4 5 vhcurveto
          2 -4 9 -2 65 vlineto
          2 0 1 1 -1 vhcurveto
          1 -1 0 1 2 vvcurveto
          1 1 0 3 -1 3 -2 9 rcurveline
          -1 3 0 3 3 vvcurveto
          3 1 2 2 1 vhcurveto
          hintmask 111000001000001010000000
          6 5 vlineto
          hintmask 111000001000001001000000
          0 0 1 -1 1 vhcurveto
          -16 callsubr
          hvcurveto
          hintmask 111000001000001100010000
          15 vlineto
          -61 -112 rmoveto
          2 -1 -1 1 -2 hhcurveto
          -2 4 -7 5 hlineto
          -1 -1 -2 0 -3 3 rrcurveto
          -6 callgsubr
          2 3 vvcurveto
          -3 -3 -1 -2 -4 hvcurveto
          -3 -2 -4 0 -3 1 -2 4 rcurveline
          -7 hlineto
          -6 9 rlineto
          -15 2 hlineto
          -5 4 -11 -4 rlineto
          -2 -13 vlineto
          -2 -1 -1 -1 1 hhcurveto
          -1 1 -4 callgsubr
          hhcurveto
          -5 vlineto
          -3 -3 -1 -1 -3 hvcurveto
          -1 -3 -2 -1 -1 hhcurveto
          -2 vlineto
          -5 -5 rlineto
          -2 hlineto
          -4 callgsubr
          1 vhcurveto
          1 -1 -1 -1 -1 -2 -1 -1 rcurveline
          -1 -1 -4 callgsubr
          hhcurveto
          -3 vlineto
          -3 -1 -1 -1 vhcurveto
          -1 0 -2 1 -3 vhcurveto
          1 -3 -1 -2 -1 -2 8 -8 rcurveline
          3 -3 0 -4 -5 -5 rrcurveto
          -2 1 1 -1 -1 hhcurveto
          -1 -1 -10 callgsubr
          hhcurveto
          -2 27 vlineto
          1 1 -1 -1 hvcurveto
          -1 1 2 -1 3 hhcurveto
          -3 1 -3 3 vhcurveto
          2 -2 2 -1 1 -2 rrcurveto
          13 hlineto
          1 0 0 1 hvcurveto
          -1 1 rlineto
          7 hlineto
          2 3 3 5 4 vhcurveto
          4 2 vlineto
          5 2 rlineto
          4 vlineto
          1 1 1 1 1 hhcurveto
          1 22 callgsubr
          vvcurveto
          10 7 0 2 5 hvcurveto
          4 4 4 5 3 hvcurveto
          -16 callsubr
          -2 hhcurveto
          -2 1 0 2 3 3 rrcurveto
          1 1 1 2 hvcurveto
          2 2 1 1 -1 hhcurveto
          -1 1 21 callsubr
          rrcurveto
          -154 -194 rmoveto
          2 -4 rlineto
          7 hlineto
          1 0 0 -1 1 hvcurveto
          -1 13 -4 8 -3 7 -2 13 -6 vlineto
          1 1 1 3 vhcurveto
          5 hlineto
          -4 callgsubr
          1 vhcurveto
          1 hlineto
          -3 3 3 0 3 hhcurveto
          3 2 2 -1 1 -3 rrcurveto
          3 -1 2 -2 -3 vvcurveto
          1 2 0 2 2 hvcurveto
          2 3 0 -2 3 hvcurveto
          -16 callgsubr
          -1 -1 -1 -1 -20 callgsubr
          3 rrcurveto
          3 2 0 1 -1 hvcurveto
          -1 1 1 2 2 3 2 -2 rcurveline
          8 5 vlineto
          1 0 0 -1 2 vhcurveto
          -1 0 2 1 -1 hvcurveto
          -2 3 rlineto
          3 2 2 1 1 vvcurveto
          2 22 callgsubr
          vvcurveto
          2 hlineto
          3 1 1 3 hvcurveto
          14 -4 4 hlineto
          -1 14 callsubr
          vhcurveto
          14 callsubr
          -2 vvcurveto
          12 hlineto
          7 1 4 1 1 2 2 2 rcurveline
          2 2 -20 callgsubr
          vvcurveto
          -20 callgsubr
          2 -1 3 rrcurveto
          -1 2 0 3 3 vvcurveto
          -35 hlineto
          5 -1 2 -3 -2 -1 3 5 vhcurveto
          -5 -3 1 3 hvcurveto
          hintmask 110100000000001000100000
          -2 2 -1 2 -2 1 rrcurveto
          hintmask 110010000000001000100000
          -1 -1 1 1 hvcurveto
          hintmask 110000100000001000100000
          -7 5 rlineto
          20 callgsubr
          1 0 0 -1 1 vhcurveto
          -1 4 hlineto
          -2 1 -2 1 -1 vvcurveto
          hintmask 111000000010001000100000
          -2 -1 0 1 1 vvcurveto
          hintmask 111000000000011000100000
          -1 -1 1 3 hvcurveto
          hintmask 110001000000001000100000
          2 -2 2 1 vvcurveto
          hintmask 110000100000001000100000
          2 -3 0 1 -1 hhcurveto
          hintmask 110000010000001000100000
          1 -1 -2 0 -2 hhcurveto
          19 callsubr
          3 vlineto
          hintmask 111000000000101000100000
          4 -2 -1 -5 3 vhcurveto
          -1 5 -4 5 -6 3 rrcurveto
          1 -1 0 -2 -2 vhcurveto
          -2 -2 -2 -1 -1 hhcurveto
          19 callsubr
          -15 vlineto
          hintmask 110000010000001000100000
          4 -3 rlineto
          hintmask 110001000000001000100000
          -4 vlineto
          20 callgsubr
          3 -2 3 -1 -8 vvcurveto
          5 -50 hlineto
          -3 -1 -2 -2 -3 vvcurveto
          -23 -3 hlineto
          -3 -4 0 1 -4 hvcurveto
          -4 1 -4 -1 -3 -1 rrcurveto
          -7 hlineto
          -2 3 -3 2 -2 0 -1 -2 rlinecurve
          -2 -1 -1 -1 -3 hhcurveto
          -22 -84 rmoveto
          5 -3 4 -5 4 vhcurveto
          2 -2 vlineto
          1 1 -1 1 -2 2 -3 2 rcurveline
          -3 hlineto
          -1 -1 0 0 -1 hhcurveto
          -1 -1 rlineto
          -9 hlineto
          -2 -4 rlineto
          -15 4 -5 hlineto
          -5 1 -2 0 -2 vvcurveto
          -2 -1 -1 -1 vhcurveto
          -7 hlineto
          -4 callgsubr
          -1 hvcurveto
          -10 hlineto
          -3 -2 1 1 hvcurveto
          -7 -5 -1 -1 -2 hvcurveto
          -9 vlineto
          -3 -6 callgsubr
          3 hhcurveto
          -3 vlineto
          3 -1 2 -1 0 vvcurveto
          12 hlineto
          -3 1 -2 1 -1 vhcurveto
          -20 callgsubr
          5 vhcurveto
          -6 callgsubr
          1 vhcurveto
          2 -3 2 -1 3 -1 2 -1 2 -2 2 -3 rrcurveto
          2 3 3 2 2 hhcurveto
          1 2 3 -1 3 -1 rrcurveto
          7 vlineto
          3 2 20 callsubr
          1 0 0 1 hvcurveto
          1 1 -1 -1 hvcurveto
          3 1 1 2 3 vvcurveto
          16 2 9 1 hlineto
          0 0 1 1 1 vhcurveto
          161 27 rmoveto
          2 -6 callgsubr
          2 vhcurveto
          -5 3 -3 0 -3 vvcurveto
          -5 -1 -3 -2 -1 -1 rrcurveto
          -1 -1 -1 -2 -2 vvcurveto
          -1 -1 0 -2 -1 -2 -1 -1 -1 -1 -3 -1 rrcurveto
          -9 -2 -6 -2 hlineto
          -1 -4 callgsubr
          -1 -1 -1 -3 vhcurveto
          -5 -6 -2 -5 hlineto
          -3 -1 -1 -1 vhcurveto
          -1 -1 0 0 -1 1 rrcurveto
          -1 0 -2 2 -2 vhcurveto
          -4 callgsubr
          -2 vhcurveto
          -1 -1 -1 -1 vhcurveto
          -13 -3 vlineto
          -1 -1 -1 -1 hvcurveto
          5 -4 -3 -1 -3 -3 -3 -3 rlinecurve
          -3 -3 -3 -3 -1 -3 rrcurveto
          -1 -1 -1 -1 vhcurveto
          -2 -4 -2 -2 -7 hlineto
          3 -3 0 -3 -1 -2 -4 -5 rcurveline
          -2 1 -1 1 vhcurveto
          -1 1 2 -1 1 hhcurveto
          2 -1 2 0 1 3 4 3 rcurveline
          9 4 7 hlineto
          3 0 3 1 3 vhcurveto
          1 2 -1 2 -1 2 rrcurveto
          3 0 4 -2 4 vhcurveto
          3 1 3 3 1 vhcurveto
          2 2 2 1 14 callsubr
          2 1 3 2 rrcurveto
          6 vlineto
          1 1 1 2 3 vvcurveto
          2 -16 callgsubr
          vhcurveto
          -16 callgsubr
          1 hvcurveto
          2 3 3 1 4 3 3 3 rlinecurve
          10 8 rlineto
          21 callsubr
          3 hhcurveto
          2 -16 callgsubr
          2 rrcurveto
          5 4 vlineto
          2 1 1 1 -1 hhcurveto
          -1 1 1 1 1 1 rrcurveto
          -464 154 rmoveto
          1 0 0 -1 vhcurveto
          -3 3 -2 4 -1 3 rrcurveto
          -1 3 0 4 5 vvcurveto
          -2 8 -4 hlineto
          12 callgsubr
          -6 -2 -3 hlineto
          -5 0 -4 1 -3 vhcurveto
          1 -3 0 -3 -3 vvcurveto
          1 -2 0 -2 -1 vvcurveto
          6 hlineto
          -1 -1 -1 -3 -5 vvcurveto
          2 hlineto
          3 -4 2 -3 3 -1 rrcurveto
          hintmask 111000000000101000100000
          2 -1 1 -3 -3 vvcurveto
          9 hlineto
          1 3 0 2 3 vvcurveto
          1 66 rmoveto
          7 0 4 -1 3 vhcurveto
          -1 3 0 4 7 vvcurveto
          -3 hlineto
          1 1 -2 1 -3 1 rrcurveto
          6 -2 7 -4 13 -9 -16 2 -6 7 vlineto
          -1 -2 0 -2 -2 vvcurveto
          -1 -2 0 -2 -3 vvcurveto
          6 hlineto
          -8 -4 -5 -7 -2 vhcurveto
          -3 1 -3 2 vhcurveto
          1 -2 2 -2 1 -3 rrcurveto
          6 4 hlineto
          1 5 2 2 -2 hhcurveto
          2 1 -1 3 -2 vhcurveto
          329 -200 rmoveto
          1 -1 2 4 -5 hvcurveto
          -32 -6 hlineto
          -3 14 callsubr
          vvcurveto
          -1 -1 -6 callgsubr
          1 rrcurveto
          -4 -7 hlineto
          1 -1 2 -2 3 -1 rrcurveto
          7 hlineto
          4 3 1 1 1 hvcurveto
          5 6 0 1 5 hvcurveto
          5 1 3 2 3 3 rrcurveto
          -307 157 rmoveto
          -7 hlineto
          -3 6 rlineto
          1 -1 -2 1 -3 hhcurveto
          -7 vlineto
          1 -2 1 -3 3 -3 rrcurveto
          2 2 2 1 0 vvcurveto
          1 2 2 0 3 hhcurveto
          -2 96 rmoveto
          1 -1 1 -2 vhcurveto
          -1 1 -2 1 -1 3 rrcurveto
          -11 2 vlineto
          15 -46 rmoveto
          -8 hlineto
          -6 callgsubr
          1 vhcurveto
          6 hlineto
          285 -155 rmoveto
          5 hlineto
          -3 1 -4 callgsubr
          -1 rrcurveto
          -220 168 rmoveto
          -6 callgsubr
          -1 hvcurveto
          130 -62 rmoveto
          14 callgsubr
          1 vhcurveto
          48 -384 rmoveto
          1 -4 callgsubr
          vvcurveto
          endchar
        </CharString>
        <CharString name="s">
          -96 17 -21 hstem
          152 61 vstem
          -101 callgsubr
          endchar
        </CharString>
        <CharString name="s.alt">
          -96 9 -21 hstem
          152 61 vstem
          329 189 -2 callsubr
          -15 6 -5 -10 -21 -41 -31 -62 -23 -28 -27 -32 -46 -25 -38 4 51 9 32 71 2 39 2 44 -22 36 -16 38 -9 22 -9 49 5 34 4 29 21 26 30 -17 rrcurveto
          11 -6 12 -7 13 3 44 9 -14 47 -34 2 -20 1 -26 -8 -25 -25 -24 -24 -23 -36 -19 -37 -29 -56 -30 -66 -27 -51 -33 -1 -16 -64 22 -45 rrcurveto
          -29 14 44 -10 39 hhcurveto
          61 53 17 49 41 hvcurveto
          34 40 24 54 18 41 rrcurveto
          -258 -176 rmoveto
          -28 -15 24 26 6 hvcurveto
          2 11 16 30 14 -9 3 10 -3 12 -2 4 rrcurveto
          -6 15 -13 -1 0 vvcurveto
          24 44 43 87 27 54 -8 -45 24 -82 -3 -63 -2 -42 -13 -30 -16 -19 rrcurveto
          -15 -13 -14 -11 -23 hhcurveto
          endchar
        </CharString>
        <CharString name="sacute">
          -96 456 20 hstem
          -101 callgsubr
          264 528 -102 callgsubr
        </CharString>
        <CharString name="scaron">
          -96 17 -21 hstem
          152 61 vstem
          -101 callgsubr
          74 572 -98 callgsubr
          endchar
        </CharString>
        <CharString name="scedilla">
          -96 -205 12 callsubr
          130 37 vstem
          168 -112 -31 callsubr
          rrcurveto
          -10 callgsubr
          -1 vhcurveto
          -1 8 8 -1 9 hhcurveto
          13 14 4 6 14 hvcurveto
          113 -34 60 134 37 83 -79 callgsubr
          18 -9 4 17 -18 9 -10 5 -12 2 -15 -2 -35 -5 -30 -42 -18 -39 rrcurveto
          -26 -57 -33 -65 -27 -51 -42 -2 -23 -108 78 -26 -17 -10 -49 -39 -6 -6 rrcurveto
          -86 callsubr
          -16 242 -39 callgsubr
        </CharString>
        <CharString name="scircumflex">
          -96 17 -21 hstem
          152 61 vstem
          253 389 rmoveto
          -36 106 rlineto
          -1 5 -37 -5 0 vvcurveto
          -149 -106 -8 -6 23 -3 10 9 rlinecurve
          13 7 119 64 0 vvcurveto
          43 -67 -9 4 -11 1 -13 -2 rlinecurve
          -35 -5 -30 -42 -18 -39 -26 -57 -33 -65 -27 -51 -36 callsubr
          -22 36 -16 38 -15 36 -10 69 46 22 10 5 12 -2 10 -4 13 -7 5 8 -5 8 6 -1 6 2 -2 5 rrcurveto
          -101 -259 -39 callgsubr
        </CharString>
        <CharString name="scommaaccent">
          -96 -119 82 hstem
          71 27 vstem
          -101 callgsubr
          4 -106 -99 callgsubr
        </CharString>
        <CharString name="section">
          592 667 -13 rmoveto
          -32 callsubr
          9 callsubr
          rrcurveto
          4 callsubr
          -125 -45 -84 -114 70 -94 -19 -8 -18 -9 -17 -10 -169 -101 -134 -188 204 -126 74 -46 101 -35 61 -37 135 -83 -70 -112 -119 -43 -322 -115 -57 248 125 15 rrcurveto
          33 4 -1 23 -27 -7 -29 -8 -22 -11 -16 -13 -62 -51 24 -82 71 -35 72 -36 149 6 100 35 124 45 84 113 -69 94 19 8 18 10 17 10 rrcurveto
          -209 499 rmoveto
          75 -50 134 -36 62 -50 121 -98 -71 -172 -168 -88 -19 -9 rcurveline
          -9 8 -10 8 -11 7 -75 50 -134 36 -62 50 -121 98 71 172 168 88 19 9 rcurveline
          8 -8 10 -8 12 -7 rrcurveto
          endchar
        </CharString>
        <CharString name="semicolon">
          -97 -14 82 142 82 hstem
          125 27 vstem
          254 251 rmoveto
          -81 callsubr
          -103 -237 rmoveto
          26 -12 28 -29 -23 -21 -18 -23 -4 vhcurveto
          -23 -4 16 -18 11 callgsubr
          -30 -37 -12 -12 -4 2 -12 13 5 rrcurveto
          42 14 58 36 66 vvcurveto
          endchar
        </CharString>
        <CharString name="seven">
          136 -5 20 484 66 hstem
          578 562 17 callgsubr
          -42 callgsubr
        </CharString>
        <CharString name="seven.inferior">
          -35 369 367 -43 callsubr
        </CharString>
        <CharString name="seven.onum">
          48 -182 -21 504 66 3 -20 hstemhm
          hintmask 10100000
          411 364 17 callgsubr
          hintmask 11000000
          -42 callgsubr
        </CharString>
        <CharString name="seven.superior">
          -35 369 617 -43 callsubr
        </CharString>
        <CharString name="six">
          69 -11 23 294 31 hstem
          37 59 242 62 vstem
          433 -53 callsubr
        </CharString>
        <CharString name="six.inferior">
          -78 14 17 callsubr
          379 -49 callsubr
        </CharString>
        <CharString name="six.onum">
          42 10 -21 599 -20 hstem
          6 59 243 61 vstem
          402 -53 callsubr
        </CharString>
        <CharString name="six.superior">
          -78 264 17 callsubr
          629 -49 callsubr
        </CharString>
        <CharString name="slash">
          196 761 29 hstem
          698 800 rmoveto
          -275 -347 -297 -383 -99 -87 -20 -17 10 -16 27 17 122 80 416 550 166 191 24 27 -53 12 -21 -27 rrcurveto
          endchar
        </CharString>
        <CharString name="space">
          -93 endchar
        </CharString>
</ttFont>
